<svg xmlns="http://www.w3.org/2000/svg" xmlns:xlink="http://www.w3.org/1999/xlink" width="57" height="56" viewBox="0 0 57 56">
    <defs>
        <path id="8vwl33wora" d="M0 0L56 0 56 56 0 56z"/>
        <path id="ce8eh63bac" d="M0 56L56 56 56 0 0 0z"/>
    </defs>
    <g fill="none" fill-rule="evenodd">
        <g>
            <g>
                <g>
                    <g transform="translate(-462.000000, -966.000000) translate(-36.000000, 966.000000) translate(498.750000, 0.000000)">
                        <mask id="dopqszuuab" fill="#fff">
                            <use xlink:href="#8vwl33wora"/>
                        </mask>
                        <path fill="#FFF" fill-rule="nonzero" d="M0 28C0 12.536 12.536 0 28 0s28 12.536 28 28-12.536 28-28 28S0 43.464 0 28" mask="url(#dopqszuuab)"/>
                    </g>
                    <path fill="#061922" fill-rule="nonzero" d="M46.569 42.272c-2.944-3.817-4.616-8.355-4.844-13.146h9.68c-.228 4.795-1.898 9.334-4.836 13.146m-17.443 9.133v-6.713h-2.252v6.713c-6.097-.29-11.752-2.905-15.951-7.378 3.432-4.285 5.367-9.432 5.604-14.901v-2.252c-.237-5.47-2.172-10.617-5.604-14.901 4.199-4.473 9.854-7.088 15.95-7.378v6.652h2.253V4.595c6.097.29 11.752 2.905 15.951 7.378-3.431 4.284-5.367 9.431-5.604 14.901v2.252c.237 5.47 2.173 10.617 5.604 14.901-4.199 4.473-9.854 7.088-15.95 7.378M9.43 42.272c-2.938-3.812-4.608-8.35-4.836-13.146h9.68c-.229 4.791-1.9 9.33-4.844 13.146m0-28.545c2.944 3.818 4.616 8.356 4.844 13.147h-9.68c.228-4.795 1.898-9.334 4.836-13.147m37.138 0c2.938 3.813 4.608 8.351 4.836 13.147h-9.68c.228-4.79 1.9-9.33 4.844-13.147M28 2.312C13.835 2.312 2.312 13.835 2.312 28c0 14.164 11.523 25.688 25.688 25.688 14.164 0 25.688-11.524 25.688-25.688C53.688 13.835 42.164 2.312 28 2.312" transform="translate(-462.000000, -966.000000) translate(-36.000000, 966.000000) translate(498.750000, 0.000000)"/>
                    <path fill="#C8102E" fill-rule="nonzero" d="M22.277 17.241L22.277 38.672 33.727 38.672 33.727 35.726 25.342 35.726 25.342 17.241z" transform="translate(-462.000000, -966.000000) translate(-36.000000, 966.000000) translate(498.750000, 0.000000)"/>
                    <path fill="#1D428A" fill-rule="nonzero" d="M37.62 24.42v-8.83c0-1.323-.532-1.863-1.839-1.863H20.196c-1.29 0-1.816.54-1.816 1.863v24.82c0 1.323.526 1.863 1.816 1.863H35.78c1.307 0 1.84-.54 1.84-1.863v-8.84h-3.089v7.992H21.445V16.438h13.087v7.983h3.088z" transform="translate(-462.000000, -966.000000) translate(-36.000000, 966.000000) translate(498.750000, 0.000000)"/>
                    <g transform="translate(-462.000000, -966.000000) translate(-36.000000, 966.000000) translate(498.750000, 0.000000)">
                        <mask id="jusmdknv9d" fill="#fff">
                            <use xlink:href="#ce8eh63bac"/>
                        </mask>
                        <path fill="#C8102E" fill-rule="nonzero" d="M29.244 26.457h1.493v-6.27h-1.493v6.27zm4.478 8.44l.005-17.656h-7.44l-.072 17.655h2.98l.048-5.503h1.514l-.021 5.503h2.986z" mask="url(#jusmdknv9d)"/>
                    </g>
                </g>
            </g>
        </g>
    </g>
</svg>
