<svg xmlns="http://www.w3.org/2000/svg" width="548" height="285" viewBox="0 0 548 285">
    <g fill="none" fill-rule="evenodd">
        <g fill="#0E3F8F" fill-rule="nonzero" stroke="#0E3F8F" stroke-width="4">
            <g>
                <path d="M427.051 125.321L424.643 126.72 405.656 115.755 210.217 2.919 65.402 87.078 260.837 199.914 278.617 210.179 277.698 210.712 278.904 211.412 277.415 212.278 245.859 194.057 247.065 193.358 244.639 191.959 243.433 192.658 211.499 174.218 212.705 173.519 210.279 172.12 209.078 172.819 177.144 154.384 178.346 153.684 175.929 152.29 174.723 152.989 142.794 134.549 143.996 133.85 141.569 132.451 140.368 133.15 60.572 87.082 210.208 0.125 290.003 46.193 288.797 46.893 291.223 48.292 292.425 47.593 324.358 66.028 323.156 66.727 325.573 68.127 326.78 67.427 358.713 85.862 357.507 86.562 359.933 87.961 361.135 87.261 393.068 105.697 391.866 106.396 394.288 107.8 395.494 107.1z" transform="translate(156.000000, -963.000000) translate(-152.000000, 966.000000)"/>
                <path d="M298.775 43.906L292.425 47.593 291.223 48.292 288.797 46.893 290.003 46.193 296.348 42.503zM333.125 63.736L326.78 67.427 325.573 68.127 323.156 66.727 324.358 66.028 330.703 62.342zM143.996 133.85L142.794 134.549 136.444 138.24 134.018 136.841 140.368 133.15 141.569 132.451zM178.346 153.684L177.144 154.384 170.799 158.075 168.377 156.675 174.723 152.989 175.929 152.29zM401.839 103.41L395.494 107.1 394.288 107.8 391.866 106.396 393.068 105.697 399.413 102.011zM212.705 173.519L211.499 174.218 205.154 177.909 202.728 176.51 209.078 172.819 210.279 172.12zM247.065 193.358L245.859 194.057 239.513 197.744 237.087 196.344 243.433 192.658 244.639 191.959zM281.048 211.569L280.119 212.112 278.904 211.412 277.698 210.712 278.617 210.179 424.96 125.481 427.377 126.876zM537.596 96.383c-4.485 46.189-35.692 92.616-92.827 125.832l2.421 1.4c29.597-17.203 52.916-37.872 69.36-61.437 14.463-20.736 23.113-43.535 25.171-66.226-1.385.157-2.753.3-4.125.43z" transform="translate(156.000000, -963.000000) translate(-152.000000, 966.000000)"/>
                <path d="M427.05 125.339c41.53 23.973 41.746 62.983.49 86.956-41.257 23.974-108.595 23.979-150.125 0l1.49-.865 1.214.7.929-.539c40.279 22.503 104.549 22.274 144.074-.695 39.912-23.202 39.71-60.956-.48-84.158-40.189-23.203-105.383-23.203-145.294 0-39.53 22.969-39.718 60.198-.722 83.454l-17.794-10.26c-23.974-23.574-18.642-54.414 16.095-74.593 34.736-20.18 87.983-23.378 128.729-9.566l18.987 10.965 2.408-1.4z" transform="translate(156.000000, -963.000000) translate(-152.000000, 966.000000)"/>
                <path d="M447.177 223.614l-2.422-1.399c-117.67 68.383-332.352 73.31-441.758 10.144l-2.412 1.403c52.673 30.409 132.392 46.894 218.726 45.22 41.705-.797 83.926-5.986 122.056-14.99 40.611-9.597 76.213-23.176 105.81-40.378zM367.484 83.575L361.135 87.261 359.933 87.961 357.507 86.562 358.713 85.862 365.058 82.176z" transform="translate(156.000000, -963.000000) translate(-152.000000, 966.000000)"/>
            </g>
        </g>
    </g>
</svg>
