<svg xmlns="http://www.w3.org/2000/svg" xmlns:xlink="http://www.w3.org/1999/xlink" width="55" height="52" viewBox="0 0 55 52">
    <defs>
        <path id="fcv1f2dioa" d="M0 0.091L54.782 0.091 54.782 51.643 0 51.643z"/>
    </defs>
    <g fill="none" fill-rule="evenodd">
        <g>
            <g>
                <g>
                    <g transform="translate(-182.000000, -969.000000) translate(-36.000000, 966.000000) translate(218.000000, 3.000000) translate(0.000000, 0.003995)">
                        <mask id="osme6vitib" fill="#fff">
                            <use xlink:href="#fcv1f2dioa"/>
                        </mask>
                        <path fill="#707271" fill-rule="nonzero" d="M50.73 11.93c.665-1.255.982-2.512.982-3.715 0-2.74-1.528-5.193-3.677-6.655-2.988-2.034-7.477-2.314-10.65 1.48-4.633-.633-8.517.642-9.994 1.249-1.476-.607-5.361-1.882-9.993-1.248C14.224-.754 9.735-.474 6.748 1.56 4.597 3.022 3.07 5.474 3.07 8.215c0 1.203.317 2.46.982 3.714C1.657 15.385 0 19.484 0 23.657c0 5.028 2.146 7.615 2.956 8.728l.648-.648c2.273 5.786 6.165 8.9 10.864 11.737l.197-1.084c5.058 4.385 7.468 3.306 12.726 9.253 5.238-5.925 7.712-4.907 12.727-9.253l.196 1.084c2.092-1.263 7.993-4.428 10.865-11.737l.647.648c.496-.681 2.956-3.426 2.956-8.728 0-4.173-1.656-8.271-4.052-11.728" mask="url(#osme6vitib)"/>
                    </g>
                    <path fill="#12173F" fill-rule="nonzero" d="M49.283 12.005c4.825-7.407-6.117-15.118-11.42-7.658-5.355-.949-9.867 1.003-10.472 1.285-.605-.282-5.117-2.234-10.473-1.285-5.302-7.46-16.244.251-11.42 7.658C.002 19.555.556 26.998 3.105 30.5l1.054-1.054s1.499 7.276 9.417 12.056l.285-1.57c4.875 5.207 9.329 5.09 13.53 9.845 4.204-4.756 8.657-4.638 13.532-9.845l.285 1.57c7.918-4.78 9.417-12.056 9.417-12.056l1.054 1.054c2.557-3.512 3.108-10.94-2.395-18.495" transform="translate(-182.000000, -969.000000) translate(-36.000000, 966.000000) translate(218.000000, 3.000000)"/>
                    <path fill="#5D76A9" fill-rule="nonzero" d="M27.44 39.698s-3.802.058-4.364.41c0 0-.653 1.13 4.364 1.109 4.772-.022 4.068-.892 4.103-1.02 0 0-1.615-.499-4.103-.499M24.143 35.28s.593-1.717 1.226-1.174c.88.753 2.022 2.284 2.022 2.447v2.045l-1.386.072c-.796.024-3.364.637-3.364.637-3.535-8.755-1.575-15.38-.63-17.744-3.506.76-4.072-3.447-4.072-3.447.365-.075.901.085 1.506.374.937.449 2.038 1.209 2.917 1.891.26.202.501.398.712.576 2.384 2.004 4.317 1.598 4.317 1.598v8.569s-6.953-.539-3.248 4.156M30.66 35.282c4.424-4.49-2.796-4.228-3.253-4.157.742.041 6.339.073 3.253 4.157" transform="translate(-182.000000, -969.000000) translate(-36.000000, 966.000000) translate(218.000000, 3.000000)"/>
                    <path fill="#5D76A9" fill-rule="nonzero" d="M33.6 21.7c3.983 10.724-1.066 17.624-1.095 17.662 3.135-8.207 1.12-15.032-.251-17.567-.704.07-1.55.029-1.55.029s1.059-.654 1.744-1.277l.16-.144c.57-.506 1.658-1.395 2.978-1.91.482-.188.996-.326 1.527-.377 0 0-.38 3.534-3.513 3.583" transform="translate(-182.000000, -969.000000) translate(-36.000000, 966.000000) translate(218.000000, 3.000000)"/>
                    <path fill="#5D76A9" fill-rule="nonzero" d="M8.956 11.252c-.144-1.355 1.57-2.699 1.57-2.699-.707-.73-1.94-.097-1.94-.097 1.12-2.188 3.625-1.119 3.625-1.119-.95-1.163-2.962-1.09-2.962-1.09 2.49-2.467 5.495 1.304 5.495 1.304-2.676.606-5.788 3.701-5.788 3.701m30.95-3.43S41.53 3.76 46.508 4.74c0 0-4.571-3.008-7.752 2.43 0 0-4.562-2.141-11.366.8 0 0-6.394-2.247-11.254-.975 0 0-2.834-4.917-6.826-2.892-3.99 2.025-1.908 6.71-1.213 7.925 0 0-6.614 6.737-4.128 15.069l1.331-1.66s1.9 9.073 6.802 11.932l.294-2.23s5.117 6.174 11.135 8.796c.573.27 3.76 1.853 3.859 2.635v-4.32s-4.174.347-5.276-1.58c-.748-1.31-5.548-9.872-3.176-18.84 0 0-2.31-.344-2.744-4.24 0 0-1.722-.838-3.862-.664 0 0 3.828-1.202 7.415.187 3.586 1.388 4.546 4.923 6.977 3.36l.666-9.957.733 9.958c2.43 1.562 3.391-1.973 6.978-3.36 3.586-1.39 7.415-.188 7.415-.188s-1.531-1.08-3.992-1.572c-2.054-.411-5.072.909-5.072.909s.417-2.825 1.787-4.331c1.177-1.296 3.842-1.582 4.665-4.111" transform="translate(-182.000000, -969.000000) translate(-36.000000, 966.000000) translate(218.000000, 3.000000)"/>
                    <path fill="#FB2" fill-rule="nonzero" d="M22.362 20.381c-.385-.12-1.02.277-1.373.966-1.188-.343-1.595-1.627-1.545-2.856.938.448 2.04 1.208 2.918 1.89M34.041 21.347c-.373-.725-1.057-1.129-1.432-.945.57-.505 1.657-1.394 2.976-1.909.054 1.23-.363 2.513-1.544 2.854" transform="translate(-182.000000, -969.000000) translate(-36.000000, 966.000000) translate(218.000000, 3.000000)"/>
                </g>
            </g>
        </g>
    </g>
</svg>
