<svg xmlns="http://www.w3.org/2000/svg" xmlns:xlink="http://www.w3.org/1999/xlink" width="91" height="57" viewBox="0 0 91 57">
    <defs>
        <path id="w2p43216ia" d="M24.21.007c13.363 0 24.196 10.991 24.196 24.55 0 13.559-10.833 24.55-24.197 24.55-13.362 0-24.196-10.991-24.196-24.55C.013 10.999 10.847.008 24.21.008z"/>
        <path id="4tkl8gi7ec" d="M24.21.007c13.363 0 24.196 10.991 24.196 24.55 0 13.559-10.833 24.55-24.197 24.55-13.362 0-24.196-10.991-24.196-24.55C.013 10.999 10.847.008 24.21.008z"/>
    </defs>
    <g fill="none" fill-rule="evenodd">
        <g>
            <g>
                <g>
                    <g>
                        <path fill="#FFF" fill-rule="nonzero" d="M19.494 42.962s7.628 12.465 23.248 12.465c15.619 0 22.884-12.102 22.884-12.102h21.19l-.848-5.204s-.606-2.057-1.574-2.299h1.452s.485-1.815-2.42-8.108H89.6s.243-11.013-13.076-16.217c0 0-6.902-2.178-10.414 1.573 0 0-7.022-13.07-23.368-13.07C26.396 0 19.01 13.433 19.01 13.433H0l3.027 5.446H.97l2.421 4.478h4.117l.727 1.694H6.296l4.723 8.714h2.663l1.09 2.662h-2.3l3.51 6.535h3.512" transform="translate(-263.000000, -966.000000) translate(-36.000000, 966.000000) translate(299.000000, 0.000000) translate(45.234546, 28.810909) scale(-1, 1) rotate(-180.000000) translate(-45.234546, -28.810909) translate(0.234546, 0.810909)"/>
                        <path fill="#FDB927" fill-rule="nonzero" d="M42.97 2.915c13.363 0 24.196 10.99 24.196 24.55 0 13.558-10.833 24.55-24.197 24.55-13.362 0-24.196-10.992-24.196-24.55 0-13.56 10.834-24.55 24.196-24.55" transform="translate(-263.000000, -966.000000) translate(-36.000000, 966.000000) translate(299.000000, 0.000000) translate(45.234546, 28.810909) scale(-1, 1) rotate(-180.000000) translate(-45.234546, -28.810909) translate(0.234546, 0.810909)"/>
                        <path fill="#552583" fill-rule="nonzero" d="M45.64 27.587l-1.057.009c-.074 0-.134-.06-.134-.134 0-.074.06-.134.134-.134l1.071.01c.362 0 .695-.046.603-.206l-2.774-5.295c-.344-.632-1.075-.47-1.19.034l-1.374 7.095 4.83 3.747c.48.412 1.404 1.084 1.878 1.076l1.052.005c.641.005.869-.295.719-.682l-.186-.359c-.12-.2-.501-.224-.823-.224l-.608-.003c-.074 0-.134-.06-.134-.135 0-.074.06-.134.134-.134h.6c.259 0 .585-.006.465-.201l-2.242-4.271c-.103-.167-.569-.198-.965-.198zm8.359-2.635c-2.261-2.74-3.541-3.678-5.838-3.678-.78 0-1.189.175-.97.553l2.724 5.473h1.039c1.16 0 .998-.975.684-2.298-.057-.184.084-.195.222-.034l2.589 4.547c.126.287-.2.344-.36.126-1.298-1.76-2.662-1.63-3.238-1.63h-.468l2.906 5.549h1.174c1.477-.092 2.164-1.346 1.738-4.367h.613l2.138 4.213c.173.356-.193.681-.595.681l-14.511-.005c-.838 0-.876-.643-.073-.643.654 0 .62-.937.034-1.389l-6.16-4.888 1.243-5.772c.092-.436.371-.644.854-.644h11.999c.494 0 .698.202.858.409l2.175 3.75c.298.54-.398.506-.777.047" transform="translate(-263.000000, -966.000000) translate(-36.000000, 966.000000) translate(299.000000, 0.000000) translate(45.234546, 28.810909) scale(-1, 1) rotate(-180.000000) translate(-45.234546, -28.810909) translate(0.234546, 0.810909)"/>
                        <path fill="#552583" fill-rule="nonzero" d="M27.452 26.527h-3.819l4.83 6.365-1.01-6.365zm-.885-3.954c-.114-.654-.772-1.088-1.598-1.305l-.854-.213.7 1.26c.184.345-.219.548-.66.035-2.967-3.452-3.913-5.106-8.488-5.118l-1.23-.003c-.37 0-.78.146-.528.502l1.62 3.013h6.148c.838 0 .623.63.13.648-.325.01-.681.197-.933.595-.07.11-.223.547.018.885L23.245 26h3.914l-.592-3.426zm9.11-1.18c-.324.01-.534.232-.606.447-.103.31-.094.858.032 1.099l5.597 9.923c.091.183.318.567.597.566.493 0 .708.649-.13.649h-4.483c-.838 0-.847-.638-.044-.638.328 0 .457-.32.366-.516l-1.24-2.244c-.155-.247-.498-.265-.86-.265l-1.067.003c-.075 0-.134-.06-.134-.135 0-.074.06-.134.134-.134h1.058c.287 0 .516-.088.35-.42l-4.132-7.524c-.299-.413-.89-.505-.856.287l1.469 11.02c.057.344-.034.576-.4.576l-2.217-.002c-.264 0-.428-.129-.555-.3l-.793-.996c-.103-.103-.326-.103-.573-.103l-1.86.003c-.074 0-.134-.06-.134-.134 0-.075.06-.135.134-.135h1.519c.27 0 .585-.063.47-.19l-2.131-2.679c-.064-.074-.271-.096-.398-.096l-.602.003c-.074 0-.135-.06-.135-.134 0-.074.06-.135.135-.135h.502c.155 0 .156-.077.093-.146l-2.002-2.516c-.104-.098-.305-.118-.5-.118l-1.768.002c-.074 0-.134-.06-.134-.134 0-.074.06-.134.134-.134l1.518-.001c.23 0 .409-.042.288-.197l-2.849-3.57c-.535-.682-3.113-1.027-3.615-1.027l9.632 18.013c.092.207.449.523.82.523h2.045c.964 0 .936.642.098.642H18.169c-.838 0-.872-.642.092-.642h1.904c.54 0 .714-.327.575-.593l-.272-.496c-.092-.16-.22-.226-.742-.226l-3.364.003c-.074 0-.134-.06-.134-.134 0-.074.06-.134.134-.134h3.356c.183 0 .456-.048.283-.375l-.47-.875c-.081-.132-.287-.194-.522-.194l-1.527.002c-.074 0-.135-.06-.135-.134 0-.075.06-.134.135-.134H19c.218 0 .223-.144.097-.345l-1.083-2.012c-.092-.172-.268-.195-.613-.195l-.608.003c-.075 0-.135-.06-.135-.134 0-.075.06-.135.135-.135h.6c.229 0 .29-.128.186-.346l-.89-1.652c-.132-.236-.321-.33-.913-.33l-3.364.003c-.074 0-.134-.06-.134-.134 0-.074.06-.135.134-.135h3.355c.38-.006.52-.173.37-.444L14.4 27.476c-.103-.144-.387-.165-.868-.165l-3.365.003c-.074 0-.134-.06-.134-.135 0-.074.06-.134.134-.134h3.356c.402 0 .647-.017.526-.23l-1-1.88c-.184-.288-.7-.287-.901-.287l-1.068.003c-.074 0-.134-.06-.134-.134 0-.075.06-.135.134-.135h1.059c.373 0 .571-.065.473-.266l-1.336-2.51c-.12-.224-.644-.234-1.046-.234l-5.201.002c-.074 0-.134-.06-.134-.134 0-.074.06-.134.134-.134h5.193c.344 0 .78-.043.619-.319l-.853-1.603c-.08-.132-.372-.144-.791-.144l-1.068.003c-.074 0-.134-.06-.134-.135 0-.073.06-.133.134-.133h1.06c.258 0 .572-.03.462-.226l-.533-1.024c-.172-.253-.344-.48-.757-.48H5.75c-.964 0-.93-.643-.093-.643l15.326-.008c.448 0 .462.06.674.39l2.273 3.96h11.617c.838 0 .623.63.13.648M65.343 28.656c-.422-.346-1.085-.744-1.214-.617-.179.177-.736.562-1.036.7l2.502 4.572c.103.16.222.249.498.249.974 0 1.293-1.057.836-2.372-.32-.922-.84-1.92-1.586-2.532zm20.204-4.1c-.063.314-.177.124-.384-.271-.064-.12-.265-.123-.465-.123l-.614-.003c-.074 0-.135-.06-.135-.134 0-.074.06-.135.135-.135l.604.001c.23 0 .233-.153.125-.383-.422-.902-.858-1.505-1.435-2.226-.092-.116-.325-.213-.51-.213l-.616-.003c-.074 0-.135-.06-.135-.135 0-.074.06-.134.135-.134h.604c.304 0-.003-.187-.055-.255-1.072-1.429-1.81-2.067-2.598-2.707-.092-.074-.537-.049-.847-.047l-.608-.003c-.075 0-.135-.06-.135-.134 0-.074.06-.134.135-.134h.6c.458 0 .114-.264.045-.322-1.669-1.39-4.158-1.839-5.295-1.696-3.697.463-4.458 3.266-4.73 4.387-.058.234-.235.713-.293 1.01-.115.587 1.553.753 2.013.445.699-.467 2.326-.946 3.607-.95 1.184-.005 3.61.855 4.311 2.89.718 2.08-1.086 4.39-1.884 5.187-1.018 1.017-1.978 2.636-1.573 3.824.305.895.815 1.302 1.91 1.302 1.412 0 2.441-.908 2.441-2.197 0-.115-.07-.252-.163-.252l-.5-.002c-.073 0-.133-.06-.133-.135 0-.074.06-.134.134-.134h.469c.132 0 .215-.1.18-.26-.092-.432-.122-.735-.216-1.168-.054-.25.313-.424.44-.241l2.221 3.964c.161.299-.196.379-.46.287-.607-.211-1.597-.357-1.947-.105-.83.595-1.587.978-2.748.978-1.973 0-3.357-.485-4.244-2.11-.069-.127-.263-.125-.43-.125l-.379.001c-.074 0-.134-.06-.134-.135 0-.073.06-.134.134-.134l.323.003c.138 0 .231-.038.162-.2-.062-.145-.116-.299-.167-.459-.225-.702-.153-1.69.2-2.569.023-.057-.052-.085-.188-.084l-.605-.003c-.074 0-.134-.06-.134-.134 0-.074.06-.134.134-.134h.604c.274-.002.339-.029.453-.19.311-.438.631-.763 1.033-1.273.126-.16-.413-.206-.701-.203h-2.394c-.074 0-.134-.06-.134-.134 0-.074.06-.134.134-.134l2.425.003c.39 0 1.058.006 1.133-.08.586-.676 1.296-1.718 1.415-2.595.035-.253-.061-.36-.371-.36h-.324c-.075 0-.135-.059-.135-.133 0-.075.06-.135.135-.135h.285c.247 0 .381-.04.325-.223-.314-1.004-.786-1.732-2.705-1.721-2.012.01-2.42 1.981-1.832 4.037.117.41-.005.586-.19.264l-1.399-2.2c-.035-.05-.17-.176-.382-.176l-.2.001c-.074 0-.134-.06-.134-.134 0-.075.062-.134.136-.134.178 0 .247-.095.18-.192l-.516-.802c-.845 1.934-2.263 4.317-3.019 5.185l.013.041c1.866.113 4.618 1.86 5.068 3.42.782 2.71-1.85 3.71-3.284 3.71l-6.306-.002c-.838 0-.899-.634-.095-.634.434 0 .814-.38.622-.765l-1.398-2.516c-.114-.206-.548-.194-1.11-.194h-.612c-.074 0-.134-.06-.134-.134 0-.074.06-.134.134-.134h.602c.401 0 .844-.024.695-.311l-1.651-2.98c-.08-.138-.294-.151-.857-.151l-.609-.002c-.074 0-.133-.06-.133-.135 0-.074.06-.134.133-.134h.596c.442 0 .608-.058.482-.288L55.62 21.72c-.264-.287-.578-.34-1.117-.34-.804 0-.795-.637.043-.637h5.401c.838 0 .624.648.13.648-.29 0-.598.534-.405.854l2.757 5.22h.28c1.226 0 1.522-2.011 1.754-4.207.016-.156-.283-.165-.894-.165l-1.533-.002c-.074 0-.134-.06-.134-.135 0-.074.06-.134.134-.134h1.517c.403 0 .964-.003.979-.133.105-.963.184-1.81.368-2.583.058-.24-.373-.204-.832-.204l-1.951-.002c-.075 0-.135-.06-.135-.134 0-.074.06-.135.135-.135l1.95-.002c.613 0 .929 0 .964-.125.84-3.079 4.442-5.503 7.945-5.369 3.005.115 5.543 1.749 6.843 2.79 1.73 1.387 4.27 4.29 5.303 6.403.19.387.494.883.424 1.228" transform="translate(-263.000000, -966.000000) translate(-36.000000, 966.000000) translate(299.000000, 0.000000) translate(45.234546, 28.810909) scale(-1, 1) rotate(-180.000000) translate(-45.234546, -28.810909) translate(0.234546, 0.810909)"/>
                        <path fill="#552583" fill-rule="nonzero" d="M34.933 38.15c-.506-.654-1.178-.82-1.932-.82h-.212l1.329 2.628c.063.12.203.215.376.215.166 0 .146.332-.072.332h-2.094c-.178 0-.241-.332-.075-.332.18 0 .212-.198.126-.364l-1.19-2.344c-.08-.126-.212-.16-.357-.198-.177-.046-.299-.361-.098-.361h3.343c.258 0 .319.095.388.187l.671 1.04c.098.127-.106.144-.203.018M45.003 40.412c-.101-.055-.341-.085-.444.001-.267.222-.791.392-1.066.392-.788 0-1.36-.155-1.702-.899-.293-.633.007-1.164.703-1.486.3-.139.7-.32.547-.683-.111-.265-.42-.291-.698-.289-.373.004-.934.283-1.022.81-.029.172-.23.132-.287.04l-.475-.947c-.075-.126.12-.267.199-.184.16.172.51.213.683.099.237-.158.845-.434 1.21-.432.798.006 1.325.211 1.761.896.4.625.155 1.245-.574 1.587-.385.182-.715.502-.543.856.112.23.456.18.626.15.326-.054.743-.36.791-.63.02-.114.167-.137.23-.034l.251.584c.057.115-.127.203-.19.169M68.2 39.47l.291.537c.127.235-.081.502-.415.502h-3.903c-.281 0-.198-.293-.083-.293.25 0 .324-.305.172-.563l-1.174-2.159c-.175-.206-.287-.295-.537-.295-.202 0-.273-.293.009-.293h3.956c.16 0 .23.057.288.138l.538.714c.131.171-.153.171-.239.086-.683-.683-1.413-.663-1.944-.663h-.461l.541 1.208h.116c.348 0 .75.004.854-.26.028-.063.2-.115.27 0l.46.923c.075.137-.133.162-.189.063-.182-.326-.985-.238-1.194-.238h-.116l.675 1.33h.752c.467 0 .869-.33 1-.69.032-.087.282-.156.334-.047M48.9 38.786l1.302 1.063.006-1.063H48.9zm9.313 1.723h-1.389c-.281 0-.199-.293-.084-.293.298 0 .567-.348.404-.669l-.575-1.051-1.268 1.854c-.086.115-.286.17-.457.17h-1.367c-.281 0-.216-.29-.101-.29.29 0 .215-.217.143-.372L52.43 37.76c-.07-.166-.367-.19-.459.022l-.843 2.745c-.035.109-.527.103-.653 0l-2.113-1.74-1.093-.002c-.218 0-.304-.09-.304-.205 0-.115.082-.22.312-.22l.572.002-.572-.471c-.319-.237-.644-.562-.86-.562h-.134c-.206 0-.322-.034-.322-.2 0-.167.087-.224.282-.224h1.704c.321 0 .259.418.098.418-.176 0-.467.225-.197.54l.52.498h1.025c.608 0 1.033-.705.671-.923l-.282-.155c-.131-.069-.19-.378 0-.378h3.33c.247 0 .197.326.082.326-.34 0-.18.49-.114.621l.875 1.656 1.228-2.38c.08-.149.153-.223.297-.223h.47c.15 0 .2.086.269.2l1.4 2.527c.224.451.397.58.68.58.115 0 .195.296-.087.296M38.823 38.416c-.371-.74-.993-1.18-1.389-.982-.395.199-.415.96-.044 1.7.371.741.993 1.18 1.389.982.395-.198.416-.96.044-1.7zm-.33 2.252c-1.172 0-2.378-.577-2.619-1.805-.21-1.069.53-2.178 1.837-2.178 1.245 0 2.394.816 2.626 1.994.232 1.185-.65 1.989-1.845 1.989M62.172 38.876h-1.504c-.282 0-.199-.294-.084-.294.119 0 .23-.062.23-.252 0-.607-.26-.841-.782-.841-.572 0-.78.694-.393 1.545.246.545.897 1.054 1.67 1.054.474 0 .872-.102.933-.546.014-.11.178-.11.235-.007l.357.64c.04.068-.022.15-.131.156-.092.007-.297-.112-.433-.011-.302.223-.957.44-1.451.44-.807 0-1.935-.182-2.696-1.504-.689-1.195.314-2.46 1.243-2.462.518 0 1.117.382 1.46.526l.384-.26c.058-.068.178-.154.293-.154h.144c.132 0 .184.18.235.295l.59 1.428c.075.143.033.247-.3.247M82.78 40.412c-.1-.055-.34-.085-.444.001-.266.222-.79.392-1.065.392-.788 0-1.36-.155-1.703-.899-.292-.633.008-1.164.704-1.486.3-.139.7-.32.547-.683-.112-.265-.42-.291-.699-.289-.372.004-.934.283-1.022.81-.028.172-.228.132-.285.04l-.477-.947c-.075-.126.122-.267.2-.184.16.172.511.213.682.099.237-.158.847-.434 1.21-.432.798.006 1.325.211 1.763.896.4.625.153 1.245-.575 1.587-.386.182-.715.502-.543.856.113.23.455.18.627.15.324-.054.741-.36.79-.63.02-.114.167-.137.23-.034l.251.584c.057.115-.128.203-.19.169M72.32 38.15c-.506-.654-1.178-.82-1.931-.82h-.213l1.33 2.628c.062.12.202.215.375.215.166 0 .146.332-.072.332h-2.093c-.179 0-.242-.332-.075-.332.178 0 .21-.198.125-.364l-1.19-2.344c-.08-.126-.212-.16-.357-.198-.177-.046-.298-.361-.097-.361h3.342c.259 0 .32.095.388.187l.672 1.04c.097.127-.107.144-.204.018M77.362 40.208c.467 0 .87-.33 1.001-.692.031-.086.28-.155.333-.046l.29.537c.127.235-.08.502-.414.502h-3.905c-.28 0-.197-.293-.083-.293.251 0 .325-.305.174-.563l-1.174-2.159c-.175-.206-.288-.295-.539-.295-.2 0-.272-.293.01-.293h3.955c.161 0 .232.057.29.138l.536.714c.133.171-.151.171-.237.086-.683-.683-1.414-.663-1.945-.663h-.46l.54 1.208h.116c.348 0 .748.004.853-.26.03-.063.201-.115.27 0l.462.923c.074.137-.134.162-.19.063-.182-.326-.984-.238-1.194-.238h-.115l.673 1.33h.753" transform="translate(-263.000000, -966.000000) translate(-36.000000, 966.000000) translate(299.000000, 0.000000) translate(45.234546, 28.810909) scale(-1, 1) rotate(-180.000000) translate(-45.234546, -28.810909) translate(0.234546, 0.810909)"/>
                        <g transform="translate(-263.000000, -966.000000) translate(-36.000000, 966.000000) translate(299.000000, 0.000000) translate(45.234546, 28.810909) scale(-1, 1) rotate(-180.000000) translate(-45.234546, -28.810909) translate(0.234546, 0.810909) translate(18.760000, 2.907429)">
                            <mask id="dhcsnfl6ib" fill="#fff">
                                <use xlink:href="#w2p43216ia"/>
                            </mask>
                            <g mask="url(#dhcsnfl6ib)">
                                <g fill="#552583" fill-rule="nonzero">
                                    <path d="M40.755 13.47l-1.056.009c-.074 0-.134-.06-.134-.135 0-.073.06-.134.134-.134l1.071.011c.361 0 .694-.046.603-.206L38.598 7.72c-.344-.632-1.074-.47-1.19.034l-1.374 7.095 4.83 3.746c.481.413 1.405 1.085 1.878 1.076l1.053.005c.641.006.869-.295.718-.681l-.186-.36c-.12-.2-.5-.224-.822-.224l-.608-.003c-.074 0-.134-.06-.134-.134 0-.075.06-.135.134-.135h.6c.258 0 .585-.006.464-.2l-2.241-4.272c-.104-.166-.569-.197-.965-.197zm8.36-2.635c-2.262-2.74-3.542-3.678-5.838-3.678-.781 0-1.189.175-.97.553l2.724 5.473h1.038c1.16 0 .999-.976.685-2.298-.058-.184.083-.196.221-.034l2.59 4.547c.126.286-.2.344-.361.126-1.297-1.76-2.661-1.63-3.237-1.63h-.469l2.907 5.548h1.173c1.477-.092 2.165-1.345 1.738-4.366h.614l2.138 4.213c.172.356-.193.68-.596.68l-14.51-.004c-.839 0-.877-.644-.073-.644.653 0 .62-.937.033-1.388l-6.16-4.888 1.244-5.772c.092-.436.37-.644.853-.644h12c.493 0 .698.202.858.408l2.174 3.752c.299.538-.397.505-.777.046" transform="translate(-14.000000, 11.136364) translate(0.124444, 0.073561)"/>
                                    <path d="M22.568 12.41h-3.819l4.83 6.364-1.011-6.365zm-.885-3.955c-.115-.654-.772-1.087-1.599-1.304l-.853-.214.7 1.261c.184.345-.22.548-.66.035-2.968-3.453-3.913-5.106-8.488-5.119l-1.23-.002c-.37 0-.78.146-.528.502l1.62 3.013h6.148c.838 0 .623.63.13.648-.326.01-.682.197-.933.594-.07.111-.223.548.017.886l2.353 3.126h3.914l-.591-3.426zm9.11-1.18c-.325.01-.534.233-.607.448-.102.31-.094.857.032 1.098l5.598 9.924c.091.183.318.567.596.565.493 0 .708.65-.13.65H31.8c-.838 0-.848-.638-.044-.638.328 0 .457-.32.365-.516l-1.24-2.244c-.154-.247-.497-.266-.86-.266l-1.067.003c-.074 0-.134-.06-.134-.134 0-.074.06-.134.134-.134l1.059-.001c.287 0 .516-.087.35-.42L26.23 8.087c-.298-.413-.89-.505-.856.287l1.47 11.019c.057.344-.034.577-.401.577l-2.216-.002c-.265 0-.428-.13-.555-.301l-.793-.996c-.104-.102-.327-.102-.574-.102l-1.86.002c-.073 0-.133-.06-.133-.134 0-.074.06-.134.134-.134h1.518c.27 0 .585-.063.47-.19l-2.13-2.68c-.064-.074-.272-.095-.399-.095l-.602.003c-.074 0-.134-.06-.134-.134 0-.075.06-.135.134-.135h.502c.155 0 .157-.077.094-.146l-2.003-2.517c-.103-.097-.304-.117-.5-.117l-1.767.001c-.075 0-.134-.06-.134-.133 0-.074.06-.134.134-.134l1.518-.001c.23 0 .408-.042.287-.197l-2.848-3.57c-.535-.682-3.113-1.028-3.616-1.028l9.632 18.014c.092.207.45.522.82.522h2.045c.965 0 .937.643.098.643h-10.28c-.839 0-.873-.643.092-.643h1.903c.54 0 .715-.326.575-.592l-.272-.496c-.092-.161-.219-.226-.741-.226l-3.364.003c-.074 0-.134-.06-.134-.134 0-.074.06-.134.134-.134h3.355c.184 0 .456-.049.284-.376l-.471-.874c-.08-.132-.287-.195-.522-.195l-1.526.003c-.075 0-.135-.06-.135-.134 0-.075.06-.134.135-.134l1.518-.001c.218 0 .223-.144.096-.344L13.13 20.12c-.092-.172-.268-.195-.613-.195l-.608.002c-.074 0-.134-.06-.134-.134 0-.074.06-.134.134-.134h.6c.23 0 .29-.128.187-.346l-.89-1.653c-.132-.235-.322-.33-.913-.33l-3.364.003c-.074 0-.134-.06-.134-.134 0-.074.06-.134.134-.134h3.355c.38-.006.519-.174.37-.444l-1.737-3.262c-.103-.144-.387-.165-.869-.165l-3.364.002c-.074 0-.134-.06-.134-.134 0-.074.06-.134.134-.134l3.355-.001c.402 0 .647-.016.527-.229l-1-1.88c-.185-.288-.7-.287-.902-.287l-1.067.002c-.074 0-.134-.059-.134-.133 0-.075.06-.135.134-.135h1.059c.373 0 .57-.065.473-.266l-1.336-2.51c-.121-.225-.644-.234-1.046-.234l-5.202.002c-.073 0-.134-.06-.134-.135 0-.073.06-.133.134-.133l5.193-.001c.345 0 .78-.043.62-.318l-.854-1.603c-.08-.132-.371-.144-.79-.144l-1.068.003c-.074 0-.134-.06-.134-.135 0-.074.06-.134.134-.134h1.059c.259 0 .572-.03.463-.225l-.533-1.024c-.172-.254-.344-.48-.758-.48H.866c-.964 0-.93-.643-.092-.643L16.1 2.277c.447 0 .462.06.674.389l2.272 3.961h11.617c.838 0 .624.63.13.648M60.458 14.539c-.421-.346-1.085-.744-1.213-.617-.18.177-.737.562-1.036.7l2.502 4.572c.103.16.222.248.497.248.974 0 1.294-1.056.836-2.371-.32-.922-.84-1.92-1.586-2.532zm20.205-4.1c-.063.314-.178.124-.385-.272-.063-.12-.264-.123-.465-.123l-.614-.002c-.074 0-.135-.06-.135-.134 0-.075.061-.135.135-.135h.604c.23 0 .233-.152.126-.383-.423-.901-.858-1.505-1.436-2.226-.091-.115-.324-.212-.509-.212l-.616-.003c-.075 0-.135-.06-.135-.135 0-.074.06-.134.135-.134h.604c.304 0-.004-.188-.055-.256-1.072-1.428-1.81-2.066-2.598-2.706-.093-.075-.537-.049-.848-.047l-.608-.003c-.074 0-.134-.06-.134-.135 0-.073.06-.133.134-.133l.6-.001c.459 0 .115-.263.046-.321-1.67-1.39-4.159-1.839-5.295-1.696-3.697.462-4.458 3.265-4.731 4.386-.057.234-.234.714-.293 1.011-.114.586 1.553.753 2.014.445.698-.468 2.325-.946 3.606-.95 1.185-.005 3.61.855 4.312 2.89.717 2.08-1.086 4.39-1.885 5.187-1.018 1.017-1.977 2.636-1.573 3.824.305.895.816 1.302 1.91 1.302 1.413 0 2.442-.908 2.442-2.198 0-.114-.071-.251-.163-.251l-.5-.003c-.074 0-.134-.06-.134-.135 0-.073.06-.133.134-.133h.47c.131 0 .214-.1.18-.261-.092-.432-.122-.735-.216-1.167-.055-.251.312-.425.44-.241l2.22 3.964c.162.298-.196.378-.46.287-.607-.211-1.596-.357-1.946-.106-.831.596-1.587.979-2.748.979-1.974 0-3.357-.486-4.244-2.111-.07-.126-.264-.124-.43-.124h-.379c-.074 0-.134-.06-.134-.134 0-.073.06-.134.134-.134l.323.003c.138 0 .23-.038.161-.2-.062-.145-.116-.3-.167-.46-.224-.702-.152-1.689.2-2.568.023-.057-.051-.085-.187-.085l-.606-.002c-.073 0-.134-.06-.134-.134 0-.074.06-.135.134-.135h.604c.275-.001.34-.028.453-.189.312-.438.632-.763 1.033-1.273.126-.16-.413-.206-.7-.203H65.96c-.075 0-.135-.06-.135-.134 0-.075.06-.134.135-.134l2.424.003c.39 0 1.058.006 1.133-.08.587-.676 1.296-1.718 1.416-2.596.034-.252-.062-.359-.372-.359h-.324c-.074 0-.134-.059-.134-.133 0-.075.06-.135.134-.135h.286c.246 0 .38-.04.324-.224-.314-1.003-.786-1.731-2.704-1.72-2.012.01-2.421 1.981-1.832 4.037.117.41-.006.586-.19.264l-1.4-2.2c-.034-.05-.17-.176-.382-.176l-.199.001c-.074 0-.135-.06-.135-.135 0-.074.063-.133.137-.133.178 0 .247-.095.179-.193l-.516-.8c-.844 1.933-2.263 4.316-3.018 5.183l.013.042c1.865.112 4.617 1.859 5.068 3.42.782 2.709-1.85 3.709-3.284 3.709l-6.306-.001c-.839 0-.9-.634-.096-.634.435 0 .814-.38.622-.765l-1.397-2.516c-.115-.207-.548-.194-1.11-.194h-.612c-.074 0-.135-.06-.135-.134 0-.074.06-.134.135-.134h.601c.402 0 .845-.025.696-.312L53.33 12.3c-.08-.137-.295-.15-.857-.15l-.61-.002c-.073 0-.133-.06-.133-.135 0-.074.06-.134.134-.134h.595c.443 0 .608-.059.482-.289l-2.206-3.986c-.264-.288-.577-.34-1.117-.34-.803 0-.794-.638.044-.638h5.4c.839 0 .625.649.131.649-.29-.001-.599.533-.405.853l2.757 5.22h.28c1.226 0 1.522-2.01 1.753-4.206.017-.157-.283-.166-.893-.166l-1.533-.001c-.074 0-.135-.06-.135-.135 0-.074.06-.134.135-.134h1.517c.402 0 .964-.003.978-.134.105-.962.185-1.81.369-2.582.057-.241-.373-.204-.832-.204l-1.952-.003c-.074 0-.134-.06-.134-.133 0-.075.06-.135.134-.135l1.95-.003c.613 0 .93.001.964-.125.84-3.078 4.442-5.502 7.945-5.368 3.005.114 5.544 1.748 6.844 2.79 1.729 1.387 4.269 4.29 5.302 6.402.19.387.494.884.425 1.228" transform="translate(-14.000000, 11.136364) translate(0.124444, 0.073561)"/>
                                    <path d="M30.048 24.034c-.506-.655-1.178-.822-1.931-.822h-.213l1.33 2.629c.062.12.203.214.375.214.167 0 .147.333-.071.333h-2.094c-.178 0-.242-.333-.075-.333.179 0 .211-.197.125-.364l-1.189-2.343c-.08-.127-.212-.161-.358-.199-.176-.045-.298-.36-.097-.36h3.343c.258 0 .318.095.387.187l.672 1.04c.097.127-.106.144-.204.018M40.118 26.295c-.1-.056-.34-.085-.444.001-.267.222-.79.392-1.065.392-.789 0-1.36-.155-1.702-.9-.293-.633.007-1.163.702-1.485.301-.139.701-.32.548-.684-.112-.264-.42-.29-.699-.288-.373.003-.934.283-1.021.81-.03.172-.23.132-.287.04l-.476-.947c-.074-.127.121-.267.2-.184.16.172.51.213.682.098.237-.157.846-.434 1.21-.431.799.006 1.325.21 1.762.896.4.624.154 1.244-.575 1.587-.385.181-.714.502-.542.855.112.23.455.18.626.152.326-.055.742-.361.79-.631.021-.115.167-.138.231-.034l.25.584c.058.115-.126.203-.19.169M63.316 25.353l.291.536c.127.236-.082.503-.415.503h-3.903c-.282 0-.199-.294-.084-.294.25 0 .325-.304.173-.562l-1.174-2.159c-.175-.206-.287-.295-.538-.295-.201 0-.272-.294.01-.294h3.955c.16 0 .231.058.288.138l.538.714c.132.172-.152.172-.238.086-.683-.683-1.414-.663-1.944-.663h-.461l.54 1.209h.117c.347 0 .749.004.854-.26.028-.063.2-.115.269 0l.461.923c.075.137-.133.161-.19.063-.182-.326-.984-.239-1.194-.239h-.115l.674 1.331h.752c.467 0 .87-.33 1.001-.69.032-.087.281-.156.333-.047M44.016 24.668l1.302 1.064.005-1.064h-1.307zm9.313 1.724h-1.39c-.28 0-.198-.294-.083-.294.297 0 .567-.348.404-.668l-.575-1.052-1.268 1.855c-.086.115-.286.17-.458.17h-1.367c-.28 0-.216-.29-.1-.29.29 0 .214-.218.142-.373l-1.088-2.096c-.069-.167-.366-.19-.458.022l-.843 2.744c-.035.11-.528.104-.654 0l-2.112-1.74-1.094-.002c-.218 0-.304-.09-.304-.204 0-.115.083-.22.313-.22l.571.001-.571-.47c-.319-.238-.645-.563-.861-.563H41.4c-.207 0-.323-.033-.323-.2 0-.166.087-.224.283-.224h1.703c.322 0 .26.419.098.419-.176 0-.467.224-.197.54l.52.497h1.025c.608 0 1.033-.704.672-.923l-.282-.155c-.132-.068-.19-.378 0-.378h3.33c.247 0 .197.327.082.327-.341 0-.18.49-.115.62l.875 1.657 1.229-2.38c.08-.149.153-.224.296-.224h.47c.15 0 .2.086.27.201l1.399 2.526c.225.452.397.582.68.582.116 0 .196.295-.086.295M33.939 24.299c-.372-.741-.993-1.18-1.389-.982-.396.198-.415.96-.044 1.7.37.74.992 1.18 1.388.982.396-.199.417-.96.045-1.7zm-.331 2.251c-1.171 0-2.378-.576-2.618-1.804-.21-1.069.53-2.178 1.837-2.178 1.245 0 2.394.815 2.626 1.994.231 1.185-.651 1.988-1.845 1.988M57.288 24.759h-1.505c-.282 0-.198-.294-.083-.294.118 0 .229-.063.229-.252 0-.608-.26-.842-.781-.842-.573 0-.78.694-.394 1.546.247.544.898 1.053 1.671 1.053.474 0 .872-.102.933-.546.014-.11.177-.109.235-.006l.357.639c.04.07-.023.15-.131.157-.092.006-.298-.112-.433-.012-.302.224-.957.44-1.452.44-.807 0-1.935-.182-2.696-1.504-.688-1.195.314-2.46 1.244-2.461.517-.001 1.116.381 1.46.526l.384-.26c.057-.069.178-.155.293-.155h.143c.132 0 .184.18.235.296l.59 1.427c.076.143.033.248-.3.248" transform="translate(-14.000000, 11.136364) translate(0.124444, 0.073561)"/>
                                </g>
                            </g>
                        </g>
                        <path fill="#061922" fill-rule="nonzero" d="M47.173 49.516c-1.842.13-3.348.183-4.663.046.381.96 1.143 1.856 1.731 2.25 1.255-.052 2.551-.234 3.578-.437 3.285-.648 8.393-2.65 10.593-5.6-2.933 1.956-7.806 3.496-11.24 3.74zm-5.517-.069c-1.107-.069-3.115-.505-3.831-.712-.185.482-.692 1.975-.854 2.457 2.04.578 4.408.78 6.232.62-.508-.39-1.362-1.929-1.547-2.365zm-9.278-2.732c-.227.383-1.307 1.368-1.892 1.561 1.361 1.01 4.524 2.457 5.723 2.709.208-.345.762-1.814.947-2.433-1.062-.23-3.878-1.24-4.778-1.837zm29.612-3.35c-.3.344-.716 1.078-3.693 3.672C53.92 50.85 48.12 52.59 42.672 52.59c-4.016 0-7.531-.9-11.425-3.043-4.961-2.73-7.016-5.867-7.523-6.505-.375-.47-.428-.744-.185-.884.173-.1.507.265.82.678 1.474 1.948 3.415 3.878 5.457 5.014.635-.091 1.524-.975 1.87-1.445-1.308-.712-3.474-2.36-4.293-2.996-.708-.549-.953-.855-.762-1.079.159-.185.7.18 1.154.551.785.643 3.116 2.295 4.27 2.915.785-.918.53-2.616.254-2.984-.15-.197-.17-.408 0-.505.162-.091.337.142.565.47.535.773.321 2.644-.138 3.318 1.408.872 3.427 1.457 4.65 1.733.104-.195 1.587-4.527 1.87-5.314.155-.43.308-.946.623-.85.21.065.072.537-.104 1.01-.216.587-1.338 4.224-1.684 5.303.404.218 2.84.713 3.45.688-.3-1.583.822-2.233 2.089-3.064.674-.442 4.956-2.9 5.85-3.455.511-.315.908-.516 1.016-.367.125.17-.222.528-.693.804-.374.22-4.359 2.53-6.024 3.58-1.191.753-1.832 1.559-1.546 2.618.393.114 1.593.124 2.84.114 8.493-.07 15.302-4.935 16.063-5.715.386-.396.923-.735 1.13-.574.132.102-.095.549-.276.757M63.827 14.302c.315.578.57.906.3 1.055-.245.137-.485-.398-.784-.918-.993-1.72-2.076-3.142-4.523-5.37-2.712-2.469-5.829-3.903-6.913-4.27-.923 2.593-4.443 13.64-4.536 13.956-.138.47-.256.607-.415.55-.178-.063-.07-.32.023-.734.092-.413 4.282-13.485 4.42-13.944-.831-.413-4.208-1.357-6.566-1.435-2.1-.07-4.57 0-5.816.287-1.462 1.179-4.785 5.87-6.046 8.367-1.486 2.941-2.472 5.649-2.726 6.796-.121.55-.277.946-.553.894-.298-.058-.127-.492.046-1.08.447-1.513 1.177-3.656 2.725-6.713 1.64-3.237 4.569-7.034 5.422-8.069-2.676.562-5.928 1.814-9.018 4.116-2.662 1.985-4.95 4.51-6.099 6.35-.197.317-.429.764-.715.575-.13-.085.03-.444.23-.804 1.67-2.998 5.744-7.243 10.963-9.571 6.084-2.715 12.717-2.57 18.649-.275 5.189 2.007 9.703 6.137 11.932 10.237" transform="translate(-263.000000, -966.000000) translate(-36.000000, 966.000000) translate(299.000000, 0.000000) translate(45.234546, 28.810909) scale(-1, 1) rotate(-180.000000) translate(-45.234546, -28.810909) translate(0.234546, 0.810909)"/>
                        <g transform="translate(-263.000000, -966.000000) translate(-36.000000, 966.000000) translate(299.000000, 0.000000) translate(45.234546, 28.810909) scale(-1, 1) rotate(-180.000000) translate(-45.234546, -28.810909) translate(0.234546, 0.810909) translate(18.760000, 2.907429)">
                            <mask id="8dinsjcqcd" fill="#fff">
                                <use xlink:href="#4tkl8gi7ec"/>
                            </mask>
                            <g mask="url(#8dinsjcqcd)">
                                <g>
                                    <path fill="#061922" fill-rule="nonzero" d="M25.177 47.199c-1.842.131-3.347.184-4.662.046.38.96 1.142 1.856 1.73 2.25 1.255-.051 2.552-.234 3.578-.437 3.285-.648 8.393-2.65 10.594-5.6-2.933 1.957-7.807 3.497-11.24 3.74zm-5.516-.068c-1.108-.07-3.116-.505-3.832-.712-.184.482-.691 1.974-.854 2.456 2.04.578 4.408.78 6.232.62-.507-.39-1.362-1.928-1.546-2.364zm-9.278-2.732c-.228.383-1.308 1.368-1.893 1.56 1.362 1.01 4.524 2.457 5.724 2.71.207-.345.761-1.814.946-2.434-1.062-.23-3.877-1.24-4.777-1.836zm29.612-3.351c-.3.344-.716 1.078-3.693 3.672-4.377 3.813-10.179 5.555-15.625 5.555-4.017 0-7.532-.901-11.425-3.044-4.962-2.73-7.016-5.867-7.524-6.505-.374-.469-.428-.743-.185-.883.174-.1.507.264.82.677 1.475 1.948 3.415 3.879 5.458 5.015.635-.092 1.523-.975 1.869-1.446-1.307-.712-3.473-2.36-4.293-2.996-.707-.548-.952-.855-.761-1.078.158-.186.7.18 1.154.55.784.643 3.115 2.296 4.27 2.916.784-.919.53-2.617.253-2.984-.149-.198-.17-.409 0-.505.162-.092.338.141.566.47.535.773.32 2.644-.139 3.317 1.408.872 3.428 1.458 4.651 1.733.104-.195 1.587-4.527 1.87-5.313.154-.431.307-.947.623-.85.21.065.071.537-.104 1.01-.217.586-1.339 4.224-1.685 5.302.404.218 2.84.713 3.45.689-.3-1.584.822-2.233 2.09-3.064.673-.442 4.956-2.902 5.85-3.455.51-.316.907-.516 1.016-.368.124.171-.222.529-.693.804-.375.22-4.36 2.53-6.024 3.581-1.192.752-1.832 1.558-1.546 2.617.392.114 1.593.125 2.839.114 8.493-.069 15.302-4.935 16.064-5.715.386-.396.923-.734 1.13-.574.132.102-.095.55-.276.758M41.832 11.985c.314.578.57.907.3 1.056-.246.136-.485-.399-.785-.918-.992-1.721-2.076-3.143-4.523-5.371-2.712-2.468-5.828-3.902-6.913-4.27-.923 2.594-4.443 13.64-4.535 13.956-.139.471-.257.607-.416.55-.178-.063-.069-.32.023-.734.093-.413 4.282-13.485 4.42-13.944-.831-.413-4.208-1.357-6.566-1.435-2.1-.069-4.57 0-5.816.288-1.461 1.178-4.785 5.869-6.046 8.366-1.486 2.942-2.471 5.65-2.725 6.797-.122.55-.278.945-.553.893-.298-.058-.128-.492.046-1.08.447-1.513 1.176-3.656 2.724-6.713 1.64-3.237 4.57-7.034 5.423-8.069-2.676.562-5.928 1.814-9.018 4.117-2.663 1.984-4.95 4.51-6.1 6.35-.197.316-.428.763-.715.574-.129-.085.03-.444.23-.804 1.67-2.997 5.745-7.242 10.964-9.571 6.083-2.714 12.717-2.57 18.648-.275 5.189 2.007 9.703 6.138 11.933 10.237" transform="translate(3.181818, -0.636364) translate(0.053737, 0.045549)"/>
                                </g>
                            </g>
                        </g>
                    </g>
                </g>
            </g>
        </g>
    </g>
</svg>
