<svg xmlns="http://www.w3.org/2000/svg" width="139" height="36" viewBox="0 0 139 36">
    <g fill="none" fill-rule="evenodd">
        <g>
            <g>
                <g>
                    <path fill="#FFFFFE" d="M3.224 0h9.385c1.729 0 3.143 1.414 3.143 3.143v29.714c0 1.729-1.414 3.143-3.143 3.143H3.224C1.496 36 .081 34.586.081 32.857V3.143C.082 1.414 1.496 0 3.224 0" transform="translate(-80.000000, -70.000000) translate(80.000000, 70.000000)"/>
                    <path fill="#D8232A" d="M13.262 35.513c.19-.36.529-1.522-.105-2.748.19-.676-.317-.824-.529-2.325.212-.444.36-.972.338-1.564-.042-.528-.422-.782-.634-1.183-.338-1.353-.528-2.79-1.035-4.058-.17-.613-.592-1.142-.888-1.712-.296-1.522-.444-3.15-.909-4.587.085-.063.17-.147.233-.232-.317-1.29-.782-3.17-1.459-3.741.17-.634.423-1.374.508-1.944.296-.402.634-.846 1.289-1.142.338.93.486 2.093.676 3.023.423.93 1.015 1.754 1.184 2.6-1.078.422-1.818 1.415-1.818 2.578 0 1.5 1.205 2.705 2.684 2.705 1.1 0 2.05-.697 2.473-1.648v13.484c0 1.204-.845 2.219-2.008 2.494" transform="translate(-80.000000, -70.000000) translate(80.000000, 70.000000)"/>
                    <path fill="#292D78" d="M11.997 35.553c-.422-1.015-.169-1.86-.084-3.022-.106-.529-.19-1.057-.275-1.564-.592-.91-.803-1.734-.951-2.706-1.12-.993-2.43-1.86-3.318-2.938-1.585-1.5-2.748-3.043-3.551-4.776-.275-.021-.55-.042-.845-.042-.508-1.374-1.67-3.044-1.564-4.122.042-.95.338-1.817.697-2.79-.317-.063-.613.043-.951-.148-.528-.338-.444-.93-.465-1.458.232-1.057.803-1.944 1.183-2.896.38-.824.74-1.648 1.1-2.451.507-.57.824-.972 1.458-1.247.55-.064 1.099.021 1.69-.106.254-.084.571-.148.677-.317.254-.36.19-.74.296-1.183-.338-.19-.296-1.163.084-1.501 0-.676.275-1.585.846-1.818L3.12.426C1.703.426.563 1.567.563 2.984v30.033c0 1.416 1.141 2.557 2.558 2.557l8.876-.021zm-9.806-6.256h1.12l.824 2.642v-2.642h1.014v4.417H4.01l-.846-2.642v2.642H2.19v-4.417zm3.128 0h1.31c1.712 0 1.268 2.071.634 2.113.951-.105 1.078 2.304-.465 2.304h-1.48v-4.417zm1.014.718v.994h.254c.422 0 .422-.994 0-.994h-.254zm0 1.755v1.226h.254c.486 0 .422-1.226 0-1.226h-.254zm2.41-2.473h1.352l.782 4.417H9.841l-.084-.782h-.719l-.126.782H7.897l.845-4.417zm.401 2.853h.528l-.274-2.198-.254 2.198z" transform="translate(-80.000000, -70.000000) translate(80.000000, 70.000000)"/>
                    <path fill="#D8232A" d="M9.77.536c.718.677 1.162 1.649.485 2.833.423.274-.317.76-.486 1.14-.211.593-.93.93-.845 1.142.93.57 1.67 1.141 2.6 1.881.486.613.676 3.065.95 4.925.402 1.162.973 2.155 1.184 3.466.74.275 1.31.845 1.606 1.522V2.988c0-1.416-1.14-2.557-2.557-2.557L9.769.536" transform="translate(-80.000000, -70.000000) translate(80.000000, 70.000000)"/>
                </g>
                <path fill="#FFF" fill-rule="nonzero" d="M53.06 16.433v8.958c0 1 .253 1.818.748 2.456.494.638 1.277.964 2.338.964h3.327c1.072 0 1.856-.314 2.35-.952.494-.638.735-1.457.735-2.468v-8.958h5.436v9.403c0 2.637-.747 4.66-2.254 6.057C64.234 33.302 62.15 34 59.473 34h-3.327c-2.676 0-4.761-.698-6.268-2.107-1.506-1.397-2.254-3.42-2.254-6.057v-9.403h5.436zm-22.828 0v6.044h9.497v-6.044h5.436v17.266H39.73v-6.406h-9.497V33.7h-5.436V16.433h5.436zm45.537 0l6.147 6.37 5.894-6.37h5.303v17.266H87.81v-9.271l-5.894 5.996-6.147-6.117V33.7h-5.316V16.433h5.316zm36.545 0l4.568 17.266h-5.508l-.711-2.733h-9.872l-.723 2.733h-5.484l4.568-17.266h13.162zm11.378 0l9.968 9.524v-9.524H139v17.266h-5.34l-9.968-9.645V33.7h-5.34V16.433h5.34zM108.12 21.2h-4.822l-1.277 4.949h7.376l-1.277-4.95zM33.179 2c.964 0 1.777.18 2.308.446.53.264.952.656 1.175 1.017.223.361.368.8.416 1.096.018.15.03.295.03.433h-2.73c-.054-.391-.446-.662-1.272-.662h-4.948c-.837 0-1.26.18-1.26.542 0 .307.254.457.766.457h6.515c1 0 1.772.235 2.308.71.537.476.802 1.102.802 1.891 0 .921-.344 1.65-1.025 2.173-.68.524-1.73.801-3.134.825h-5.11c-.958 0-1.76-.162-2.308-.41-.549-.24-.977-.607-1.218-.969-.247-.36-.404-.818-.452-1.167-.03-.175-.042-.35-.042-.536h2.724c.072.433.597.662 1.47.662h4.936c.922 0 1.386-.175 1.386-.53 0-.27-.259-.457-.843-.457h-6.304c-1.055 0-1.856-.223-2.405-.669-.554-.445-.831-1.06-.831-1.842 0-.903.355-1.794 1.29-2.378.596-.373 1.554-.626 2.735-.632zm7.876.144v4.54c0 .5.127.915.374 1.234.247.319.639.482 1.17.482h4.935c.536 0 .928-.163 1.175-.482.247-.32.368-.729.368-1.234v-4.54h2.718v4.702c0 1.319-.374 2.33-1.127 3.029-.754.704-1.796 1.053-3.134 1.053h-4.936c-1.338 0-2.38-.35-3.134-1.053-.753-.699-1.127-1.71-1.127-3.029V2.144h2.718zm21.612 0c1.085 0 2.037.374 2.664.976.626.602 1 1.439 1 2.354s-.374 1.752-1 2.354c-.627.602-1.58.975-2.664.975h-6.925v1.975h-2.718V2.144zm16.621 0v2.348h-9.257v.861h8.42V7.6h-8.42v.837h9.257v2.342H67.313V2.144h11.975zm10.872 0c1.085 0 2.037.374 2.664.976.627.602 1 1.439 1 2.354 0 .644-.168 1.234-.512 1.764-.343.53-.813.933-1.41 1.21l1.53 2.33h-3.151l-1.17-1.975h-5.863v1.975h-2.73V2.144zM62.667 4.53h-6.925v1.896h6.925c.259 0 .488-.09.675-.277.187-.187.277-.41.277-.674 0-.265-.09-.488-.277-.675-.187-.18-.416-.27-.675-.27zm27.493 0h-6.912v1.896h6.912c.26 0 .488-.09.675-.277.187-.187.277-.41.277-.674 0-.265-.09-.488-.277-.675-.187-.18-.416-.27-.675-.27z" transform="translate(-80.000000, -70.000000) translate(80.000000, 70.000000)"/>
            </g>
        </g>
    </g>
</svg>
