<svg xmlns="http://www.w3.org/2000/svg" xmlns:xlink="http://www.w3.org/1999/xlink" width="56" height="56" viewBox="0 0 56 56">
    <defs>
        <path id="iqmi4e7m8a" d="M0 0.046L56 0.046 56 55.821 0 55.821z"/>
    </defs>
    <g fill="none" fill-rule="evenodd">
        <g>
            <g>
                <g>
                    <g transform="translate(-378.000000, -966.000000) translate(-36.000000, 966.000000) translate(414.000000, 0.000000)">
                        <mask id="un3a0f2yob" fill="#fff">
                            <use xlink:href="#iqmi4e7m8a"/>
                        </mask>
                        <path fill="#FFF" fill-rule="nonzero" d="M1.942 37.459C1.494 36.793 0 34.266 0 30.189c0-1.53.212-3.277.763-5.218.005-.012.006-.025.009-.04l.24-.94.06.059c.036-.112.076-.227.114-.344.194-.582.396-1.191.442-1.335.032-.125.21-.822.348-1.307.043-.148.078-.268.115-.372l.009-.068c.045-.362.103-.709.17-1.044.024-.18.055-.355.08-.502l.01-.064.027-.06c.016-.04.031-.072.042-.096.696-2.843 2-4.524 2.735-5.287l.009-.009.009-.01c.143-.132.547-.508 1.011-.797.213-.279.906-1.176 1.542-1.887.217-.24.423-.457.618-.634.105-.24.358-.753.833-1.346.628-.786 1.657-1.712 3.225-2.286 1.204-.817 2.48-1.538 3.804-2.162.253-.261 1.214-1.21 2.706-2.165C20.657 1.17 23.123.047 26.04.045c.11 0 .223.002.335.006l1.062.031-1.316 1.765c.7-.052 1.408-.08 2.122-.08 3.77 0 7.371.736 10.647 2.064l.016.007.014.006c.13.062.355.174.589.318.198.127.4.255.578.451.224.026.705.103 1.242.344l.016.007.014.007c3.547 1.857 6.637 4.441 9.048 7.551l.022.028.017.03c.038.063.133.254.214.657.04.026.098.062.162.105.13.087.277.185.418.328l.032.033.027.038C54.265 18.042 56 23.223 56 28.795c0 5.28-1.56 10.212-4.251 14.374l-.011.015-.01.013c-.043.056-.062.074-.101.112-.035.033-.079.071-.134.113-.082.063-.189.135-.325.216-.01.051-.025.12-.045.196-.044.169-.095.366-.229.582l-.007.012-.01.015c-5.03 6.89-13.297 11.378-22.635 11.378-12.212-.001-22.588-7.678-26.3-18.362" mask="url(#un3a0f2yob)"/>
                    </g>
                    <path fill="#061922" fill-rule="nonzero" d="M50.856 14.014c-.16-.165-.536-.385-.536-.385-.138-.052-.165-.178-.165-.178-.075-.466-.174-.634-.174-.634-2.365-3.05-5.394-5.587-8.872-7.41-.621-.279-1.18-.309-1.18-.309-.127.004-.186-.096-.186-.096-.205-.289-.824-.603-1.055-.714-3.216-1.303-6.745-2.025-10.446-2.025-1.123 0-2.227.068-3.313.197L26.356.543C20.647.373 16.55 4.83 16.55 4.83l.003.006c-1.37.637-2.68 1.379-3.914 2.223l.003-.007c-2.977 1.068-3.836 3.466-3.836 3.466-.754.63-2.248 2.613-2.248 2.613-.428.246-.873.653-1.008.782-.684.712-1.94 2.319-2.609 5.086-.017.046-.04.09-.06.136-.025.154-.055.329-.08.501-.064.33-.122.67-.167 1.025l.029-.039c-.01.075-.019.119-.019.119-.07.048-.498 1.753-.498 1.753-.07.217-.847 2.553-.847 2.553l-.005-.005c-.002.005-.002.01-.002.015-2.046 7.144.672 11.475 1.135 12.141 3.615 10.51 13.807 18.084 25.815 18.084 9.163 0 17.268-4.407 22.199-11.166.14-.22.211-.67.211-.67.005-.146.116-.213.116-.213.38-.205.511-.344.528-.366 2.64-4.083 4.166-8.915 4.166-14.094 0-5.464-1.7-10.54-4.606-14.76" transform="translate(-378.000000, -966.000000) translate(-36.000000, 966.000000) translate(414.000000, 0.000000)"/>
                    <path fill="#FFF" fill-rule="nonzero" d="M16.826 8.823c.071-.074.136-.14.191-.203.092-.095.128-.119.139-.112l.02-.019c.024-1.36.33-2.452.33-2.452 2.47-3.457 6.544-4.372 6.544-4.372.507-.146.18.078.18.078-2.565 2.88-2.299 5.259-2.299 5.259l2.45 8.95s-1.985-.7-3.514-3.844c-.707 6.273 5.2 11.361 5.2 11.361.256.22-.148-.019-.148-.019-1.48-.74-3.182-2.3-3.648-2.737.125.483 3 14.961 3.008 15.004.014.067.053.207.083.3l.996-2.479.823 7.31c-3.744 3.491-7.732 2.109-7.978 2.018.096.157.171.271.171.271s3.24 6.372 16.43 5.696c0 0 .316-.002.268.04.005.01-.012.025-.07.046-.25.09-.637.153-.637.153-15.926 4.262-24.179-9.333-24.535-9.94-.101-.139-.873-1.23-1.305-2.329-.013-.032-.032-.14.042-.056 0 0 1.691 1.764 6.472 2.201.036-.003.056-.008.056-.008-3.697-4.13-5.268-7.12-5.5-7.578h-.005s-.444-.67-.97-2.567c0 0 .013-.095.058 0 .18.377 1.404 2.185 2.893 2.589h.003c-1.263-2.042-2.048-5.273-2.15-5.745 1.723 2.414 4.771 2.588 4.771 2.588-.004-.008-.008-.014-.016-.024.008.01.01.018.01.018-5.016-5.013-3.935-10.47-1.899-14.41 1.199-2.326 2.73-4.124 3.536-4.988" transform="translate(-378.000000, -966.000000) translate(-36.000000, 966.000000) translate(414.000000, 0.000000)"/>
                    <path fill="#BBC4CA" fill-rule="nonzero" d="M31.877 41.927l-3.339 3.483.008-.006 4.12-3.136-2.132-7.293.931-8.77-1.627 8.375 2.04 7.347zM32.567 20.573c-.277 1.474-.73 2.984-1.516 3.658.058-.03.128-.069.21-.118.235-.143.55-.37.865-.704.628-.668 1.259-1.762 1.259-3.48 0-.769-.126-1.663-.435-2.698-.032.593-.125 1.952-.383 3.342M32.63 9.556c1.14-1.757 3.012-1.909 3.806-1.917-.686-.205-1.323-.28-1.892-.28-1.203 0-2.097.337-2.467.505-.054.025-.097.046-.128.062.293.418.581 1.307.682 1.63zm0 .18l.1-.028-.1.029zM29.656 14.089l.09-.05-.09.05zm1.428-.997c.029.004.05.028.052.056.003.162.004.324.004.487-.001 3.755-1.002 7.867-1.384 9.295 1.445-3.288 1.834-6.361 1.834-8.72 0-1.383-.133-2.52-.267-3.31-.07-.412-.14-.729-.19-.94-.367 2.828-1.446 4.11-1.452 4.116-.012.015-.032.023-.049.02-.02-.001-.037-.012-.046-.029-1.777-3.265-4.395-5.256-5.592-6.046-.207-.137-.372-.238-.481-.303 3.378 7.311 4.367 12.952 4.621 14.812.008-.215.012-.432.012-.653 0-3.34-.857-7.367-1.287-9.169-.143-.601-.238-.954-.238-.955-.006-.024.003-.05.024-.063.02-.014.047-.012.069.003 1.518 1.176 2.584 4.512 2.773 5.13.283-.35.655-1.224.957-2.027.327-.87.577-1.662.578-1.663.007-.025.03-.041.054-.041h.008z" transform="translate(-378.000000, -966.000000) translate(-36.000000, 966.000000) translate(414.000000, 0.000000)"/>
                    <path fill="#BBC4CA" fill-rule="nonzero" d="M2.872 28.187c.001 3.461.596 7.083 3.573 11.703l.005.007c2.81 5.924 7.994 9.113 10.41 10.337.805.407 1.299.596 1.304.598 3.839 1.81 7.45 2.476 10.687 2.476 6.777 0 11.914-2.922 14.058-4.383.716-.486 1.096-.81 1.096-.81l.037.044-.037-.044c.143-.117.25-.21.328-.28-.043.023-.086.05-.128.074-.153.092-.295.183-.295.184-5.267 3.092-10.12 4.037-14.082 4.037-6.208 0-10.223-2.315-10.227-2.317C6.44 42.91 6.249 30.943 6.249 30.936c0-.027.017-.05.044-.057.026-.006.052.006.065.03 1.698 3.29 3.756 4.412 4.673 4.769.132.051.24.086.32.11-3.827-4.824-4.923-8.883-4.923-11.944 0-4.054 1.92-6.35 1.924-6.355.016-.02.045-.027.069-.015.024.011.036.037.032.063-.274 1.429-.379 2.69-.38 3.782.001 2.67.627 4.333.938 4.994l.027.056c-.116-.973-.168-1.911-.168-2.815 0-9.024 5.285-14.583 6.4-15.657-.834.35-1.849 1.248-2.675 2.095-.915.935-1.605 1.805-1.607 1.806-.015.019-.04.027-.063.019-.023-.009-.04-.03-.038-.055.008-.716.416-1.618.638-2.054-.68.619-1.244 1.588-1.646 2.436-.445.938-.69 1.723-.69 1.725l-.013.02c-2.093 2.37-3.106 4.902-3.48 6.017-.127.372-.18.584-.18.584-.048.192-.075.286-.1.335-.012.014-.012.04-.067.048-.044-.003-.056-.034-.06-.044-.006-.013-.008-.024-.01-.035-.002-.024-.004-.05-.004-.081 0-.11.014-.262.014-.262.04-1.703.748-3.619 1.032-4.326-2.006 2.158-2.497 5.085-2.497 7.424 0 1.106.11 2.08.22 2.775.11.697.218 1.114.218 1.115l.002.014c.005 1.376.276 3.076.544 4.431.27 1.355.535 2.363.535 2.361.09.263.122.383.125.45-.001.012-.001.022-.007.039-.005.016-.033.041-.06.04-.045-.006-.05-.024-.065-.036-.012-.014-.026-.03-.038-.05-.026-.038-.054-.087-.081-.136-.053-.094-.101-.187-.101-.188-1.402-2.147-2.085-5.689-2.242-6.582l-.002.405" transform="translate(-378.000000, -966.000000) translate(-36.000000, 966.000000) translate(414.000000, 0.000000)"/>
                    <path fill="#0064B1" fill-rule="nonzero" d="M33.746 11.24l-.028-.026.013-.037c.643-1.715 3.662-3.24 4.248-3.525-1.405-.788-2.752-1.025-3.87-1.025-.846 0-1.559.137-2.06.273-.501.136-.787.27-.787.27v.001l-.042.02-.027-.036c-.52-.648-1.196-1.294-1.743-1.776-.524-.462-.925-.773-.96-.8-.077-.05-.125-.078-.131-.15 0-.042.03-.07.053-.083.024-.013.05-.02.078-.026.056-.01.122-.012.18-.012.074 0 .135.004.15.005 12.038.003 18.438 8.596 18.44 8.598.083.096.125.19.125.28-.01.259-.304.382-.57.465-.27.082-.538.112-.538.112-1.162.162-2.241.232-3.238.232-6.258 0-9.285-2.754-9.293-2.76M29.655 46.168c-.02-.007-.034-.024-.038-.045-.005-.02.004-.042.02-.055l4.013-3.246-2.036-7.58v-.022l.561-5.083c.002-.018.01-.033.026-.042.013-.01.031-.013.047-.008.913.283 1.34 1.53 1.562 2.696.156.835.2 1.635.213 2.024 1.066-2.318 1.414-4.18 1.414-5.623 0-2.046-.698-3.252-1.042-3.726-.114-.158-.19-.232-.19-.232-.021-.022-.021-.058 0-.08.022-.023.058-.024.08-.002 4.78 4.551 5.74 10.922 5.74 15.314 0 2.967-.437 5.035-.437 5.037l-.002.007c-.158.468-.64.587-.648.589-1.945.434-3.66.576-5.07.576-2.643 0-4.208-.498-4.213-.5" transform="translate(-378.000000, -966.000000) translate(-36.000000, 966.000000) translate(414.000000, 0.000000)"/>
                    <path fill="#0064B1" fill-rule="nonzero" d="M41.055 45.694c-.075-.06-.122-.161-.12-.302 0-.064.008-.138.028-.224 0-.002.157-.606.315-1.648.156-1.042.313-2.518.313-4.253 0-4.6-1.104-11.018-6.234-16.006-.02-.013-.092-.063-.14-.115-.016-.022-.035-.04-.038-.082-.001-.028.02-.06.044-.07.023-.011.043-.013.067-.013.051 0 .121.012.231.041.005.003 1.368.416 2.326 1.49l-.034-.252c-.042-.272-.115-.656-.243-1.104-.256-.894-.73-2.039-1.6-3.038 0-.001-.121-.127-.187-.215-.02-.033-.038-.045-.044-.094 0-.011.003-.031.018-.046.017-.016.037-.02.047-.02.043.004.06.018.102.042.038.025.09.061.16.114.308.148 13.194 6.377 13.645 18.956 0 0 .007.073.007.186-.002.306-.05.92-.456 1.269-.125.155-3.178 3.95-7.671 5.406-.003.001-.136.053-.286.053-.084 0-.175-.016-.25-.075" transform="translate(-378.000000, -966.000000) translate(-36.000000, 966.000000) translate(414.000000, 0.000000)"/>
                    <path fill="#0064B1" fill-rule="nonzero" d="M50.77 36.82c-.035-.09-.054-.215-.059-.382-.293-12.074-13.571-19.675-16.89-21.381-.474-.244-.741-.368-.741-.368l-.234-.107.257-.003h.031c1.741.001 2.807 1.049 3.123 1.41 0-.318-.062-.651-.125-.905-.065-.255-.128-.427-.128-.427l-.043-.119.117.045c1.39.528 3.182.703 4.938.703 1.697 0 3.363-.164 4.603-.327 1.241-.163 2.054-.327 2.056-.327h.006c.065-.006.127-.01.184-.01.707 0 .932.395.962.464 1.66 1.845 3.716 6.122 4.06 11.26.042.644.062 1.27.062 1.874-.003 4.506-1.085 7.791-1.72 8.57-.094.111-.178.181-.277.184-.086 0-.15-.066-.183-.155" transform="translate(-378.000000, -966.000000) translate(-36.000000, 966.000000) translate(414.000000, 0.000000)"/>
                    <path fill="#061922" fill-rule="nonzero" d="M22.593 2.904c.007-.01.019-.02.022-.032l-.003.001c-.148.042-2.8.815-3.586 4.81 0 0-.006.074.037.006.239-.388 1.067-1.628 1.83-1.26l.01-.082c.041-.338.29-1.727 1.69-3.443M20.401 39.185c-.568-1.15-4.216-9.182-4.216-9.182-1.136.365-2.544-.567-2.544-.567v.004c1.796 4.805 6.022 9.007 6.696 9.769l.01.01c.115.127.115.08.115.08-.017-.023-.034-.063-.06-.114M16.812 13.2c-3.27 7.528 4.088 10.632 4.185 10.67l.003.002-.39-1.734-.222-.993c-.186-.061-.356-.129-.524-.204-.056-.024-.111-.052-.167-.078-.068-.033-.137-.066-.201-.1-3.215-1.722-2.904-5.845-2.705-7.185l.001-.028c.008-.038.014-.077.02-.112.02-.125.035-.21.046-.256l.006-.034v-.005c.009-.1-.037.014-.052.056" transform="translate(-378.000000, -966.000000) translate(-36.000000, 966.000000) translate(414.000000, 0.000000)"/>
                    <path fill="#BBC4CA" fill-rule="nonzero" d="M21.721 34.446l-.542-9.497 3.231 10.59s-1.06-2.503-2.689-1.093M21.914 7.316l.721 5.618s.352 1.536-1.814-.766c1.561 3.114 3.59 3.806 3.59 3.806L21.926 7.18c-.004.016-.021.03-.013.137M18.592 17.61c-.196-.468-.275-.896-.275-1.278 0-1.38 1.002-2.158 1.007-2.162l.03-.023c0 .014-.051-.877.03-2.3-.805 1.202-2.512 4.053-.468 6.281-.033-.046-.063-.088-.09-.129-.105-.155-.178-.28-.234-.39" transform="translate(-378.000000, -966.000000) translate(-36.000000, 966.000000) translate(414.000000, 0.000000)"/>
                    <path fill="#061922" fill-rule="nonzero" d="M20.797 18.707c-.358-.605-1.273-2.534-1.416-4.487-.002-.013-.003-.027-.003-.04l-.03.022c-.005.004-1.04.765-1.04 2.12 0 .374.082.793.284 1.251.058.108.133.231.241.383l.093.126c.04.049.085.093.134.144.354.373.955.759 1.94.8 0 0-.082-.112-.203-.319" transform="translate(-378.000000, -966.000000) translate(-36.000000, 966.000000) translate(414.000000, 0.000000)"/>
                    <path fill="#BBC4CA" fill-rule="nonzero" d="M25.217 41.198v.008l.002-.022c0-.002 0-.004-.002-.006v.02zM23.608 36.778c.322.004.566.307.767.727.202.424.363.984.487 1.542.156.696.256 1.39.31 1.815 0 .191-.002.332-.008.413v.007c.069-.46.722-4.92-1.474-5.548 0 0-1.527-.403-1.429 2.883.01-.075.018-.141.023-.202.502-1.163.921-1.628 1.324-1.637" transform="translate(-378.000000, -966.000000) translate(-36.000000, 966.000000) translate(414.000000, 0.000000)"/>
                    <path fill="#061922" fill-rule="nonzero" d="M25.218 41.19L25.218 41.192 25.218 41.195zM25.301 40.855c-.01-.138-.161-1.112-.324-1.804-.13-.555-.299-1.111-.51-1.533-.21-.418-.465-.72-.801-.723-.421.009-.86.471-1.384 1.628-.032.084-.025.095-.025.2l.791 1.71s.455-4.58 2.24.927c.002.01.002.019.004.022v-.01.003-.008c.006-.081.026-.183.01-.412" transform="translate(-378.000000, -966.000000) translate(-36.000000, 966.000000) translate(414.000000, 0.000000)"/>
                </g>
            </g>
        </g>
    </g>
</svg>
