<svg xmlns="http://www.w3.org/2000/svg" xmlns:xlink="http://www.w3.org/1999/xlink" width="57" height="56" viewBox="0 0 57 56">
    <defs>
        <path id="pnl9fmaqaa" d="M0 0L55.996 0 55.996 56 0 56z"/>
    </defs>
    <g fill="none" fill-rule="evenodd">
        <g>
            <g>
                <g>
                    <g transform="translate(-547.000000, -966.000000) translate(-36.000000, 966.000000) translate(583.500000, 0.000000)">
                        <mask id="f83bk6ih4b" fill="#fff">
                            <use xlink:href="#pnl9fmaqaa"/>
                        </mask>
                        <path fill="#FFC627" fill-rule="nonzero" d="M28.005 0c7.46 0 14.484 2.914 19.783 8.214 5.289 5.29 8.208 12.325 8.208 19.78C55.996 43.44 43.445 56 28.006 56c-7.479 0-14.511-2.908-19.807-8.21C2.922 42.497 0 35.466 0 27.992c0-7.454 2.922-14.49 8.2-19.779C13.494 2.914 20.526 0 28.004 0" mask="url(#f83bk6ih4b)"/>
                    </g>
                    <path fill="#8B2332" fill-rule="nonzero" d="M28.011 53.76c14.2 0 25.749-11.55 25.749-25.768 0-14.19-11.55-25.752-25.749-25.752C13.796 2.24 2.24 13.802 2.24 27.992c0 14.218 11.556 25.768 25.771 25.768" transform="translate(-547.000000, -966.000000) translate(-36.000000, 966.000000) translate(583.500000, 0.000000)"/>
                    <path fill="#0D2240" fill-rule="nonzero" d="M4.032 28.217c0-13.085 10.655-23.737 23.752-23.737 13.095 0 23.736 10.652 23.736 23.737 0 13.097-10.641 23.751-23.736 23.751-13.097 0-23.752-10.654-23.752-23.75" transform="translate(-547.000000, -966.000000) translate(-36.000000, 966.000000) translate(583.500000, 0.000000)"/>
                    <path fill="#FFC627" fill-rule="nonzero" d="M46.923 17.795l.533-.299-1.715-2.675-.48.349c-2.918-3.7-8.096-7.825-13.024-8.45 3.71 1.703 7.885 6.054 10.433 9.407l-2.677 1.958.322.497-12.098 7.902-12.098-7.902.325-.497-2.694-1.958c2.566-3.353 6.73-7.704 10.445-9.407-4.922.624-10.105 4.74-12.999 8.437l-.502-.364-1.715 2.669.535.312-.014.021c-2.13 4.207-3.695 10.71-2.17 15.468-.04-4.11 2.156-9.764 4.13-13.528l2.888 1.637.3-.46 11.234 7.101-14.818 9.681-.023-.03-1.986.539.021.049c-.097.371.085 1.06.507 1.716.421.675.954 1.12 1.352 1.193l.034.055 1.32-1.603-.012-.03 29.516-18.67.288.46 2.898-1.638c1.97 3.764 4.169 9.418 4.144 13.528 1.524-4.757-.06-11.26-2.2-15.468" transform="translate(-547.000000, -966.000000) translate(-36.000000, 966.000000) translate(583.500000, 0.000000)"/>
                    <path fill="#FFC627" fill-rule="nonzero" d="M45.068 37.631l-.022.03-13.552-8.989-2.374 1.435 14.717 9.461-.017.03 1.308 1.618.04-.056c.396-.074.925-.523 1.344-1.204.407-.663.6-1.357.503-1.732l.024-.05-1.97-.543zM30.629 9.221L29.62 10.563 28.224 7.168 28.224 22.848 32.913 16.734 37.632 17.973z" transform="translate(-547.000000, -966.000000) translate(-36.000000, 966.000000) translate(583.500000, 0.000000)"/>
                    <path fill="#FFF" fill-rule="nonzero" d="M30.464 12.992L30.464 9.408 29.568 10.717zM27.776 7.168L19.264 17.735 23.021 16.762 27.776 22.848z" transform="translate(-547.000000, -966.000000) translate(-36.000000, 966.000000) translate(583.500000, 0.000000)"/>
                    <path fill="#FFC627" fill-rule="nonzero" d="M22.994 46.592c1.188-1.199 2.702-1.93 4.334-2.091v-2.389h-6.272c.149 1.739.845 3.298 1.938 4.48M27.328 48.832v-2.688c-1.334.148-2.568.66-3.584 1.498 1.056.642 2.274 1.062 3.584 1.19" transform="translate(-547.000000, -966.000000) translate(-36.000000, 966.000000) translate(583.500000, 0.000000)"/>
                    <path fill="#FFF" fill-rule="nonzero" d="M29.12 34.496v2.688c1.17-.147 2.263-.652 3.136-1.492-.915-.649-1.979-1.073-3.136-1.196M33.008 36.736c-1.192 1.122-2.704 1.83-4.336 1.973v2.059h6.272c-.19-1.56-.896-2.968-1.936-4.032M27.328 37.184v-2.688c-1.152.123-2.222.547-3.136 1.196.878.84 1.963 1.345 3.136 1.492" transform="translate(-547.000000, -966.000000) translate(-36.000000, 966.000000) translate(583.500000, 0.000000)"/>
                    <path fill="#FFC627" fill-rule="nonzero" d="M29.12 42.112V44.5c1.628.161 3.148.893 4.326 2.092 1.095-1.182 1.816-2.741 1.946-4.48H29.12z" transform="translate(-547.000000, -966.000000) translate(-36.000000, 966.000000) translate(583.500000, 0.000000)"/>
                    <path fill="#FFF" fill-rule="nonzero" d="M21.056 40.768h6.272v-2.059c-1.636-.143-3.142-.852-4.344-1.973-1.038 1.063-1.744 2.471-1.928 4.032" transform="translate(-547.000000, -966.000000) translate(-36.000000, 966.000000) translate(583.500000, 0.000000)"/>
                    <path fill="#FFC627" fill-rule="nonzero" d="M29.12 48.832c1.157-.128 2.221-.548 3.136-1.19-.873-.839-1.967-1.35-3.136-1.498v2.688z" transform="translate(-547.000000, -966.000000) translate(-36.000000, 966.000000) translate(583.500000, 0.000000)"/>
                </g>
            </g>
        </g>
    </g>
</svg>
