<svg xmlns="http://www.w3.org/2000/svg" xmlns:xlink="http://www.w3.org/1999/xlink" width="105" height="42" viewBox="0 0 105 42">
    <defs>
        <path id="22qg75mrva" d="M0 0.047L104.588 0.047 104.588 40.673 0 40.673z"/>
    </defs>
    <g fill="none" fill-rule="evenodd">
        <g>
            <g>
                <g>
                    <g transform="translate(36.000000, -975.000000) translate(-36.000000, 966.000000) translate(0.000000, 9.000000) translate(0.000000, 0.135093)">
                        <mask id="q7ke99izab" fill="#fff">
                            <use xlink:href="#22qg75mrva"/>
                        </mask>
                        <path fill="#B4975A" fill-rule="nonzero" d="M104.588 12.832l-.902-.559C89.822 4.195 69.693.203 60.452.047h-.122c-1.52 0-2.572.525-3.126 1.561-.468.879-.414 1.761-.186 2.51-.16-.184-.39-.377-.643-.563-.75-.566-1.633-1.011-1.633-1.011s.116.727-.151.64c-.126-.04-.281-.107-.452-.186-.75-.357-1.836-1.01-1.836-1.01s-1.103.653-1.853 1.01c-.171.079-.326.145-.452.186-.268.087-.152-.64-.152-.64s-.882.445-1.632 1.011c-.253.186-.484.38-.643.563.228-.749.282-1.631-.187-2.51C46.831.572 45.78.047 44.26.047h-.123C34.896.203 14.766 4.195.903 12.273L0 12.832s1.361 3.467 4.722 4.454l-.459.219s1.9 3.081 4.852 3.721l-.564.234s2.08 3.363 6.115 4.074l-.595.29s2.878 3.112 7.292 3.39l-.64.488s2.926 1.95 7.24 2.439l-.694.616s7.65 2.798 14.056.467c1.768 4.443 6.11 7.45 10.969 7.45h.001c4.858 0 9.201-3.007 10.969-7.45 6.406 2.331 14.055-.467 14.055-.467l-.693-.616c4.314-.489 7.24-2.44 7.24-2.44l-.64-.488c4.414-.277 7.29-3.389 7.29-3.389l-.594-.29c4.035-.71 6.115-4.074 6.115-4.074l-.564-.234c2.952-.64 4.852-3.721 4.852-3.721l-.457-.22c3.36-.986 4.72-4.453 4.72-4.453" mask="url(#q7ke99izab)"/>
                    </g>
                    <path fill="#002B5C" fill-rule="nonzero" d="M103.129 13.367C89.567 5.465 69.643 1.447 60.435 1.292c-1.11-.02-1.865.251-2.252.973-.64 1.204.265 2.55.65 3.127.834 1.245 1.939 3.189 1.939 5.53 0 4.539-3.67 7.895-8.188 7.894l-.29.002-.29-.002c-4.518 0-8.188-3.355-8.187-7.894 0-2.341 1.105-4.285 1.938-5.53.386-.578 1.292-1.923.65-3.127-.387-.722-1.142-.992-2.252-.973-9.209.154-29.13 4.173-42.694 12.075.011.034 2.174 3.734 6.492 3.416-.666.326-1.33.66-1.991 1 .011.04 1.98 3.279 6.735 2.811-.792.374-1.58.756-2.366 1.15.01.046 2.283 3.23 7.291 3.147-1.154.582-1.852.954-1.847.953.002.023 3.31 3.223 8.656 2.343-.578.421-1.162.868-1.85 1.35 0 .01 3.925 2.154 8.544 1.486-.596.452-1.192.906-1.786 1.369-.01-.062 7.072 1.938 12.11-.281 4.335-1.909 6.745-6.588 7.294-7.767.855.189 1.602.299 2.172.365-.002.06.918.14 1.381.121.462.018 1.384-.06 1.382-.12.569-.067 1.317-.177 2.17-.366.55 1.179 2.96 5.858 7.295 7.767 5.038 2.219 12.12.219 12.11.28-.594-.462-1.189-.916-1.785-1.368 4.617.668 8.543-1.476 8.543-1.486-.687-.482-1.27-.929-1.85-1.35 5.346.88 8.653-2.32 8.656-2.343.004.001-.692-.371-1.847-.953 5.008.083 7.281-3.1 7.29-3.146-.784-.395-1.573-.777-2.365-1.15 4.755.467 6.723-2.772 6.734-2.812-.661-.34-1.324-.674-1.989-1 4.317.318 6.48-3.382 6.49-3.416" transform="translate(36.000000, -975.000000) translate(-36.000000, 966.000000) translate(0.000000, 9.000000)"/>
                    <path fill="#FFF" fill-rule="nonzero" d="M48.392 21.954s-12.12-4.057-6.855-16.964c0 0-12.813.531-30.376 7.618 0 0-1.232.513-1.951.77-.72.257-1.875.717-3.531-.078 0 0 16.065-8.399 36.704-10.346 2.721-.257 3.081.154 2.362 1.181-.589.841-7.959 10.22 3.647 17.819" transform="translate(36.000000, -975.000000) translate(-36.000000, 966.000000) translate(0.000000, 9.000000)"/>
                    <path fill="#B4975A" fill-rule="nonzero" d="M37.625 8.646c-10.386 1.35-20.54 4.967-20.54 4.967 1.728 3.076 6.419 1.785 6.419 1.785 8.798-2.49 12.724-3.335 13.984-3.58-.05-.98-.009-2.036.137-3.172M37.701 13.702c-1.734.335-9.004 1.828-16.339 4.574 0 0 2.312 2.634 6.9 1.332 3.858-1.093 8.805-2.671 10.28-3.145-.369-.834-.656-1.751-.84-2.761M39.313 17.919c-1.567.506-9.403 3.044-12.71 4.315 0 0 1.897 2.544 7.375.388 3.816-1.503 5.92-2.38 6.846-2.776-.551-.572-1.063-1.211-1.511-1.927M42.034 20.953c-1.369.594-6.454 2.816-9.394 4.232 0 0 3.7 1.82 8.356-1.057l2.895-1.9c-.63-.368-1.256-.79-1.857-1.275M45.299 22.968c-.93.582-4.788 3.006-6.67 4.398 0 0 3.196 1.32 6.475-1.766 1.067-1.004 1.65-1.574 1.97-1.9-.565-.203-1.162-.444-1.775-.732" transform="translate(36.000000, -975.000000) translate(-36.000000, 966.000000) translate(0.000000, 9.000000)"/>
                    <path fill="#FFF" fill-rule="nonzero" d="M56.197 21.954s12.12-4.057 6.853-16.964c0 0 12.814.531 30.377 7.618 0 0 1.232.513 1.952.77s1.874.717 3.529-.078c0 0-16.064-8.399-36.703-10.346-2.722-.257-3.081.154-2.363 1.181.59.841 7.96 10.22-3.645 17.819" transform="translate(36.000000, -975.000000) translate(-36.000000, 966.000000) translate(0.000000, 9.000000)"/>
                    <path fill="#B4975A" fill-rule="nonzero" d="M66.963 8.646c10.386 1.35 20.542 4.967 20.542 4.967-1.73 3.076-6.42 1.785-6.42 1.785-8.799-2.49-12.725-3.335-13.984-3.58.05-.98.008-2.036-.138-3.172M66.887 13.702c1.734.335 9.004 1.828 16.34 4.574 0 0-2.314 2.634-6.9 1.332-3.859-1.093-8.805-2.671-10.28-3.145.368-.834.655-1.751.84-2.761M65.276 17.919c1.566.506 9.402 3.044 12.709 4.315 0 0-1.897 2.544-7.375.388-3.817-1.503-5.919-2.38-6.846-2.776.551-.572 1.062-1.211 1.512-1.927M62.555 20.953c1.367.594 6.453 2.816 9.393 4.232 0 0-3.7 1.82-8.356-1.057l-2.895-1.9c.63-.368 1.256-.79 1.858-1.275M59.29 22.968c.93.582 4.788 3.006 6.67 4.398 0 0-3.197 1.32-6.477-1.766-1.066-1.004-1.648-1.574-1.97-1.9.567-.203 1.164-.444 1.777-.732" transform="translate(36.000000, -975.000000) translate(-36.000000, 966.000000) translate(0.000000, 9.000000)"/>
                    <path fill="#FFF" fill-rule="nonzero" d="M62.219 29c0 5.484-4.443 9.927-9.925 9.927-5.483 0-9.925-4.443-9.925-9.927 0-5.481 4.442-9.925 9.925-9.925 5.482 0 9.925 4.444 9.925 9.925" transform="translate(36.000000, -975.000000) translate(-36.000000, 966.000000) translate(0.000000, 9.000000)"/>
                    <path fill="#B4975A" fill-rule="nonzero" d="M60.166 31.054c0 4.35-3.524 7.873-7.872 7.873s-7.87-3.524-7.87-7.873c0-4.347 3.522-7.871 7.87-7.871 4.348 0 7.872 3.524 7.872 7.871" transform="translate(36.000000, -975.000000) translate(-36.000000, 966.000000) translate(0.000000, 9.000000)"/>
                    <path fill="#002B5C" fill-rule="nonzero" d="M57.518 36.512c-.398-.312-.966-.866-1.067-1.55-.01-.06-.015-.12-.022-.18 2.018-.847 3.721-2.304 4.874-4.174-.434 2.436-1.832 4.54-3.785 5.904zM43.284 30.6c1.153 1.875 2.857 3.333 4.876 4.182-.007.06-.011.121-.021.182-.103.685-.669 1.237-1.067 1.548-1.956-1.364-3.355-3.472-3.788-5.912zm2.11-7.603c-.41 2.26.528 4.39 1.387 6.34.597 1.355 1.17 2.657 1.354 3.976-2.362-1.178-4.158-3.34-4.826-6.046.31-1.614 1.045-3.077 2.085-4.27zm9.683 10.853c-.68.218-1.391.36-2.122.414V19.873c1.467.106 2.84.556 4.035 1.274 1.817 2.624.793 4.965-.393 7.655-.711 1.615-1.44 3.274-1.52 5.048zm-2.122 1.738c.757-.046 1.494-.167 2.201-.362.148.852.674 1.529 1.163 1.994-1.029.506-2.164.823-3.364.909v-2.541zm-3.522-.362c.708.195 1.443.316 2.2.362v2.541c-1.199-.086-2.335-.403-3.363-.909.49-.465 1.016-1.142 1.163-1.994zM47.6 21.146c1.195-.717 2.568-1.167 4.033-1.273v14.392c-.731-.051-1.44-.188-2.118-.399-.076-1.78-.808-3.444-1.522-5.063-1.187-2.691-2.21-5.032-.393-7.656zm13.682 6.13c-.66 2.649-2.474 4.812-4.823 6.006.19-1.308.757-2.6 1.35-3.946.86-1.95 1.796-4.079 1.386-6.34 1.041 1.195 1.777 2.662 2.087 4.28zm-8.987-8.973c-5.898 0-10.696 4.798-10.696 10.697 0 5.9 4.798 10.699 10.696 10.699 5.899 0 10.697-4.8 10.697-10.699s-4.798-10.697-10.697-10.697z" transform="translate(36.000000, -975.000000) translate(-36.000000, 966.000000) translate(0.000000, 9.000000)"/>
                    <path fill="#002B5C" fill-rule="nonzero" d="M55.472 4.414s-.08.337-.285.337c-.205 0-1.489-.616-2.106-.95-.263-.142-.632-.357-.761-.432 0 0-.55.29-.814.432-.616.334-1.9.95-2.104.95-.206 0-.286-.337-.286-.337s-3.37 2.034-3.37 7.656c0 4.184 2.178 6.082 2.178 6.082l.296 1.183h8.148l.296-1.183s2.179-1.898 2.179-6.082c0-5.622-3.37-7.656-3.37-7.656" transform="translate(36.000000, -975.000000) translate(-36.000000, 966.000000) translate(0.000000, 9.000000)"/>
                    <path fill="#FFF" fill-rule="nonzero" d="M57.077 10.65c0-1.738-.706-3.152-1.468-3.995 0 0-.025.495-.856-.06-.715-.49-1.558-.779-2.463-.779-.909 0-1.753.29-2.471.783-.801.545-.84.056-.84.056-.76.843-1.468 2.257-1.468 3.994 0 1.442.354 2.154.476 2.357.715 1.837 2.371 3.126 4.303 3.126 1.907 0 3.547-1.262 4.276-3.069.043-.059.511-.751.511-2.414" transform="translate(36.000000, -975.000000) translate(-36.000000, 966.000000) translate(0.000000, 9.000000)"/>
                    <path fill="#002B5C" fill-rule="nonzero" d="M54.094 14.573c-.004-.01-.013-.02-.017-.03 0 0-.475-.89.306-1.504 0 0 1.764.368 1.805-1.971 0 0-.04-.247.206-.739 0 0-.454-.411-1.438.33-.985.737-1.518 2.83-2.052 2.338-.527-.488-.333-3.214-.608-3.317h-.01c-.272.103-.078 2.83-.606 3.317-.533.492-1.068-1.601-2.053-2.339-.985-.74-1.435-.329-1.435-.329.246.492.204.739.204.739.042 2.34 1.805 1.97 1.805 1.97.781.615.31 1.509.31 1.509l-.017.028c-2.105-2.263-3.329-1.955-2.725.579.593 2.487 2.871 13.174 3.234 15.651-.05 2.23-.308 3.026-.375 3.198l-.23.458.254.508c.4.582.678 1.237.777 1.485l.868 2.205.862-2.2c.101-.253.38-.908.78-1.49l.264-.482-.24-.483c-.067-.168-.318-.935-.376-3.083.3-2.223 2.63-13.236 3.233-15.767.603-2.533-.62-2.842-2.726-.581" transform="translate(36.000000, -975.000000) translate(-36.000000, 966.000000) translate(0.000000, 9.000000)"/>
                    <path fill="#E31837" fill-rule="nonzero" d="M50.866 25.712c-.756-3.976-1.352-6.917-1.834-9.05-.366-1.63.613-.979 1.141.04l.693 9.01zM53.723 25.712c.757-3.976 1.352-6.917 1.833-9.05.366-1.63-.613-.979-1.14.04l-.693 9.01zM49.67 12.245c-.148-.04-.237-.196-.193-.344.016-.06.052-.105.096-.14-.099-.113-.214-.224-.354-.324 0 0-.246 1.15.78 1.027 0 0-.036-.102-.112-.248-.063.037-.14.05-.216.03M55.369 11.437c-.14.1-.256.212-.354.323.044.036.08.082.098.14.04.15-.048.304-.197.345-.077.02-.152.008-.215-.029-.076.146-.112.247-.112.247 1.026.123.78-1.026.78-1.026M52.775 27.187c.327-6.143.816-10.493.816-11.036 0-.194-.022-.442-.102-.716l-.357 1.168-.11-2.064c-.18-.23-.424-.463-.733-.686h-.02c-.307.223-.523.454-.703.685l-.107 2.065-.36-1.17c-.08.276-.101.524-.101.718 0 .543.486 4.893.813 11.036.326 6.143-.435 7.284-.435 7.284.44.64.917 1.775.917 1.775s.478-1.136.919-1.775c0 0-.762-1.141-.437-7.284" transform="translate(36.000000, -975.000000) translate(-36.000000, 966.000000) translate(0.000000, 9.000000)"/>
                    <path fill="#002B5C" fill-rule="nonzero" d="M103.129 13.367C89.567 5.465 69.643 1.447 60.435 1.292c-1.11-.02-1.865.251-2.252.973-.64 1.204.265 2.55.65 3.127.834 1.245 1.939 3.189 1.939 5.53 0 4.539-3.67 7.895-8.188 7.894l-.29.002-.29-.002c-4.518 0-8.188-3.355-8.187-7.894 0-2.341 1.105-4.285 1.938-5.53.386-.578 1.292-1.923.65-3.127-.387-.722-1.142-.992-2.252-.973-9.209.154-29.13 4.173-42.694 12.075.011.034 2.174 3.734 6.492 3.416-.666.326-1.33.66-1.991 1 .011.04 1.98 3.279 6.735 2.811-.792.374-1.58.756-2.366 1.15.01.046 2.283 3.23 7.291 3.147-1.154.582-1.852.954-1.847.953.002.023 3.31 3.223 8.656 2.343-.578.421-1.162.868-1.85 1.35 0 .01 3.925 2.154 8.544 1.486-.596.452-1.192.906-1.786 1.369-.01-.062 7.072 1.938 12.11-.281 4.335-1.909 6.745-6.588 7.294-7.767.855.189 1.602.299 2.172.365-.002.06.918.14 1.381.121.462.018 1.384-.06 1.382-.12.569-.067 1.317-.177 2.17-.366.55 1.179 2.96 5.858 7.295 7.767 5.038 2.219 12.12.219 12.11.28-.594-.462-1.189-.916-1.785-1.368 4.617.668 8.543-1.476 8.543-1.486-.687-.482-1.27-.929-1.85-1.35 5.346.88 8.653-2.32 8.656-2.343.004.001-.692-.371-1.847-.953 5.008.083 7.281-3.1 7.29-3.146-.784-.395-1.573-.777-2.365-1.15 4.755.467 6.723-2.772 6.734-2.812-.661-.34-1.324-.674-1.989-1 4.317.318 6.48-3.382 6.49-3.416" transform="translate(36.000000, -975.000000) translate(-36.000000, 966.000000) translate(0.000000, 9.000000)"/>
                    <path fill="#FFF" fill-rule="nonzero" d="M48.392 21.954s-12.12-4.057-6.855-16.964c0 0-12.813.531-30.376 7.618 0 0-1.232.513-1.951.77-.72.257-1.875.717-3.531-.078 0 0 16.065-8.399 36.704-10.346 2.721-.257 3.081.154 2.362 1.181-.589.841-7.959 10.22 3.647 17.819" transform="translate(36.000000, -975.000000) translate(-36.000000, 966.000000) translate(0.000000, 9.000000)"/>
                    <path fill="#B4975A" fill-rule="nonzero" d="M37.625 8.646c-10.386 1.35-20.54 4.967-20.54 4.967 1.728 3.076 6.419 1.785 6.419 1.785 8.798-2.49 12.724-3.335 13.984-3.58-.05-.98-.009-2.036.137-3.172M37.701 13.702c-1.734.335-9.004 1.828-16.339 4.574 0 0 2.312 2.634 6.9 1.332 3.858-1.093 8.805-2.671 10.28-3.145-.369-.834-.656-1.751-.84-2.761M39.313 17.919c-1.567.506-9.403 3.044-12.71 4.315 0 0 1.897 2.544 7.375.388 3.816-1.503 5.92-2.38 6.846-2.776-.551-.572-1.063-1.211-1.511-1.927M42.034 20.953c-1.369.594-6.454 2.816-9.394 4.232 0 0 3.7 1.82 8.356-1.057l2.895-1.9c-.63-.368-1.256-.79-1.857-1.275M45.299 22.968c-.93.582-4.788 3.006-6.67 4.398 0 0 3.196 1.32 6.475-1.766 1.067-1.004 1.65-1.574 1.97-1.9-.565-.203-1.162-.444-1.775-.732" transform="translate(36.000000, -975.000000) translate(-36.000000, 966.000000) translate(0.000000, 9.000000)"/>
                    <path fill="#FFF" fill-rule="nonzero" d="M56.197 21.954s12.12-4.057 6.853-16.964c0 0 12.814.531 30.377 7.618 0 0 1.232.513 1.952.77s1.874.717 3.529-.078c0 0-16.064-8.399-36.703-10.346-2.722-.257-3.081.154-2.363 1.181.59.841 7.96 10.22-3.645 17.819" transform="translate(36.000000, -975.000000) translate(-36.000000, 966.000000) translate(0.000000, 9.000000)"/>
                    <path fill="#B4975A" fill-rule="nonzero" d="M66.963 8.646c10.386 1.35 20.542 4.967 20.542 4.967-1.73 3.076-6.42 1.785-6.42 1.785-8.799-2.49-12.725-3.335-13.984-3.58.05-.98.008-2.036-.138-3.172M66.887 13.702c1.734.335 9.004 1.828 16.34 4.574 0 0-2.314 2.634-6.9 1.332-3.859-1.093-8.805-2.671-10.28-3.145.368-.834.655-1.751.84-2.761M65.276 17.919c1.566.506 9.402 3.044 12.709 4.315 0 0-1.897 2.544-7.375.388-3.817-1.503-5.919-2.38-6.846-2.776.551-.572 1.062-1.211 1.512-1.927M62.555 20.953c1.367.594 6.453 2.816 9.393 4.232 0 0-3.7 1.82-8.356-1.057l-2.895-1.9c.63-.368 1.256-.79 1.858-1.275M59.29 22.968c.93.582 4.788 3.006 6.67 4.398 0 0-3.197 1.32-6.477-1.766-1.066-1.004-1.648-1.574-1.97-1.9.567-.203 1.164-.444 1.777-.732" transform="translate(36.000000, -975.000000) translate(-36.000000, 966.000000) translate(0.000000, 9.000000)"/>
                    <path fill="#FFF" fill-rule="nonzero" d="M62.219 29c0 5.484-4.443 9.927-9.925 9.927-5.483 0-9.925-4.443-9.925-9.927 0-5.481 4.442-9.925 9.925-9.925 5.482 0 9.925 4.444 9.925 9.925" transform="translate(36.000000, -975.000000) translate(-36.000000, 966.000000) translate(0.000000, 9.000000)"/>
                    <path fill="#B4975A" fill-rule="nonzero" d="M60.166 31.054c0 4.35-3.524 7.873-7.872 7.873s-7.87-3.524-7.87-7.873c0-4.347 3.522-7.871 7.87-7.871 4.348 0 7.872 3.524 7.872 7.871" transform="translate(36.000000, -975.000000) translate(-36.000000, 966.000000) translate(0.000000, 9.000000)"/>
                    <path fill="#002B5C" fill-rule="nonzero" d="M57.518 36.512c-.398-.312-.966-.866-1.067-1.55-.01-.06-.015-.12-.022-.18 2.018-.847 3.721-2.304 4.874-4.174-.434 2.436-1.832 4.54-3.785 5.904zM43.284 30.6c1.153 1.875 2.857 3.333 4.876 4.182-.007.06-.011.121-.021.182-.103.685-.669 1.237-1.067 1.548-1.956-1.364-3.355-3.472-3.788-5.912zm2.11-7.603c-.41 2.26.528 4.39 1.387 6.34.597 1.355 1.17 2.657 1.354 3.976-2.362-1.178-4.158-3.34-4.826-6.046.31-1.614 1.045-3.077 2.085-4.27zm9.683 10.853c-.68.218-1.391.36-2.122.414V19.873c1.467.106 2.84.556 4.035 1.274 1.817 2.624.793 4.965-.393 7.655-.711 1.615-1.44 3.274-1.52 5.048zm-2.122 1.738c.757-.046 1.494-.167 2.201-.362.148.852.674 1.529 1.163 1.994-1.029.506-2.164.823-3.364.909v-2.541zm-3.522-.362c.708.195 1.443.316 2.2.362v2.541c-1.199-.086-2.335-.403-3.363-.909.49-.465 1.016-1.142 1.163-1.994zM47.6 21.146c1.195-.717 2.568-1.167 4.033-1.273v14.392c-.731-.051-1.44-.188-2.118-.399-.076-1.78-.808-3.444-1.522-5.063-1.187-2.691-2.21-5.032-.393-7.656zm13.682 6.13c-.66 2.649-2.474 4.812-4.823 6.006.19-1.308.757-2.6 1.35-3.946.86-1.95 1.796-4.079 1.386-6.34 1.041 1.195 1.777 2.662 2.087 4.28zm-8.987-8.973c-5.898 0-10.696 4.798-10.696 10.697 0 5.9 4.798 10.699 10.696 10.699 5.899 0 10.697-4.8 10.697-10.699s-4.798-10.697-10.697-10.697z" transform="translate(36.000000, -975.000000) translate(-36.000000, 966.000000) translate(0.000000, 9.000000)"/>
                    <path fill="#002B5C" fill-rule="nonzero" d="M55.472 4.414s-.08.337-.285.337c-.205 0-1.489-.616-2.106-.95-.263-.142-.632-.357-.761-.432 0 0-.55.29-.814.432-.616.334-1.9.95-2.104.95-.206 0-.286-.337-.286-.337s-3.37 2.034-3.37 7.656c0 4.184 2.178 6.082 2.178 6.082l.296 1.183h8.148l.296-1.183s2.179-1.898 2.179-6.082c0-5.622-3.37-7.656-3.37-7.656" transform="translate(36.000000, -975.000000) translate(-36.000000, 966.000000) translate(0.000000, 9.000000)"/>
                    <path fill="#FFF" fill-rule="nonzero" d="M57.077 10.65c0-1.738-.706-3.152-1.468-3.995 0 0-.025.495-.856-.06-.715-.49-1.558-.779-2.463-.779-.909 0-1.753.29-2.471.783-.801.545-.84.056-.84.056-.76.843-1.468 2.257-1.468 3.994 0 1.442.354 2.154.476 2.357.715 1.837 2.371 3.126 4.303 3.126 1.907 0 3.547-1.262 4.276-3.069.043-.059.511-.751.511-2.414" transform="translate(36.000000, -975.000000) translate(-36.000000, 966.000000) translate(0.000000, 9.000000)"/>
                    <path fill="#002B5C" fill-rule="nonzero" d="M54.094 14.573c-.004-.01-.013-.02-.017-.03 0 0-.475-.89.306-1.504 0 0 1.764.368 1.805-1.971 0 0-.04-.247.206-.739 0 0-.454-.411-1.438.33-.985.737-1.518 2.83-2.052 2.338-.527-.488-.333-3.214-.608-3.317h-.01c-.272.103-.078 2.83-.606 3.317-.533.492-1.068-1.601-2.053-2.339-.985-.74-1.435-.329-1.435-.329.246.492.204.739.204.739.042 2.34 1.805 1.97 1.805 1.97.781.615.31 1.509.31 1.509l-.017.028c-2.105-2.263-3.329-1.955-2.725.579.593 2.487 2.871 13.174 3.234 15.651-.05 2.23-.308 3.026-.375 3.198l-.23.458.254.508c.4.582.678 1.237.777 1.485l.868 2.205.862-2.2c.101-.253.38-.908.78-1.49l.264-.482-.24-.483c-.067-.168-.318-.935-.376-3.083.3-2.223 2.63-13.236 3.233-15.767.603-2.533-.62-2.842-2.726-.581" transform="translate(36.000000, -975.000000) translate(-36.000000, 966.000000) translate(0.000000, 9.000000)"/>
                    <path fill="#E31837" fill-rule="nonzero" d="M50.866 25.712c-.756-3.976-1.352-6.917-1.834-9.05-.366-1.63.613-.979 1.141.04l.693 9.01zM53.723 25.712c.757-3.976 1.352-6.917 1.833-9.05.366-1.63-.613-.979-1.14.04l-.693 9.01zM49.67 12.245c-.148-.04-.237-.196-.193-.344.016-.06.052-.105.096-.14-.099-.113-.214-.224-.354-.324 0 0-.246 1.15.78 1.027 0 0-.036-.102-.112-.248-.063.037-.14.05-.216.03M55.369 11.437c-.14.1-.256.212-.354.323.044.036.08.082.098.14.04.15-.048.304-.197.345-.077.02-.152.008-.215-.029-.076.146-.112.247-.112.247 1.026.123.78-1.026.78-1.026M52.775 27.187c.327-6.143.816-10.493.816-11.036 0-.194-.022-.442-.102-.716l-.357 1.168-.11-2.064c-.18-.23-.424-.463-.733-.686h-.02c-.307.223-.523.454-.703.685l-.107 2.065-.36-1.17c-.08.276-.101.524-.101.718 0 .543.486 4.893.813 11.036.326 6.143-.435 7.284-.435 7.284.44.64.917 1.775.917 1.775s.478-1.136.919-1.775c0 0-.762-1.141-.437-7.284" transform="translate(36.000000, -975.000000) translate(-36.000000, 966.000000) translate(0.000000, 9.000000)"/>
                </g>
            </g>
        </g>
    </g>
</svg>
