<svg xmlns="http://www.w3.org/2000/svg" xmlns:xlink="http://www.w3.org/1999/xlink" width="44" height="56" viewBox="0 0 44 56">
    <defs>
        <path id="jke16p4jta" d="M0 0L42.244 0 42.244 56 0 56z"/>
        <path id="742v7fv0lc" d="M0.056 0L41.952 0 41.952 55.652 0.056 55.652z"/>
    </defs>
    <g fill="none" fill-rule="evenodd">
        <g>
            <g>
                <g>
                    <g transform="translate(-636.000000, -966.000000) translate(-36.000000, 966.000000) translate(672.625000, 0.000000)">
                        <mask id="sdqytmsdtb" fill="#fff">
                            <use xlink:href="#jke16p4jta"/>
                        </mask>
                        <path fill="#061922" fill-rule="nonzero" d="M37.46 29.646c-1.276 1.007-4.673 1.784-9.157 2.183l.064-5.39c5.132.67 9.297 1.42 9.297 2.651 0 .191-.07.376-.204.556zm-13.63 2.44c-.858.026-1.737.04-2.635.04-1.058 0-2.09-.018-3.088-.053l.04-1.25c-.094-3.164.103-7.132.167-11.371 2.567.297 5.662 1.029 5.609 2.834l-.093 9.8zm1.026-19.164c.21 1.551-.235 2.722-1.035 3.606-1.43 1.296-3.673 1.887-5.496 2.155.032-2.926-.011-5.964-.265-8.945 3.519.376 6.538 1.264 6.796 3.184zM13.69 31.791c-5.48-.529-9.183-1.641-9.183-3.047 0-.103.03-.2.087-.296 1.284-.903 5.222-1.473 9.165-2.065-.006 1.546-.029 3.23-.079 5.084l.01.324zM28.372 26l.06-5.013c-.006-2.352-2.45-2.746-4.256-2.716 1.21-.401 2.668-1.085 3.723-2.226 1.107-1.022 1.896-2.46 1.76-4.48-.23-3.4-4.481-5.092-11.527-4.41l-.345.036C17.456 4.68 16.942 2.247 16.158 0l-.348.347c-.937 2.905-1.497 5.222-1.822 7.371-4.206.725-7.151 1.69-7.151 1.69l-.348.346s3.4-.308 7.277-.254c-.432 4.406.007 8.591-.006 16.497-6.26-.176-11.755.864-13.098 2.536-.442.364-.676.763-.661 1.192.067 1.916 5.76 3.676 13.761 4.348l.34 10.867.349-.348.562-7.368c.002-.121.016-.223.039-.31.168.023.327.237.327.612l.247 9.705.349-.347.596-7.899c-.001-.176.018-.32.05-.437.17.03.326.278.314.723l.275 10.117.347-.347.477-14.724c.92.029 1.858.045 2.813.045 1.012 0 2.007-.018 2.983-.05l.483 15.351.348-.347.413-8.034c0-.161.018-.296.048-.404.158.036.303.271.302.686l.415 11.267.346-.346.421-9.735c.005-.14.025-.256.057-.354.2-.002.402.237.411.702L27.42 56l.347-.348.506-21.605c6.838-.596 12.029-1.976 13.315-3.56.427-.36.656-.731.656-1.109-.097-2.104-6.422-3.729-13.872-3.378z" mask="url(#sdqytmsdtb)"/>
                    </g>
                    <g transform="translate(-636.000000, -966.000000) translate(-36.000000, 966.000000) translate(672.625000, 0.000000) translate(0.291667, 0.000000)">
                        <mask id="r5pzt5foyd" fill="#fff">
                            <use xlink:href="#742v7fv0lc"/>
                        </mask>
                        <path fill="#CE1141" fill-rule="nonzero" d="M28.011 31.83l.07-5.783c5.287.682 9.638 1.44 9.638 2.697 0 1.441-3.962 2.574-9.708 3.085m-10.196.244l.04-1.25c-.096-3.26.116-7.372.173-11.755 2.624.27 6.006.984 5.95 2.871l-.096 10.138c-.966.032-1.962.049-2.98.049-1.056 0-2.088-.018-3.087-.053m-13.6-3.33c0-1.298 4.797-1.984 9.6-2.706-.005 1.545-.029 3.229-.078 5.081l.022.706c-5.678-.514-9.543-1.644-9.543-3.08M24.91 12.576c.573 4.251-3.763 5.65-6.878 6.107.033-3.052-.014-6.227-.298-9.33 3.679.352 6.909 1.234 7.176 3.223m17.041 16.802c-.096-2.104-6.421-3.729-13.871-3.378l.059-5.011c-.008-3.102-4.255-2.8-5.687-2.61 1.671-.302 7.258-1.697 6.914-6.814-.23-3.399-4.48-5.092-11.527-4.408l-.345.035C17.165 4.68 16.65 2.247 15.866 0c-.98 3.038-1.548 5.434-1.866 7.667-4.367.729-7.455 1.74-7.455 1.74s3.4-.308 7.276-.253c-.438 4.471.021 8.716-.006 16.854-7.406-.26-13.836 1.181-13.758 3.37.066 1.917 5.76 3.678 13.761 4.35l.34 10.864.563-7.368c.017-.914.713-.83.713-.045l.249 9.705.596-7.899c-.009-1.065.737-1.015.711-.06l.276 10.116.488-15.08c1.026.036 2.078.055 3.149.055 1.011 0 2.007-.017 2.983-.05l.483 15.35.413-8.034c.006-1.025.699-.971.697-.064l.415 11.267.42-9.735c.033-.957.797-.914.815 0l.347 12.902.513-21.908v-.013c8.09-.67 13.963-2.433 13.963-4.353" mask="url(#r5pzt5foyd)"/>
                    </g>
                </g>
            </g>
        </g>
    </g>
</svg>
