<svg xmlns="http://www.w3.org/2000/svg" width="56" height="56" viewBox="0 0 56 56">
    <g fill="none" fill-rule="evenodd">
        <g fill-rule="nonzero">
            <g>
                <g>
                    <g>
                        <path fill="#9EA2A2" d="M54.71 36.349l.01.012-.284.822C50.526 48.438 39.9 56 27.994 56c-3.12 0-6.21-.524-9.181-1.556C4.233 49.382-3.511 33.401 1.549 18.82 5.461 7.562 16.088 0 27.993 0c3.12 0 6.21.523 9.183 1.556C51.48 6.523 59.201 21.996 54.71 36.349" transform="translate(-96.000000, -967.000000) translate(-36.000000, 966.000000) translate(132.000000, 1.000000) translate(28.000000, 28.000000) scale(-1, 1) rotate(-180.000000) translate(-28.000000, -28.000000) translate(0.000000, -0.000000)"/>
                        <path fill="#0C2340" d="M27.993.988c-11.485 0-21.736 7.296-25.51 18.154-4.882 14.068 2.59 29.486 16.654 34.37 2.867.995 5.847 1.5 8.856 1.5 11.487 0 21.739-7.295 25.51-18.154l.128-.367-.004-.004C58.254 22.52 50.794 7.33 36.853 2.489c-2.87-.996-5.85-1.5-8.86-1.5" transform="translate(-96.000000, -967.000000) translate(-36.000000, 966.000000) translate(132.000000, 1.000000) translate(28.000000, 28.000000) scale(-1, 1) rotate(-180.000000) translate(-28.000000, -28.000000) translate(0.000000, -0.000000)"/>
                        <path fill="#236192" d="M30.792 40.13c-.149.014-.32.025-.512.039-.985.066-2.552.188-4.44.839-.385-.426-.702-.875-.94-1.253.484-.503 1.407-1.47 1.865-1.984.79-.476 1.583-.992 2.369-1.542 1.252 1.409 2.364 2.552 3.46 3.7-.532.076-1.084.14-1.66.188l-.142.012M19.07 35.473c-2.082-2.93-3.565-6.756-3.708-11.323 2.224 2.45 4.055 4.72 5.304 5.921.865.832 1.74 1.4 2.531 1.79-.828 1.91-1.922 3.47-3.4 4.216-.273-.198-.52-.4-.727-.604M24.99 42.6c1.237.504 2.58 1.019 3.876 1.452 1.636.597 3.089.926 4.219 1.1-.03.009-.06.02-.09.028-.803.234-1.609.41-2.415.528-2.214.326-4.418.224-6.515-.25-.121-.39-.285-1.15-.011-1.841.165-.417.485-.754.936-1.017M22.418 37.573c-.49-.234-1.026-.506-1.543-.806 1.456-.955 2.54-2.57 3.364-4.468 1.158.402 1.957.41 1.957.41.778.99 1.496 1.857 2.17 2.641-.779.544-1.562 1.054-2.343 1.521-.857.309-2.903.606-3.605.702" transform="translate(-96.000000, -967.000000) translate(-36.000000, 966.000000) translate(132.000000, 1.000000) translate(28.000000, 28.000000) scale(-1, 1) rotate(-180.000000) translate(-28.000000, -28.000000) translate(0.000000, -0.000000)"/>
                        <path fill="#236192" d="M26.83 41.883c1.458-.427 2.663-.515 3.528-.573.204-.015.385-.027.543-.042l.129-.011c.562-.048 1.348-.137 2.274-.303.688.844 1.52 1.37 2.08 1.493.66-.247.997-.633 1.237-1.182.915-.384 1.527-1.059 1.93-1.866 2.117-.922 4.245-2.287 5.87-4.308-1.703 3.941-4.807 7.248-8.882 9.136v-.021c-.05.001-3.812.087-8.467-2.17-.082-.048-.163-.1-.242-.153" transform="translate(-96.000000, -967.000000) translate(-36.000000, 966.000000) translate(132.000000, 1.000000) translate(28.000000, 28.000000) scale(-1, 1) rotate(-180.000000) translate(-28.000000, -28.000000) translate(0.000000, -0.000000)"/>
                        <path fill="#236192" d="M45.825 29.483c-.46 2.122-1.959 6.031-6.787 8.506.543-2.432-.073-5.196-.073-5.196s1.323-.765 1.644-2.225c0 0 .176-.075.315-.29.37-.453.84-1.5.083-3.555 0 0-.45.96-1.402-.074l-.239-.34c1.813-2.494 3.194-5.098 3.897-7.64.806 1.322 1.457 2.77 1.91 4.329.632 2.169.83 4.36.652 6.485M14.193 22.889c-.06 2.566.283 5.04 1.034 7.404.63 1.982 1.478 3.658 2.38 5.054.138.27.367.694.639 1.185-3.445.368-6.567-3.305-7.78-4.948-.794-3.866-.267-7.741 1.302-11.118.843.79 1.653 1.608 2.425 2.423M36.87 18.454c-.037-1.714.808-3.035 1.435-5.073 1.554 1.095 2.94 2.439 4.089 3.996-.517 2.56-1.862 5.265-3.72 7.885-1.166-1.896-1.74-3.68-1.805-6.808M21.682 41.182c.582.261 1.29.573 2.075.905-.342.318-.602.69-.77 1.119-.267.681-.257 1.373-.17 1.922-2.556-.776-4.917-2.114-6.893-3.916.086 0 .183-.003.274-.005 1.695.1 4.106.03 5.484-.025" transform="translate(-96.000000, -967.000000) translate(-36.000000, 966.000000) translate(132.000000, 1.000000) translate(28.000000, 28.000000) scale(-1, 1) rotate(-180.000000) translate(-28.000000, -28.000000) translate(0.000000, -0.000000)"/>
                        <path fill="#236192" d="M18.84 37.593c.24.426.483.853.704 1.24-.949.623-1.542 1.074-3.177 1.221-.672.019-1.234-.002-1.629-.03-1.484-1.632-2.68-3.563-3.492-5.732 1.819 1.887 4.555 3.895 7.594 3.3" transform="translate(-96.000000, -967.000000) translate(-36.000000, 966.000000) translate(132.000000, 1.000000) translate(28.000000, 28.000000) scale(-1, 1) rotate(-180.000000) translate(-28.000000, -28.000000) translate(0.000000, -0.000000)"/>
                        <path fill="#78BE20" d="M24.502 41.424l-1.238-1.795s.936-.65 1.705-1.528c-1.346.275-2.824.523-2.824.523l-2.342-1.273 1.098 1.821s-.739.632-1.59 1.18c.933-.026 2.71-.173 2.71-.173l2.48 1.245M25.5 30.706s-.326-.9-.368-1.735c0 0-2.038-.3-3.018-.968 0 0 2.034 2.027 3.386 2.703" transform="translate(-96.000000, -967.000000) translate(-36.000000, 966.000000) translate(132.000000, 1.000000) translate(28.000000, 28.000000) scale(-1, 1) rotate(-180.000000) translate(-28.000000, -28.000000) translate(0.000000, -0.000000)"/>
                        <path fill="#FFF" d="M39.229 30.796c.226.056.395.064.521.056-.037.104-.107.259-.234.413-.18.218-.442.382-.442.382.169-.26.175-.62.155-.85M37.39 29.869c.264.181.503.33.722.453-.04.095-.101.23-.194.395-.174.312-.63.585-.63.585.188-.557.148-1.12.102-1.433" transform="translate(-96.000000, -967.000000) translate(-36.000000, 966.000000) translate(132.000000, 1.000000) translate(28.000000, 28.000000) scale(-1, 1) rotate(-180.000000) translate(-28.000000, -28.000000) translate(0.000000, -0.000000)"/>
                        <path fill="#9EA2A2" d="M15.532 16.114c-1.733-.708-5.832.258-5.832.258 4.142.237 8.192 3.205 8.192 3.205l-.01-.022c-1.214-1.862-2.888-2.94-2.888-2.94.185-.235.371-.392.538-.501" transform="translate(-96.000000, -967.000000) translate(-36.000000, 966.000000) translate(132.000000, 1.000000) translate(28.000000, 28.000000) scale(-1, 1) rotate(-180.000000) translate(-28.000000, -28.000000) translate(0.000000, -0.000000)"/>
                        <path fill="#78BE20" d="M36.181 40.824s-1.018.798-2.174-.44c1.239 2.256 1.954.963 2.174.44" transform="translate(-96.000000, -967.000000) translate(-36.000000, 966.000000) translate(132.000000, 1.000000) translate(28.000000, 28.000000) scale(-1, 1) rotate(-180.000000) translate(-28.000000, -28.000000) translate(0.000000, -0.000000)"/>
                        <path fill="#9EA2A2" d="M40.21 29.89s-.106.072-.129.084c-.645.344-1.8-.658-2.554-1.074-.754-.415-1.853-1.3-2.39-.081-.536 1.219.698 3.125 1.125 4.324.943 2.652.978 4.213.778 5.058.872-.984 1.146-2.87 1.146-2.87s.324 3.543-1.408 4.475c.04-.125-.005-.567-.041-.915l-.006.007c-.807-.147-2.586.055-3.163.358-2.188-2.347-4.574-5.612-6.37-8.611-.778-1.586-1.541-3.447-1.732-4.958 0 0-.248.683-.306 1.595-.994-.384-4.37-2.043-5.093-7.132 0 0 2.147 2.214 4.52 3.078 0 0-1.504-3.936 1.365-10.911 0 0 1.16 4.277 3.59 5.356 1.47-7.304 5.782-7.424 7.039-12.393 0 0 1.317 2.574-.268 6.95 0 0 .547-.153 1.01-.7 0 0-.072 1.28-1.268 4.042-.78 1.478-1.024 3.473-1.024 3.473-.7-.635-.88-2.778-.88-2.778-2.14 5.807 3.935 11.561 5.044 12.41.541.416.875.422 1.077.323.208.432.19.709-.061.89" transform="translate(-96.000000, -967.000000) translate(-36.000000, 966.000000) translate(132.000000, 1.000000) translate(28.000000, 28.000000) scale(-1, 1) rotate(-180.000000) translate(-28.000000, -28.000000) translate(0.000000, -0.000000)"/>
                        <path fill="#9EA2A2" d="M44.055 40.17c-3.256 4.297-7.981 7.067-13.308 7.801-.92.127-1.854.192-2.776.192-10.005 0-18.58-7.485-19.948-17.41-.569-4.121.13-8.223 1.977-11.853.231.192.46.389.688.588-1.694 3.425-2.328 7.276-1.794 11.145 1.308 9.493 9.51 16.65 19.077 16.65.882 0 1.775-.06 2.656-.182 5.094-.703 9.614-3.352 12.728-7.462 3.114-4.11 4.442-9.178 3.74-14.272-.775-5.621-3.967-10.423-8.427-13.405.06-.3.113-.614.158-.945 4.835 3.1 8.31 8.216 9.14 14.23.734 5.326-.655 10.626-3.91 14.923" transform="translate(-96.000000, -967.000000) translate(-36.000000, 966.000000) translate(132.000000, 1.000000) translate(28.000000, 28.000000) scale(-1, 1) rotate(-180.000000) translate(-28.000000, -28.000000) translate(0.000000, -0.000000)"/>
                        <path fill="#FFF" d="M15.246 46.827c-.53 0-.96.43-.96.96s.43.959.96.959.96-.43.96-.96-.43-.96-.96-.96m0 2.72c-.971 0-1.759-.788-1.759-1.76 0-.971.788-1.758 1.76-1.758.97 0 1.758.787 1.758 1.758 0 .972-.787 1.76-1.759 1.76M11.303 45.154l-.412-.23c-.152-.086-.24-.09-.324-.012-.1.09-.081.23.048.374l.002.002c.148.161.31.244.514.26l.068.005-.052.784-.067-.002c-.383-.011-.744-.199-1.073-.557-.207-.227-.334-.494-.358-.755-.028-.305.084-.583.325-.804.373-.34.811-.364 1.34-.069l.368.204c.191.107.315.148.417.054.122-.111.093-.269-.087-.467-.001-.002-.002-.005-.004-.006-.238-.259-.506-.278-.687-.27l-.066.002-.083-.853.072-.004c.284-.015.841.046 1.37.624l.014.016c.269.299.412.595.427.88.015.295-.108.563-.365.798-.381.35-.796.357-1.387.026M6.119 27.053L6.101 27.821 2.679 27.74 2.697 26.971 6.119 27.053M9.258 39.296L10.549 41.232 9.914 41.656 9.049 40.359 8.572 40.677 9.317 41.794 8.681 42.218 7.936 41.101 7.466 41.414 8.331 42.711 7.701 43.131 6.41 41.195 9.258 39.296M20.491 48.534L19.488 51.014 20.372 51.372 20.091 52.066 17.611 51.062 17.892 50.368 18.775 50.725 19.779 48.247 20.491 48.534M6.418 37.318L4.007 36.218 3.959 36.103 7.156 34.796 7.445 35.505 5.784 36.184 8.206 37.288 8.253 37.404 5.057 38.71 4.764 37.994 6.418 37.318M4.845 32.195L2.752 30.568 2.733 30.445 6.144 29.911 6.263 30.667 4.49 30.945 6.592 32.577 6.611 32.701 3.2 33.235 3.08 32.471 4.845 32.195M33.959 48.964L34.696 48.745 35.67 52.027 34.933 52.246 33.959 48.964M52.744 22.782L52.919 23.531 49.585 24.309 49.066 22.085 49.825 21.908 50.169 23.383 52.744 22.782M51.544 26.91c-.53 0-.96.43-.96.96s.43.96.96.96.96-.43.96-.96-.43-.96-.96-.96m0 2.719c-.972 0-1.76-.787-1.76-1.759 0-.971.788-1.758 1.76-1.758.971 0 1.759.787 1.759 1.758 0 .972-.788 1.759-1.76 1.759M44.605 42.157L46.049 40.332 46.648 40.806 45.681 42.029 46.13 42.384 46.963 41.332 47.563 41.806 46.729 42.858 47.172 43.209 48.139 41.987 48.734 42.457 47.289 44.282 44.605 42.157M46.975 17.135L45.731 15.168 46.376 14.76 47.209 16.077 47.694 15.771 46.977 14.636 47.622 14.228 48.34 15.362 48.817 15.061 47.984 13.743 48.624 13.338 49.868 15.305 46.975 17.135M31.368 49.545L31.719 52.197 32.665 52.071 32.763 52.813 30.11 53.165 30.011 52.423 30.957 52.297 30.606 49.646 31.368 49.545M49.888 19.151L51.746 19.238 52.062 20.029 48.275 19.857 48.233 19.754 50.858 17.017 51.172 17.802 49.888 19.151M38.968 48.761L38.36 51.064 38.356 51.081 38.257 51.133 36.656 48.068 37.334 47.713 38.071 49.126 38.42 47.817 38.509 47.771 39.78 48.234 39.042 46.821 39.726 46.465 41.326 49.53 41.223 49.584 38.968 48.761M4.964 22.957L3.573 21.023 3.563 21.009 3.586 20.899 6.97 21.613 6.812 22.362 5.253 22.032 6.041 23.134 6.02 23.231 4.854 23.919 6.413 24.248 6.254 25.002 2.87 24.287 2.895 24.172 4.964 22.957M51.174 32.499L52.62 33.712 52.592 33.828 50.749 34.261 52.221 35.235 52.031 36.026 48.969 33.993 48.998 33.874 51.06 33.395 49.441 32.037 49.47 31.917 53.122 31.504 52.932 32.292 51.174 32.499M49.131 38.338l-.217.44.857.423.217-.44c.155-.316.082-.534-.197-.672-.282-.14-.505-.066-.66.25m-.147-.792c.293-.31.776-.352 1.203-.142.64.316.842.95.486 1.672l-.565 1.147-3.07-1.513.338-.69 1.422.7-.971-1.613.404-.821s.703 1.182.753 1.26M42.944 44.88l-.5.435.406.468.471-.41c.194-.168.24-.368.117-.509-.123-.14-.321-.135-.494.015m.749 1.874l.427-.37c.18-.156.206-.302.081-.445-.152-.176-.343-.074-.476.041l-.402.349.37.425zm.575-1.64c.193.052.37.163.51.324.217.248.304.553.248.857-.046.247-.182.471-.405.665l-.427.371-.576.502-.502-.578-.342-.393-.027-.032-.474-.545-.028-.032-.378-.436-.502-.577.577-.502.5-.434c.22-.19.477-.296.744-.305.317-.01.62.123.829.365.183.21.27.477.253.75M43.749 12.946c.14.14.31.262.508.357.374.182.923.186.984.186l-.002-.776c-.163 0-.482-.03-.644-.109-.24-.117-.413-.294-.46-.473-.032-.12.013-.216.065-.266.057-.053.129-.065.215-.037.066.022.192.084.314.143.28.137.595.293.864.321.292.03.564-.06.767-.254.24-.23.332-.558.317-.78-.015-.236-.125-.682-.692-1.032-.331-.204-.798-.267-.85-.273l-.097.77c.134.017.39.092.54.164.403.197.41.651.095.633-.13-.008-.413-.153-.6-.245-.16-.079-.298-.146-.416-.185-.357-.117-.726-.038-.99.21-.274.26-.383.653-.284 1.03.06.224.187.436.366.616M23.787 51.119L24.833 49.581 25.673 49.726 23.543 52.862 23.433 52.844 22.477 49.175 23.31 49.319 23.787 51.119" transform="translate(-96.000000, -967.000000) translate(-36.000000, 966.000000) translate(132.000000, 1.000000) translate(28.000000, 28.000000) scale(-1, 1) rotate(-180.000000) translate(-28.000000, -28.000000) translate(0.000000, -0.000000)"/>
                    </g>
                </g>
            </g>
        </g>
    </g>
</svg>
