<svg xmlns="http://www.w3.org/2000/svg" width="56" height="62" viewBox="0 0 56 62">
    <g fill="none" fill-rule="evenodd">
        <g fill="#FFCC3E">
            <path d="M47.651 963.975c-.017-.014-.046-.05-.064-.08-.035-.057-.027.037-.107-1.273-.005-.098-.026-.263-.044-.368-.022-.12-.048-.368-.072-.674-.022-.284-.054-.585-.076-.729-.028-.177-.039-.288-.038-.402.001-.201-.009-.288-.04-.358-.034-.076-.068-.62-.044-.718.03-.121.004-.166-.064-.116-.029.022-.074.035-.075.021-.001-.019.045-.126.081-.188l.044-.075-.069-.07c-.103-.105-.144-.173-.149-.248-.004-.065-.005-.065-.05-.063-.024 0-.08-.004-.124-.011-.043-.008-.086-.009-.095-.002-.022.015-.002.026.1.055.06.017.079.03.08.05.001.015-.008.03-.021.033-.039.01-.156-.057-.178-.1-.011-.023-.045-.055-.076-.073-.07-.04-.077-.074-.037-.153.06-.116.024-.11-.095.02-.056.06-.148.136-.235.195-.08.052-.174.122-.21.153-.035.032-.072.058-.083.059-.028.001-.053-.026-.055-.06-.002-.024.015-.04.075-.073.102-.056.122-.076.129-.132.005-.044.008-.047.05-.042.111.014.19-.076.179-.204-.005-.056 0-.075.028-.108.046-.053.092-.055.106-.005.015.057.044.058.129.007.084-.05.142-.06.177-.03.032.029.032.074-.003.166-.016.044-.026.083-.021.087.005.004.037-.006.072-.021.112-.05.107-.051.121.01.019.078.049.087.133.039.038-.022.069-.048.068-.058 0-.01-.018-.036-.038-.057-.021-.021-.039-.055-.04-.078-.004-.06-.027-.073-.082-.043-.07.039-.095.019-.097-.082-.004-.129.002-.144.048-.13.021.006.067.035.101.064.04.033.067.048.074.04.01-.011.013-.254.004-.254l-.06.038c-.067.044-.105.05-.164.024-.063-.027-.074-.055-.057-.142.009-.04.013-.113.01-.16-.004-.065 0-.086.015-.086.038-.003.066.037.07.099.003.051.008.06.031.059.017-.001.04-.023.059-.055l.03-.054-.081-.066c-.077-.062-.17-.103-.188-.083-.004.005-.01.035-.012.067-.004.053-.009.06-.055.075-.096.034-.097.064-.003.104.062.027.064.032.048.132-.01.074-.036.109-.086.12-.042.008-.04.03.006.049.042.017.051.055.02.084-.013.012-.043.017-.095.014-.115-.006-.147-.022-.168-.088-.015-.045-.03-.061-.076-.083-.057-.027-.058-.03-.052-.085l.01-.105c.006-.057.021-.082.064-.101.052-.024.03-.067-.055-.104-.025-.01-.04-.009-.069.008-.056.033-.077.065-.154.233-.04.087-.079.154-.09.154-.023.002-.174-.184-.242-.296-.051-.085-.096-.207-.1-.274-.003-.05-.025-.068-.052-.042-.012.01-.018.043-.015.083.003.055 0 .068-.024.077-.016.006-.042.002-.062-.01-.02-.01-.044-.018-.055-.018-.01.001-.024-.015-.03-.036-.004-.02-.018-.056-.03-.079-.019-.039-.017-.05.014-.12.055-.129.015-.174-.145-.164-.06.004-.07 0-.094-.035-.03-.047-.058-.048-.158-.005-.133.057-.41.13-.52.136-.093.006-.111.003-.166-.03-.053-.032-.06-.041-.054-.072.024-.117.01-.2-.069-.423-.106-.298-.13-.434-.113-.63.008-.083.013-.17.011-.192-.005-.074-.054-.197-.108-.273-.047-.065-.054-.084-.06-.166-.004-.066-.014-.108-.037-.145l-.031-.052-.08.013c-.071.012-.087.01-.173-.03-.053-.023-.119-.045-.146-.048-.097-.012-.1-.077-.007-.195.065-.082.071-.114.033-.17-.016-.026-.047-.088-.068-.14-.028-.069-.055-.109-.107-.157-.087-.08-.097-.105-.082-.216.013-.097.005-.12-.078-.219-.047-.055-.05-.108-.013-.183.048-.092.047-.14-.002-.287-.053-.158-.055-.178-.024-.271.026-.08.019-.125-.026-.158-.043-.032-.037-.057.033-.135.036-.04.071-.093.078-.12.018-.066.006-.186-.025-.268-.014-.036-.026-.07-.026-.076 0-.005.028.001.063.014.06.022.067.022.111-.003.026-.014.047-.03.047-.036 0-.005.042-.062.095-.127.114-.138.128-.184.106-.345-.019-.14-.068-.255-.16-.374-.08-.104-.09-.14-.056-.215.022-.046.021-.056-.002-.131-.013-.045-.045-.126-.071-.18-.026-.054-.053-.13-.061-.17-.014-.069-.02-.078-.135-.175-.134-.113-.227-.243-.193-.268.01-.007.04-.011.064-.009.037.004.048-.001.06-.028.024-.05-.003-.189-.052-.279-.036-.065-.042-.089-.038-.15.006-.097-.018-.127-.063-.08-.017.018-.032.03-.035.027l-.032-.043c-.025-.033-.034-.036-.08-.027-.087.017-.118-.053-.033-.075.04-.011.053-.041.049-.118-.002-.024.007-.065.02-.09.044-.087.04-.122-.023-.282-.033-.081-.066-.152-.074-.156-.031-.016-.078-.115-.077-.164l.001-.05-.065.008c-.056.007-.068.004-.09-.025-.034-.045-.022-.07.043-.092.093-.031.093-.055.003-.217-.106-.193-.12-.23-.131-.369l-.013-.14c-.002-.011-.026-.04-.053-.064-.05-.043-.05-.044-.035-.1.016-.058.01-.08-.056-.224-.013-.03-.026-.079-.028-.11-.005-.058-.03-.088-.088-.101-.038-.01-.042-.039-.017-.14.018-.07.018-.074-.008-.099-.015-.014-.049-.028-.076-.032-.048-.005-.048-.006-.044-.064.005-.064-.012-.088-.061-.085-.055.003-.055-.026.002-.079.057-.053.064-.084.033-.152-.01-.02-.032-.051-.05-.068-.018-.016-.04-.06-.05-.1-.018-.065-.021-.07-.065-.07l-.047-.002.005-.071c.003-.04.013-.093.022-.119.02-.061.02-.068-.013-.083-.024-.01-.04 0-.103.061-.078.076-.095.084-.142.063-.022-.01-.028-.027-.033-.091-.004-.077-.003-.08.043-.105.054-.03.124-.038.18-.02.021.006.04.01.042.007.003-.003-.021-.06-.052-.129-.031-.068-.093-.238-.138-.378-.045-.14-.087-.254-.093-.254-.005 0-.045.037-.088.081-.044.045-.092.081-.108.082-.016.001-.04.019-.055.039-.033.048-.084.046-.087-.002-.002-.03.005-.036.055-.045l.058-.01-.03-.058c-.037-.067-.041-.097-.019-.122.024-.026.067-.024.105.007.04.033.053.023.068-.053.014-.066.01-.072-.05-.08-.07-.008-.087-.031-.073-.102.006-.033.005-.064-.001-.07-.007-.006-.005-.03.005-.052.047-.109.01-.354-.065-.437-.03-.033-.048-.038-.167-.048-.07-.006-.083-.04-.034-.083.016-.014.049-.047.073-.073.054-.057.06-.027-.11-.463-.07-.18-.147-.382-.168-.449-.022-.066-.053-.132-.067-.146-.027-.025-.028-.025-.07.021-.053.057-.08.06-.12.015-.05-.055-.041-.108.03-.168.086-.073.088-.087.038-.215-.023-.06-.052-.14-.063-.18-.027-.09-.059-.113-.155-.115-.09-.001-.124.023-.133.098-.004.027-.013.045-.023.042-.009-.003-.052-.01-.096-.016-.045-.007-.081-.018-.082-.026-.002-.038.1-.124.192-.16.053-.022.11-.055.13-.078.062-.07.035-.159-.07-.232-.024-.017-.034-.037-.036-.077-.004-.05-.006-.053-.045-.05-.035.002-.042-.004-.044-.032-.001-.02.009-.04.025-.05.049-.03.05-.07.007-.172-.079-.183-.094-.196-.226-.203-.09-.005-.132-.049-.132-.143v-.07l.072-.009c.061-.007.073-.013.078-.039.007-.04-.032-.142-.084-.218-.034-.05-.047-.059-.07-.05-.101.035-.1.035-.113-.033-.009-.05-.023-.075-.067-.113-.052-.047-.055-.052-.053-.126.001-.068-.002-.078-.032-.095-.045-.025-.055-.118-.014-.143.06-.037.11.033.075.107-.018.039-.003.048.038.023.053-.032.052-.075-.002-.175-.026-.049-.07-.159-.096-.244-.026-.085-.054-.162-.062-.17-.04-.044-.094.003-.089.076.003.045-.016.046-.04.003-.032-.06-.029-.149.007-.196.017-.024.03-.057.03-.075-.003-.038-.149-.411-.26-.66-.1-.228-.223-.528-.287-.698-.063-.168-.083-.192-.17-.196-.075-.004-.076-.005-.05-.126.023-.108.006-.173-.102-.381-.045-.086-.137-.304-.206-.487-.126-.334-.167-.434-.258-.617l-.064-.13c-.008-.018-.04-.04-.078-.053-.077-.027-.086-.062-.033-.125l.036-.041-.029-.042c-.015-.024-.074-.147-.131-.276-.265-.603-.264-.6-.351-.63-.04-.014-.047-.022-.04-.048.023-.092.02-.102-.06-.178-.063-.06-.076-.08-.07-.109.016-.089.014-.113-.016-.181l-.15-.333c-.064-.143-.17-.385-.236-.537-.069-.16-.156-.337-.206-.417-.055-.088-.11-.201-.148-.303-.062-.167-.098-.239-.157-.308-.018-.021-.045-.076-.06-.121-.016-.046-.074-.16-.129-.255-.069-.117-.107-.2-.123-.263-.027-.114-.055-.161-.11-.185-.03-.013-.043-.028-.045-.052-.003-.04-.048-.083-.106-.099-.04-.01-.042-.015-.038-.068.016-.177.022-.155-.115-.429-.071-.141-.149-.29-.172-.33-.048-.079-.05-.08-.178-.05-.07.017-.121.006-.123-.026-.003-.035.02-.052.088-.068.097-.022.099-.038.025-.184-.062-.123-.55-1.025-.897-1.661-.377-.69-1.054-1.844-1.182-2.018-.032-.043-.07-.105-.084-.138-.032-.075-.059-.093-.132-.088-.07.004-.1-.02-.118-.1l-.013-.057.05-.003c.063-.003.062-.015-.006-.131-.072-.121-.17-.206-.276-.237-.061-.018-.083-.03-.084-.05-.003-.037.03-.047.074-.022.027.015.042.016.054.005.014-.013.002-.042-.06-.15-.043-.075-.102-.156-.131-.18-.034-.03-.06-.07-.074-.109-.02-.06-.13-.23-.216-.335-.034-.04-.057-.055-.104-.062l-.061-.01.003-.077c.005-.133-.045-.213-.165-.265-.051-.022-.054-.025-.058-.094-.003-.046-.017-.093-.04-.131-.044-.076-.154-.222-.166-.222-.019 0-.038.106-.032.18.003.04.015.145.026.23.014.115.017.207.009.343-.01.158-.002.324.05 1.115.06.91.061.93.04 1.053-.028.155-.024.25.042.93l.103 1.111c.05.552.067.693.152 1.184.02.115.044.311.054.435.018.247.012.281-.063.347-.07.061-.188.023-.24-.077-.012-.024-.034-.15-.053-.298-.032-.247-.038-.406-.027-.64.003-.063-.005-.184-.018-.28-.035-.259-.115-.978-.178-1.6-.031-.308-.07-.654-.086-.77-.044-.314-.063-.657-.05-.895.01-.182.004-.33-.055-1.217-.036-.556-.073-1.05-.08-1.1-.008-.049-.015-.21-.015-.358 0-.33-.004-.34-.176-.55-.067-.082-.16-.207-.208-.28-.047-.072-.132-.193-.188-.27-.148-.2-.457-.65-.486-.706-.014-.027-.033-.105-.044-.173-.012-.084-.037-.168-.077-.263-.08-.19-.147-.421-.154-.529-.008-.115-.024-.148-.118-.234-.054-.05-.082-.087-.092-.121-.016-.064-.057-.067-.085-.005-.02.046-.046.055-.075.024-.016-.016-.015-.029.007-.074.036-.073.03-.133-.02-.195-.056-.07-.082-.08-.122-.044-.098.086-.217-.019-.143-.124.037-.054.049-.13.03-.185-.01-.026-.045-.087-.079-.135-.068-.096-.08-.147-.04-.172.036-.022.039-.021.08.018.045.042.053.035.03-.03-.02-.06-.055-.074-.163-.067-.042.003-.076 0-.077-.007 0-.006.023-.035.052-.064.076-.076.068-.1-.048-.147-.077-.031-.102-.05-.125-.089-.032-.055-.03-.131.004-.134.024-.001.024-.016 0-.061-.017-.031-.016-.038.015-.067.073-.07.076-.127.01-.255-.025-.049-.052-.111-.058-.139-.009-.033-.026-.058-.05-.071-.034-.02-.041-.02-.112.01-.064.026-.077.027-.084.012-.004-.01-.023-.033-.042-.05-.033-.028-.036-.028-.085-.003-.028.014-.07.03-.092.037-.035.01-.041.02-.044.066-.004.052-.006.055-.053.058-.04.002-.05-.002-.055-.028-.009-.043.017-.072.066-.075.042-.003.042-.003.03-.064-.007-.034-.018-.078-.024-.098l-.012-.037.035.027c.058.044.068.044.113 0 .116-.114.181-.142.26-.112.03.011.041.01.062-.012.02-.02.038-.025.077-.02.06.007.089-.014.086-.061-.002-.03-.008-.032-.06-.029-.054.003-.066-.003-.145-.076-.047-.045-.086-.092-.087-.105-.002-.04.053-.09.143-.13.073-.03.147-.096.129-.113-.004-.002-.041.008-.084.023-.102.036-.16.028-.238-.034l-.062-.05-.042.03c-.055.037-.056.037-.06-.008-.001-.02-.012-.059-.024-.085l-.02-.048.11-.016c.103-.014.249-.054.265-.072.004-.004-.008-.023-.025-.042-.053-.058-.04-.09.023-.061.04.017.038.063-.005.155-.043.093-.033.126.04.137.025.004.067.017.093.03.026.014.047.02.046.014 0-.007.006-.054.014-.106.016-.108.048-.166.106-.195.025-.012.051-.04.065-.073.027-.062.073-.106.138-.131.037-.015.047-.026.045-.052-.003-.048-.039-.053-.098-.015-.035.022-.074.033-.125.036-.074.004-.074.004-.034-.016.022-.012.07-.048.105-.082.05-.045.082-.064.131-.073.084-.016.099-.037.081-.11l-.023-.099c-.007-.031-.001-.052.025-.087.019-.025.039-.046.044-.046.018-.001.177.128.178.144 0 .01-.013.04-.03.069-.042.07-.04.082.018.078.057-.003.096-.054.077-.1-.013-.036.01-.07.05-.072.064-.004.082-.037.073-.127-.007-.062-.004-.083.01-.084.032-.002.065.028.096.09.043.084.109.13.18.126.076-.005.196-.045.3-.1.073-.04.093-.046.141-.038.078.013.12-.013.135-.083.01-.046.019-.057.05-.063.051-.009.078.015.082.073.002.027.017.069.033.092.032.045.217.182.265.196.037.01.09-.044.097-.1.016-.116.04-.139.106-.101.045.025.048.073.008.14-.017.03-.03.066-.03.08.004.046.076.164.105.172.026.006.063 0 .307-.053.152-.033.237.003.138.058-.02.01-.036.024-.035.03 0 .017.156.074.193.072.021-.001.057-.025.093-.062l.058-.06.003.04c.001.021.018.066.038.098.045.076.124.11.29.123.146.012.18.025.213.078.022.037.027.038.092.026.076-.013.073-.017.098.118.01.06.008.07-.028.108-.034.035-.037.045-.023.068.01.015.022.027.029.027.007 0 .041.025.076.058.036.032.083.065.107.072l.041.015-.026.028-.056.055c-.041.037-.013.066.05.052.058-.013.101.02.12.094.035.142.105.19.266.18.114-.008.127.003.108.093-.015.076 0 .1.144.21.133.101.182.122.299.127l.084.002.011.068c.015.086.02.093.103.134.037.018.215.13.395.25.663.44 2.994 1.876 4.645 2.861.422.252.901.54 1.065.64.928.567 3.606 2.282 4.928 3.155.489.323.711.467 1.46.947.608.388 1.177.792 2.163 1.534.288.217.561.416.608.443.046.027.11.072.14.1.082.075.102.076.162.01.071-.077.075-.128.014-.207-.066-.085-.062-.122.017-.165.086-.047.088-.054.14-.514.016-.144.073-.534.125-.865.128-.807.157-1 .19-1.294.014-.136.038-.317.052-.4.018-.105.024-.196.02-.29-.007-.121-.004-.144.025-.2.018-.035.035-.081.039-.103.01-.062-.03-.143-.107-.217-.074-.07-.085-.102-.043-.131.033-.024.065-.003.12.08l.046.068.009-.108c.004-.06.018-.14.03-.18.02-.073.02-.074-.01-.11-.018-.02-.045-.037-.06-.039-.043-.003-.064-.031-.062-.083 0-.045.002-.046.067-.047.13-.001.175-.048.126-.134-.016-.03-.031-.08-.033-.114-.004-.054.001-.066.057-.126l.062-.066-.005-.213c-.005-.175-.001-.224.019-.276.022-.054.022-.071.006-.125-.018-.06-.017-.066.027-.147.06-.112.065-.192.017-.3-.02-.044-.043-.11-.052-.148-.008-.037-.02-.078-.026-.09-.015-.03-.006-.03.063 0 .031.012.069.043.084.066l.027.043.001-.048c0-.027.017-.108.036-.18.041-.157.042-.29.001-.325-.023-.02-.021-.025.034-.079.044-.044.062-.075.075-.133.022-.097.014-.209-.02-.292-.04-.1-.034-.134.037-.18.081-.054.083-.09.007-.134-.032-.02-.063-.046-.068-.059-.01-.024.038-.127.106-.224.058-.083.084-.166.079-.252-.004-.072 0-.082.048-.139.057-.066.058-.077.018-.233-.01-.04-.003-.062.033-.132.06-.112.088-.206.124-.413.017-.095.042-.23.058-.298.038-.174.039-.193.011-.212-.02-.015-.027-.013-.047.007-.013.013-.033.024-.045.025-.018.001-.02-.006-.014-.037.018-.077.028-.09.092-.126.095-.056.116-.112.105-.286-.005-.085-.003-.14.006-.147.026-.018.057-.122.068-.23.005-.056.018-.121.028-.144.015-.033.014-.054-.002-.115-.035-.128-.032-.159.02-.203.053-.045.056-.068.013-.124-.05-.064-.043-.097.026-.132.061-.032.113-.09.11-.126 0-.011-.032-.045-.07-.075-.066-.053-.069-.058-.08-.144-.013-.101.003-.118.06-.06.038.037.086.04.096.004l.055-.15c.076-.199.055-.307-.07-.36-.07-.03-.08-.05-.063-.121.01-.047.009-.06-.012-.088-.013-.018-.043-.035-.067-.038-.035-.005-.041-.011-.04-.041.002-.031.01-.038.054-.044.064-.01.113.031.141.116.039.117.108.173.135.111.005-.012.022-.093.037-.18.034-.203.069-.333.117-.438.03-.067.036-.098.032-.17-.005-.063.003-.114.028-.188.018-.056.053-.174.076-.262.042-.152.043-.17.033-.335l-.01-.175.043-.03c.066-.045.054-.079-.038-.112-.078-.029-.11-.06-.113-.109-.002-.031.056-.074.155-.113.082-.032.12-.074.128-.14.003-.026.013-.09.023-.14.015-.086.015-.095-.013-.154l-.029-.062.06-.062c.034-.035.06-.075.06-.09 0-.037.003-.055.036-.163.034-.108.033-.208-.003-.279-.027-.054-.024-.084.014-.122.037-.038.029-.07-.03-.11l-.054-.037.02-.072c.022-.082.053-.097.094-.043.014.018.037.032.052.031.026-.002.027-.012.016-.175-.01-.16-.013-.176-.043-.203l-.032-.03.029-.034c.016-.019.038-.074.05-.121.02-.086.062-.155.094-.157.037-.002.05-.042.03-.084-.02-.038-.018-.044.024-.096.057-.07.07-.12.106-.407.002-.024-.01-.052-.035-.085-.022-.028-.04-.056-.04-.063-.002-.025.028-.075.084-.143.116-.14.147-.288.108-.51-.014-.078-.022-.16-.018-.18.003-.021.036-.075.072-.121s.077-.109.09-.14c.034-.077.035-.193.001-.285l-.028-.082c0-.004.024-.034.053-.066l.052-.059-.013-.159c-.012-.14-.01-.161.011-.179.014-.011.032-.02.04-.021.012 0 .013-.034.003-.11-.015-.127-.004-.157.084-.22.075-.053.085-.07.103-.176.008-.049.038-.174.066-.278.065-.237.093-.39.088-.48-.005-.075-.02-.094-.099-.124-.065-.025-.067-.072-.007-.129l.05-.046-.027-.049c-.036-.063-.028-.089.052-.169.07-.07.118-.086.169-.053.016.01.032.019.038.018.005 0 .005-.047 0-.105-.008-.115.006-.165.065-.226.029-.03.033-.047.029-.114-.004-.062.002-.09.026-.132.038-.063.038-.079 0-.108-.052-.041-.03-.108.03-.097.052.01.087-.04.09-.127.003-.043.01-.084.019-.091.007-.008.041-.019.074-.025.089-.017.162-.106.157-.19-.002-.03-.014-.04-.069-.06-.112-.038-.137-.095-.075-.172.03-.036.056-.048.17-.079.075-.02.153-.037.175-.038.063-.004.077-.016.134-.116.053-.093.054-.095.043-.207l-.01-.113.058-.003c.113-.007.118-.002.131.103.01.09.014.096.077.151.053.048.067.07.077.122.01.061.014.065.053.062.045-.003.046-.01.02-.118-.025-.102-.029-.11-.07-.12-.034-.01-.043-.02-.045-.052-.003-.048.046-.077.116-.068.071.009.108.042.116.106.005.044.02.07.068.117.035.035.062.075.064.093.002.043.06.066.111.045.047-.02.052-.068.01-.093-.023-.014-.029-.026-.022-.051.004-.018.008-.085.009-.149v-.115l.06-.049c.054-.043.065-.047.096-.034.049.02.053.062.014.127-.018.03-.046.085-.062.12-.016.037-.045.08-.064.097-.032.028-.033.03-.007.03.015-.002.062-.022.102-.047.072-.043.076-.044.136-.027.055.015.07.014.156-.013.053-.016.112-.028.131-.027.03.003.036.01.04.058l.008.07c.004.023.044.03.095.018.045-.011.045-.012.023-.05-.03-.048-.03-.07-.002-.099.049-.049.111-.02.117.054.003.035-.031.083-.061.084-.024.002-.02.017.016.049.027.025.03.037.022.089-.014.1-.005.111.075.099.068-.01.068-.01.062.025-.004.02-.008.07-.01.112-.002.063.003.082.028.108.03.032.032.032.221.016.135-.012.205-.023.236-.04.055-.03.08-.022.095.03.01.03.006.052-.012.08-.049.079-.038.121.032.132.072.01.082.036.042.1-.03.05-.032.061-.015.096.01.021.036.052.056.068.02.017.047.046.059.066.026.042.035.142.017.197-.024.077.003.124.128.227.064.053.118.108.118.122.001.014-.01.045-.026.068-.027.041-.027.045 0 .215.035.215.093.42.191.675.042.108.093.266.115.352.128.497.751 2.404 1.133 3.467.15.414.167.456.23.535.072.091.078.112.07.25-.004.064-.007.07-.037.065-.029-.003-.033.002-.031.033.002.043.046.128.065.127.007 0 .01-.033.008-.073-.004-.069-.003-.07.018-.039.012.019.042.082.065.14l.052.125c.007.014.003.015-.02.005-.015-.007-.043-.04-.062-.072-.042-.077-.065-.077-.048-.001.02.097.372.977.59 1.481.434 1 .778 1.711 1.619 3.348 1.022 1.988 1.654 3.286 2.498 5.124l.387.843c.104.225.147.296.177.294.022-.001.007-.083-.034-.179-.074-.172-.008-.124.086.063.06.116.124.201.153.2.034-.003.078-.082.343-.631.773-1.6 1.552-3.032 2.775-5.104.28-.473.667-1.13.86-1.459.194-.329.38-.638.414-.687l.06-.09-.042.003c-.024.001-.063-.006-.086-.016-.055-.024-.056-.076-.002-.12.034-.03.04-.03.075-.014.022.01.046.037.055.06l.016.043.058-.095c.063-.101.087-.167.083-.227-.002-.03.013-.052.07-.1.147-.127.252-.294.246-.39-.003-.054.016-.088.056-.1.059-.02.125-.098.175-.21.027-.06.112-.198.19-.308.079-.11.171-.249.206-.308.035-.059.107-.172.16-.25.053-.08.12-.195.148-.257.03-.062.096-.167.15-.235.053-.067.122-.17.154-.229.086-.158.148-.257.403-.636.299-.446.373-.568.37-.618-.004-.052-.034-.07-.092-.056-.067.016-.074-.006-.02-.06.06-.058.093-.068.169-.047l.061.018.042-.047c.022-.026.142-.202.266-.39.124-.19.26-.389.302-.444.042-.056.093-.14.113-.189.02-.048.05-.096.065-.105.044-.027.142-.133.16-.172.008-.02.017-.065.02-.1.007-.084.059-.163.163-.252.12-.102.175-.168.297-.359.06-.093.158-.23.218-.304.104-.127.162-.228.159-.277-.001-.013.03-.05.068-.081.086-.073.192-.196.288-.336.04-.059.105-.144.143-.189.041-.05.068-.095.067-.114-.007-.166.01-.208.095-.23.125-.034.13-.037.24-.196.241-.346.782-1.043 1.104-1.421.155-.183.29-.369.346-.473.015-.03.062-.08.103-.11.13-.097.17-.207.076-.21-.025-.001-.046-.01-.047-.019-.001-.024.191-.16.266-.186.087-.032.102-.043.105-.077.004-.048-.026-.067-.115-.071-.045-.002-.083-.009-.083-.015-.002-.02.065-.1.085-.1.011-.001.046.013.078.03.042.025.064.03.082.02.047-.027.174-.202.212-.293l.038-.092.068-.01c.077-.013.091-.039.05-.089-.012-.016-.024-.044-.025-.061-.002-.03.002-.032.041-.026.16.024.253-.03.353-.202.021-.037.07-.095.107-.128.072-.063.086-.101.04-.112-.014-.004-.034-.016-.044-.026-.027-.028.01-.085.08-.122.031-.017.082-.053.114-.082.042-.038.07-.052.11-.054.055-.004.068-.02.064-.08-.002-.038.005-.044.112-.096.112-.054.126-.089.076-.192-.029-.059-.051-.085-.098-.112-.076-.043-.083-.073-.018-.077.059-.004.116.034.142.094.012.026.025.046.03.046.024-.002.109-.128.14-.21.04-.104.065-.114.144-.055.047.036.052.037.087.016.066-.038.072-.056.045-.13-.029-.078-.054-.084-.124-.03-.068.053-.119.056-.195.01-.033-.02-.077-.044-.097-.054-.07-.036-.056-.051.05-.058.07-.004.12.001.17.02.071.024.074.024.09-.002.01-.014.016-.047.015-.072-.003-.046.018-.06.05-.033.01.01.017.01.023-.002.005-.008.037-.017.07-.02.073-.004.087-.025.056-.086-.031-.063-.007-.078.083-.052.13.037.198.011.242-.09.03-.066.027-.15-.008-.241-.033-.087-.034-.113-.004-.115.026-.002.198.132.24.187l.025.032.035-.051c.022-.033.046-.053.066-.054.046-.003.063-.032.036-.063-.03-.037-.031-.114-.001-.21.025-.079.027-.082.052-.06.028.023.087.034.153.03.032-.002.04-.008.038-.034-.002-.017-.022-.048-.046-.067-.052-.044-.08-.097-.077-.149.001-.031.019-.05.095-.1.11-.07.197-.165.215-.232.017-.063.052-.076.11-.04.04.026.062.028.179.022.074-.004.145-.004.158.001.027.01.05.051.033.058-.036.015-.076.045-.08.06-.002.008.02.039.05.068.033.03.052.06.048.073-.01.03.043.05.092.036.053-.015.111-.071.13-.125.011-.032.01-.056-.005-.1-.015-.048-.016-.074-.003-.128.02-.085.02-.102-.006-.1-.036.002-.076-.044-.104-.121-.036-.099-.035-.103.012-.107.027-.001.052-.016.074-.042.027-.032.038-.037.058-.026.039.02.048.133.018.216-.024.066-.024.068.002.084.015.009.036.04.047.07.024.064.048.08.19.128.06.02.124.047.144.058.035.022.038.021.082-.013.062-.048.08-.047.106.008.013.025.03.048.037.052.008.005.043-.01.079-.033.079-.05.105-.045.13.028.017.049.024.054.055.049.05-.01.052-.031.007-.077-.065-.067-.05-.151.03-.156.036-.002.08.052.084.101.005.073.046.132.122.173.037.021.072.038.076.037.004 0 .01-.021.013-.047.003-.026.018-.064.032-.084.021-.03.038-.038.089-.042.08-.004.114.012.142.068.026.052.028.06.013.085-.008.015-.02.014-.059-.007-.053-.027-.14-.028-.177-.002-.022.016-.017.023.05.085.09.08.121.095.19.09.072-.004.122-.035.118-.072-.003-.03.013-.038.054-.026.014.005.023.024.025.054.003.042-.002.05-.056.077-.082.04-.097.075-.05.113.044.036.047.061.014.109-.026.037-.03.066-.013.102.007.015.029.02.078.017.066-.004.068-.003.07.036.004.054.042.085.087.07.044-.013.05-.022.077-.14l.023-.097.04.04c.038.04.042.041.117.029.077-.013.078-.013.104.029.014.023.025.056.023.072-.002.032-.022.036-.118.023-.056-.008-.1.021-.142.096-.035.06-.048.153-.025.182.012.017.017.016.038-.004.058-.057.127-.043.132.028.002.036-.017.056-.069.072-.04.011-.095-.022-.098-.06-.002-.03-.045-.036-.079-.01-.027.02-.03.034-.026.11.004.048.01.098.016.11.006.012.045.034.086.05.088.031.102.056.095.173-.004.072-.003.075.022.06.045-.028.083-.023.085.01.002.025-.003.028-.045.024l-.046-.005.01.07c.017.109.082.138.112.05.02-.054.021-.055.06-.037.059.026.018.137-.064.175-.085.04-.136.09-.186.183-.042.077-.048.083-.066.062-.02-.02-.023-.02-.053.018-.038.048-.04.108-.003.106.014-.001.032-.01.041-.02.01-.01.003.024-.013.077-.035.111-.034.155.005.253l.028.073-.032.028c-.134.116-.135.117-.123.177.01.051.006.068-.04.147-.072.127-.108.227-.177.498-.034.13-.073.27-.086.31l-.024.072.066.015c.065.013.067.015.07.066.004.069-.023.09-.09.071-.027-.007-.059-.01-.07-.004-.04.018-.074.158-.068.279.006.1.01.114.049.158l.042.047-.043.003c-.093.006-.129.048-.155.183-.006.032-.025.094-.041.139-.031.082-.037.156-.016.208.01.023 0 .042-.052.099-.058.064-.065.08-.08.181-.01.061-.029.142-.042.18-.021.059-.022.075-.004.126.032.096.028.117-.034.185-.047.051-.06.077-.063.127-.003.035-.032.167-.064.293-.084.323-.087.34-.058.325.051-.025.088-.03.083-.01-.003.011-.03.025-.06.03-.045.009-.057.018-.075.062-.024.056-.024.237 0 .302.01.03.007.039-.025.056-.02.011-.043.036-.05.056-.048.118-.067.202-.07.299-.002.08-.016.149-.052.255-.026.079-.065.23-.085.334-.02.104-.045.218-.054.254-.009.035-.019.112-.022.17-.003.073-.013.12-.031.148-.02.03-.026.06-.022.113.004.059-.006.096-.05.2-.068.158-.088.296-.066.457l.016.11-.055.067c-.053.065-.054.069-.057.195-.003.132-.02.19-.076.265-.048.065-.065.173-.052.317.012.12.01.13-.02.177-.041.062-.091.25-.138.516-.02.111-.057.298-.084.417-.026.118-.067.328-.09.465-.024.137-.058.314-.076.393-.026.113-.03.156-.019.2.026.102.022.136-.025.213-.062.103-.09.202-.127.45-.018.118-.045.268-.06.333-.055.23-.161.836-.222 1.262-.016.11-.04.254-.055.32-.016.075-.022.136-.015.166.009.037.002.067-.033.142-.059.13-.056.222.01.287l.044.044-.057.011c-.032.006-.065.022-.073.035-.017.026-.097.466-.139.757-.014.104-.034.223-.044.264-.01.04-.04.212-.067.38-.026.167-.083.51-.125.761-.047.275-.08.525-.085.625-.005.106-.017.193-.033.235l-.025.067.03.036c.041.048.04.058-.008.078-.06.025-.063.056-.01.1.026.02.047.041.047.048 0 .007-.025.037-.057.067-.095.086-.132.246-.088.37.051.14.052.15.01.186-.035.032-.036.036-.017.079.029.066.026.08-.025.135-.07.076-.095.146-.096.268 0 .084.005.114.024.139.022.029.022.034.004.05-.058.054-.087.19-.058.274.017.051.016.062-.018.13-.052.11-.07.187-.093.423-.011.117-.03.264-.04.327-.03.176-.031.263-.006.36.02.079.02.092 0 .126-.012.022-.015.04-.007.042.039.01.066.039.06.061-.012.036-.068.026-.08-.015-.01-.03-.014-.026-.03.037-.011.039-.026.12-.033.18-.007.06-.024.179-.037.263-.013.084-.03.219-.038.3l-.013.148.035.053.036.054-.044.04-.045.041-.068.641c-.124 1.155-.212 2.2-.288 3.398-.076 1.216-.11 2.14-.134 3.662l-.015.845c-.006.194.006.378.03.474.016.065.016.087-.004.159-.02.072-.022.12-.01.355.013.232.02.285.049.37.026.077.03.102.018.121-.064.102-.07.134-.062.302.005.09.03.614.055 1.165.044.957.047 1.005.076 1.078.028.071.03.093.026.286-.004.17.003.273.033.54.022.182.045.449.051.593.012.235.016.264.04.287.022.022.024.033.014.1-.022.143.057.901.185 1.772.027.185.052.378.056.43.006.108.037.198.086.259.031.037.033.046.02.085-.048.138-.046.234.01.453.014.06.037.177.05.261.029.197.066.321.136.459.05.1.054.112.036.135-.011.013-.026.054-.034.09-.016.081.003.117.083.155.065.03.07.054.035.134-.032.071-.049.206-.033.268.007.027.042.083.078.125.07.081.15.243.154.315.002.033-.01.06-.044.099-.058.066-.051.096.043.19.036.035.097.118.134.182l.068.117.027-.05c.033-.06.07-.088.183-.139.049-.021.107-.05.129-.062.022-.013.042-.022.046-.019.012.011-.119.22-.215.341-.054.07-.098.128-.098.131 0 .004.02.01.045.013.077.01.134.06.21.186l.073.119-.05.012c-.066.017-.091.002-.123-.07-.021-.046-.035-.06-.063-.06-.053-.004-.09.045-.085.113.003.048.012.063.078.118.069.058.072.063.04.065-.058.004-.1.029-.203.124-.06.055-.098.1-.094.113.003.011.052.043.11.07.087.04.103.053.105.084.002.02-.006.044-.018.055-.041.038-.05.08-.042.2l.008.124-.064.024c-.036.014-.065.028-.064.032 0 .019.089.049.134.046.04-.002.062-.016.107-.062.07-.072.124-.079.157-.02.03.054.009.087-.067.103-.07.015-.068.012-.043.058.015.028.028.033.072.03.05-.003.053 0 .055.036.005.071-.018.08-.183.066-.024-.003-.026.004-.02.055.005.035.002.058-.007.059-.03.002-.01.051.04.093.105.088.108.18.012.294-.085.1-.09.135-.028.176l.065.04c.01.004.045-.02.084-.059.058-.057.075-.066.129-.07.04-.002.062.003.063.014 0 .026-.043.132-.06.143-.03.021.005.035.057.023.065-.014.067-.004.017.062-.039.05-.047.11-.017.135.033.029.011.064-.046.075-.047.01-.06.02-.096.082-.023.039-.054.077-.068.085-.033.018-.03.047.007.097.038.049.04.075.01.117-.024.033-.025.033-.081.012-.032-.011-.072-.018-.09-.014-.035.007-.034 0-.026.2.006.115-.01.129-.138.137l-.102.006-.059.083c-.1.142-.16.297-.164.425l-.002.048h.098c.091.001.098.004.113.039.012.029.012.04-.004.051-.022.016-.106.024-.182.016-.043-.004-.053-.01-.055-.037-.001-.017.006-.037.015-.043.01-.008.002-.014-.026-.017-.04-.004-.042-.008-.041-.06 0-.038-.014-.079-.047-.138-.03-.053-.05-.105-.052-.142-.005-.085-.03-.097-.12-.063-.057.021-.1.027-.207.026-.119 0-.135.002-.142.023-.004.013 0 .039.01.057.016.029.024.03.073.02.043-.01.069-.006.129.02.04.019.1.032.131.032l.057-.001.002.059c.003.057.004.059.04.05.048-.013.07.007.073.068.005.066-.034.112-.097.116-.039.002-.052-.004-.072-.037-.022-.038-.029-.04-.09-.032l-.064.008-.005-.06c-.006-.064-.025-.082-.083-.079-.03.002-.04.012-.05.048-.017.064-.047.1-.154.182-.105.082-.104.1.005.1.046.001.064.007.069.025.005.019-.005.024-.05.027-.05.003-.06.01-.09.059-.038.065-.086.094-.219.133-.115.033-.138.024-.143-.055-.006-.084.02-.102.142-.099.117.003.137-.014.092-.08-.033-.048-.034-.069-.002-.1.05-.048.032-.061-.088-.063-.062 0-.126.005-.146.014-.03.014-.033.02-.022.052.007.02.015.055.017.078l.003.04-.093.008c-.076.005-.099.012-.123.038-.042.044-.057.042-.09-.016-.022-.036-.05-.06-.115-.087l-.104-.047c-.01-.005-.037.011-.063.036-.087.086-.127.08-.134-.023-.005-.069-.013-.078-.083-.1-.052-.015-.057-.02-.058-.063 0-.027 0-.06.002-.075.003-.022-.008-.03-.051-.037-.067-.012-.086.01-.093.106-.008.103-.024.171-.052.215-.027.043-.021.056.038.08.018.008.04.034.05.058.013.037.011.05-.01.073-.026.029-.026.029-.11-.04-.078-.066-.083-.074-.088-.136-.006-.087-.048-.161-.123-.22-.086-.067-.103-.062-.098.03.005.072.004.075-.03.077-.04.003-.106-.022-.134-.051-.027-.029-.014-.06.059-.145.055-.065.073-.077.124-.083.086-.012.084-.051-.007-.12-.076-.056-.271-.147-.285-.132-.004.006.008.054.028.11.042.12.043.127.013.137-.117.04-.146.03-.168-.066-.01-.04-.032-.074-.071-.112-.032-.03-.059-.06-.06-.065-.002-.006-.011-.078-.021-.16-.016-.133-.021-.149-.042-.144-.016.003-.03-.007-.04-.028-.026-.057-.04-.038-.05.076-.011.13-.006.15.077.303.08.147.095.25.046.295-.049.044-.075.037-.157-.04-.135-.128-.171-.218-.142-.346.028-.124-.004-.173-.13-.2-.106-.023-.119-.034-.114-.096.003-.039-.003-.057-.024-.073-.062-.048-.023-.155.058-.16.021-.002.05-.012.064-.024.025-.02.025-.021-.013-.033-.096-.03-.214-.032-.993-.024-.96.01-3.193.338-5.64.828-1.52.304-2.607.548-6.437 1.447-4.446 1.045-5.432 1.298-7.416 1.903-1.332.406-3.42 1.115-4.727 1.605-.13.049-.357.13-.504.18-.424.146-.47.17-.62.327-.07.073-.13.141-.134.151-.02.051.06.106.164.112.082.004.125-.02.164-.093l.024-.045.006.104c.006.085.013.11.039.139.033.036.031.07-.004.086-.012.005-.061-.004-.11-.02-.048-.016-.092-.026-.097-.022-.006.004-.018.029-.028.055-.023.067-.07.067-.177.002-.11-.066-.158-.076-.219-.046-.07.034-.085.031-.088-.017-.002-.035-.007-.04-.034-.035-.03.006-.03.01-.018.123.011.11.01.12-.019.142-.045.036-.075.032-.112-.012-.019-.021-.045-.038-.059-.037-.03.002-.03-.002 0 .067.013.03.032.111.041.18l.018.123-.052-.006c-.028-.003-.05-.002-.05.004 0 .005.024.028.052.05.06.048.067.089.032.182-.023.058-.023.064.002.118.023.05.024.06.008.097-.01.022-.034.05-.053.061-.042.026-.05.05-.026.079.017.02.022.02.07-.003.028-.014.064-.026.079-.027.025-.002.027.004.023.08-.004.072 0 .084.02.09.014.005.044 0 .067-.011.088-.042.098-.039.045.015-.028.029-.064.053-.08.054-.017.001-.056-.02-.087-.046-.03-.026-.058-.041-.06-.033-.003.008-.024.05-.048.092-.028.048-.043.093-.04.122.002.044 0 .045-.05.045-.048-.001-.052.002-.047.03.003.018-.003.087-.015.155-.02.112-.019.125.004.17.034.07.072.058.073-.021 0-.054.004-.058.041-.06.035-.003.043.003.059.05.02.058.015.111-.016.165-.013.024-.018.067-.014.131l.006.097-.055.015-.055.015.015.145c.008.08.017.148.02.15.004.003.022-.003.041-.013.048-.025.054-.016.031.051-.035.107-.02.144.081.195.032.015.022.067-.018.09-.022.014-.035.012-.069-.009-.057-.036-.067-.032-.08.035-.01.044-.008.08.008.141.035.138.039.316.012.516-.022.162-.022.2-.004.34.011.085.037.392.058.681.086 1.195.147 1.75.256 2.359.038.21.045.28.043.42-.002.166-.002.17-.043.21-.053.054-.156.065-.207.024zm-.056-6.279c.022-.026.02-.046-.007-.07-.061-.054-.113-.051-.13.007-.03.106.064.15.137.063zm-.95-.1c.038-.063.007-.111-.067-.106-.068.005-.098.077-.052.126.041.044.085.037.12-.02zm.189-.315c-.011-.032-.047-.057-.081-.055-.06.002-.06.052-.003.135.037.054.107-.012.084-.08zm-.79-.056c.046-.02.05-.056.018-.166-.035-.117-.058-.16-.105-.195l-.032-.024.02.175c.025.212.037.237.1.21zm-.437-.12c-.015-.025-.05-.044-.08-.043-.074.004-.096.082-.036.13.042.034.057.034.096 0 .026-.022.035-.061.02-.086zm1.147-.02c.048-.081-.075-.168-.13-.091-.025.034-.023.042.015.083.05.053.086.056.115.008zm.338-.035c.038-.07-.062-.14-.115-.082-.044.05-.009.134.054.13.02-.001.048-.022.061-.048zm.544-.22c.01-.046-.128-.125-.154-.087-.022.032.084.161.118.143.016-.007.032-.033.036-.055zm-.584-.14c.022-.062-.01-.105-.075-.101-.028 0-.058.015-.068.031-.027.044.026.127.079.123.025-.001.054-.025.064-.052zm-3.44-1.63c-.015-.088-.057-.102-.121-.04-.063.062-.029.124.064.117.056-.004.068-.02.058-.076zm33.413-4.26c-.004-.057.01-.08.071-.11.071-.035.077-.075.014-.102-.04-.017-.043-.016-.08.024-.024.026-.073.054-.123.071-.078.027-.082.03-.072.064.023.076.049.095.123.09.063-.004.069-.007.067-.037zm-.53-.067c.005-.004.009-.021.008-.039-.004-.059.01-.076.061-.08.05-.003.166-.068.164-.092 0-.008-.035-.011-.078-.009-.095.006-.128-.008-.158-.066-.016-.034-.03-.045-.055-.044-.056.004-.067.036-.025.07.052.043.049.074-.012.11-.054.032-.068.054-.064.108.003.06.096.084.159.042zm.296.066c.016-.031.014-.047-.012-.078-.05-.062-.137-.022-.135.06.001.069.114.082.147.018zm-.818-.099c.058-.04.062-.104.008-.119-.067-.018-.155.103-.104.142.025.019.04.015.096-.023zm1.039-.052c.032-.058-.051-.132-.105-.095-.046.032-.008.146.046.142.019-.001.045-.022.059-.047zm-.803-.214c.024-.008.05-.025.057-.037.014-.024-.045-.086-.105-.11-.033-.013-.04-.005-.048.047-.01.058.01.117.04.115.007 0 .032-.007.056-.015zm-.123.034c.043-.037.03-.113-.021-.126-.055-.012-.114.028-.11.074.002.033.054.08.086.079.008 0 .029-.013.045-.027zm1.89-.141c.086-.05.05-.163-.04-.132-.059.02-.085.075-.058.12.022.036.051.04.099.012zm-2.209-.043c.048-.045.1-.163.097-.219-.003-.033-.008-.037-.05-.034-.025.001-.066 0-.09-.003-.055-.008-.067.02-.038.093.012.028.018.061.014.074-.005.018-.018.016-.08-.017-.072-.037-.104-.077-.127-.155-.005-.018-.037-.053-.07-.076l-.06-.043-.06.033c-.063.035-.12.046-.135.024-.016-.023-.036-.012-.048.026-.01.03-.006.042.022.068.05.046.075.055.159.053.093 0 .136.022.207.114.089.116.18.138.26.062zm1.46-.102c-.015-.023-.05-.041-.079-.04-.072.004-.1.087-.044.132.04.032.054.032.098-.006.027-.024.038-.063.024-.086zm1.394-.047c.032-.056-.006-.112-.074-.108-.076.004-.094.055-.042.118.045.052.082.049.116-.01zm-2.204.021c.03-.041.02-.07-.028-.09-.033-.013-.05-.012-.111.01-.071.025-.104.055-.145.13-.02.036-.02.037.01.04.062.006.25-.056.274-.09zm1.28-.15c-.003-.051-.105-.124-.14-.1-.03.02-.02.093.018.125.052.043.126.028.122-.026zm.619-.167c.03.003.053.002.053-.001 0-.01-.107-.17-.132-.198-.02-.024-.023-.024-.044 0-.016.017-.02.05-.018.11.002.048 0 .094-.005.103-.006.011.005.011.042-.002.028-.009.074-.015.104-.012zm.338-.12c.05-.038.091-.079.09-.09 0-.034-.062-.079-.104-.076-.06.004-.092.03-.117.094-.026.068-.027.108-.002.13.027.023.035.02.133-.057zm.256-.222c.026-.044-.029-.1-.077-.08-.052.02-.091.104-.065.139.024.03.111-.006.142-.059zm-.122-.187c.004-.017-.004-.042-.02-.063-.013-.019-.031-.065-.039-.103-.012-.066-.015-.069-.052-.064-.053.007-.084.041-.104.115-.017.063-.01.082.024.058.036-.026.066-.018.078.02.006.02.021.05.033.067.017.024.027.026.047.014.014-.009.029-.028.033-.044zm-.592.08c.06-.036.04-.14-.025-.134-.074.006-.127.096-.077.132.041.03.054.03.102.001zm.392-.588c.04-.004.072-.018.072-.03-.002-.034-.11-.096-.166-.093-.04.002-.053.014-.056.048-.006.08.013.122.046.102.017-.01.064-.022.104-.027zm-29.736 1.66l.84-.3c2.557-.92 4.687-1.59 6.638-2.09.676-.174 3.105-.762 4.503-1.09 5.179-1.216 6.922-1.593 9.055-1.963.8-.139.938-.159 1.662-.242.357-.04.816-.095 1.02-.12.281-.034.398-.043.478-.037.06.004.31-.004.558-.018.497-.028.471-.026.496-.044.015-.01.014-.018-.005-.044-.012-.017-.032-.063-.043-.1-.012-.04-.03-.081-.042-.094-.034-.039-.027-.051.038-.073.087-.029.1-.027.113.014.006.02.028.062.048.092.03.045.034.062.025.092-.02.061-.01.1.031.128.044.03.077.03.217 0 .137-.03.162-.04.182-.074.018-.03.017-.03-.086-.017-.057.008-.104.01-.104.006-.002-.025.09-.18.104-.178.014.004.074.09.09.13.003.007.045.006.095-.002.071-.013.096-.023.125-.055.032-.036.035-.05.03-.134-.004-.05-.02-.144-.036-.207-.022-.083-.038-.217-.057-.471-.014-.196-.03-.368-.036-.382-.011-.03-.082-.599-.134-1.074-.094-.868-.123-1.22-.228-2.762-.112-1.643-.113-1.66-.148-1.746-.048-.121-.05-.18-.01-.287.033-.086.035-.107.03-.338l-.01-.585c-.006-.338-.006-.338-.04-.4-.026-.044-.054-.07-.107-.095-.068-.033-.07-.034-.035-.045.039-.012.132-.1.155-.147.008-.016.013-.116.01-.221-.001-.106 0-.254.004-.33.004-.075.007-.282.008-.46.002-1.106.083-3.157.186-4.694.086-1.292.258-3.203.312-3.481.024-.12.015-.17-.037-.22-.018-.016-.02-.028-.01-.05.02-.043.012-.091-.02-.128-.053-.057-.035-.104.042-.108.024-.002.053-.015.065-.03.027-.034.283-2.017.275-2.138-.004-.058-.017-.102-.045-.152-.047-.086-.049-.103-.017-.162.016-.031.035-.047.057-.049.054-.003.063-.029.056-.153-.007-.095-.003-.126.019-.166.035-.066.077-.22.088-.326.005-.047.023-.163.04-.259l.134-.838c.124-.788.453-2.757.499-2.987l.033-.162-.03-.076-.03-.076.047-.043c.058-.053.06-.064.109-.418.045-.325.054-.378.114-.644.024-.107.143-.729.265-1.381.122-.652.26-1.37.306-1.596.046-.225.098-.497.116-.604.039-.238.067-.38.12-.597.039-.155.04-.174.025-.269-.033-.196-.021-.28.045-.334.05-.04.091-.147.104-.274.012-.114-.004-.155-.058-.152-.048.003-.11.07-.126.133-.011.048-.023.061-.084.094-.044.025-.086.062-.113.1-.023.035-.178.231-.344.437-.393.486-.675.847-1.156 1.482-.216.285-.398.52-.404.524-.007.003-.022.025-.035.048-.021.04-.021.046.003.101.015.032.023.062.018.067-.004.005-.03.003-.059-.005-.064-.019-.085-.001-.06.051.025.055.023.06-.033.079-.029.009-.071.033-.095.052-.068.057-.788 1.043-.8 1.096l-.018.086c-.01.054-.018.064-.078.093-.054.026-.08.052-.133.133-.037.056-.17.25-.295.432-.126.181-.236.347-.246.37-.01.022-.013.056-.007.077.012.046 0 .062-.097.135-.17.128-.3.332-.35.546-.027.115-.058.167-.111.183-.078.024-.135.084-.218.226-.045.078-.098.181-.118.229-.025.059-.063.113-.12.172-.046.048-.117.143-.156.21-.04.07-.099.16-.132.205-.087.113-.089.13-.017.18.067.047.077.084.028.11-.027.014-.038.013-.06-.004-.015-.012-.04-.02-.054-.019-.05.004-.162.14-.31.375-1.322 2.104-3.026 4.968-3.846 6.465-.747 1.363-1.097 2.084-1.127 2.32-.01.07-.03.135-.065.206-.07.14-.085.208-.074.366l.008.134-.046.023c-.025.012-.051.034-.058.048-.007.014-.04.133-.076.263-.084.31-.15.473-.239.58-.038.046-.072.103-.076.125-.004.023-.04.121-.078.218s-.075.204-.082.238c-.022.106-.07.18-.15.223-.083.045-.101.073-.123.188-.01.047-.034.13-.054.182-.02.052-.074.232-.12.399-.074.27-.082.312-.07.37.012.06.01.07-.033.133-.031.046-.058.117-.084.222-.05.2-.084.263-.161.305-.033.018-.069.047-.08.065-.01.018-.045.13-.076.248-.03.12-.071.242-.09.272-.065.105-.198.15-.268.089-.025-.022-.122-.245-.367-.844-.368-.904-.415-1.007-.493-1.094-.055-.061-.143-.125-.154-.113-.01.012.048.124.077.147.067.052.02.122-.06.09-.04-.016-.04-.018-.043-.126-.001-.06.002-.131.008-.16.015-.08-.02-.18-.122-.355-.077-.132-.094-.172-.098-.23-.006-.088-.176-.527-.286-.735-.043-.081-.095-.202-.115-.267-.044-.145-.073-.215-.427-1.054-.155-.367-.376-.861-.49-1.098-.114-.237-.269-.57-.344-.74-.273-.612-.607-1.305-.783-1.621-.083-.15-.109-.166-.125-.082-.01.053-.034.064-.048.023-.019-.055-.016-.092.012-.134.02-.032.025-.054.016-.093-.005-.029-.326-.666-.711-1.416-.386-.75-.706-1.38-.712-1.398-.02-.058-.059-.079-.127-.065l-.06.012-.049-.079c-.054-.088-.053-.117.007-.133.022-.006.043-.018.046-.028.01-.032-.066-.21-.253-.594-.102-.208-.235-.49-.295-.626-.109-.242-.15-.306-.2-.303-.046.003-.063-.032-.042-.085.029-.07.023-.102-.049-.255-1.168-2.493-1.503-3.304-2.175-5.264-.198-.576-.299-.842-.332-.874-.032-.031-.072-.026-.086.012-.006.017-.054.213-.105.435-.134.579-.2.953-.231 1.29-.006.06-.02.129-.032.153-.046.089-.11.356-.171.711-.003.016.01.054.027.084.051.084.047.116-.022.171-.057.045-.084.101-.08.168 0 .012-.023.125-.052.25-.03.126-.058.279-.063.339-.006.06-.03.191-.053.29-.023.1-.047.221-.051.27-.005.048-.022.114-.038.146-.043.084-.07.198-.106.436-.034.232-.03.282.03.338.052.048.047.09-.013.105-.097.026-.101.037-.23.667l-.134.648c-.014.062-.012.07.023.127.037.058.037.06.013.08-.014.012-.033.021-.042.022-.009 0-.022.01-.03.02-.027.036-.376 1.942-.524 2.86-.121.753-.269 1.744-.29 1.944-.012.11-.038.282-.06.381-.035.168-.06.332-.081.545-.005.049-.02.113-.034.143-.03.069-.03.091.01.176.043.089.043.101-.005.15l-.04.042.033.008c.049.01.084.042.086.076.003.042-.022.063-.067.057-.029-.004-.047.004-.07.029-.024.028-.037.086-.072.329-.045.318-.046.313.028.402.016.019.01.031-.042.087-.101.108-.107.213-.018.327.057.073.059.1.007.132-.107.066-.143.133-.135.254.005.073-.017.241-.06.465-.02.1-.053.316-.074.48-.021.163-.061.434-.089.602-.027.167-.098.621-.157 1.008-.114.754-.108.732-.246 1.01-.044.09-.096.216-.115.282-.112.386-.155.51-.265.765l-.12.282-.072.011c-.105.017-.143.064-.172.208-.012.062-.041.197-.064.3-.023.104-.054.26-.07.347-.04.233-.139.658-.175.746-.02.049-.056.102-.102.146-.093.09-.111.126-.166.322-.051.182-.101.283-.183.364-.063.064-.099.078-.194.075-.104-.004-.216-.08-.85-.582-.34-.27-.574-.442-.694-.512-.047-.027-.107-.073-.135-.103-.114-.124-.236-.227-.674-.565-.801-.618-1.534-1.157-1.986-1.461-.318-.214-.496-.337-.665-.462-.074-.055-.181-.12-.24-.147-.066-.03-.143-.082-.208-.14-.06-.051-.188-.139-.3-.203-.106-.062-.27-.168-.362-.234-.093-.067-.397-.27-.676-.452l-.603-.393c-.1-.067-.133-.074-.166-.037-.025.028-.08.025-.075-.003.009-.045 0-.108-.02-.128-.011-.012-.102-.07-.203-.129-.1-.058-.306-.192-.458-.296-.153-.104-.423-.283-.601-.396-.179-.113-.511-.326-.74-.473-.952-.614-2.446-1.534-3.053-1.882-.111-.063-.254-.148-.318-.19-.065-.04-.187-.103-.271-.138-.085-.036-.181-.086-.214-.111-.038-.03-.063-.041-.072-.032-.008.009.122.277.37.764.346.676.388.754.436.788.176.124.193.155.149.272-.02.053-.02.066 0 .115.06.15.18.388.254.506.058.094.098.178.135.289.029.086.073.191.099.234.025.043.068.125.096.184.076.164.11.196.137.128.008-.02.018-.035.024-.036.006 0 .032.024.057.055.044.05.045.055.022.066-.014.006-.038.028-.053.05-.03.043-.029.049.036.21.053.134.071.15.151.134.08-.016.105.006.122.102.007.037.034.116.06.175.027.058.06.133.074.166.025.061.154.33.197.41.012.024.043.053.067.065.093.044.096.048.056.085-.049.046-.043.082.032.214.05.088.058.106.032.086-.04-.03-.067-.076-.085-.138-.02-.068-.065-.12-.106-.117-.044.003-.041.042.012.137.056.1.164.333.249.537.07.17.148.302.183.31.01.002.023-.012.031-.032.013-.033.016-.034.033-.013.01.013.037.065.06.116l.053.12c.012.026.011.026-.017.005-.04-.03-.074-.026-.081.012-.008.04.024.147.062.21.032.053.135.145.134.12-.001-.01-.02-.075-.045-.146-.07-.21-.056-.207.041.01.016.034.055.084.087.11l.058.048.004.103c.004.09.01.111.052.177.026.041.052.1.06.13.008.035.024.06.048.073.031.018.035.029.041.12.006.088.01.102.043.126.02.015.04.041.044.058.029.115.042.173.038.173-.011.001-.06-.095-.084-.166-.033-.097-.068-.109-.07-.023 0 .042.061.198.265.675.146.341.275.634.288.65.017.023.036.03.076.028.061-.004.06-.005.1.1.03.078.031.08.005.075-.014-.003-.034.003-.045.013-.028.026.002.068.047.065.033-.002.034 0 .015.03-.01.017-.018.055-.016.082.003.047.105.303.148.371.02.033.048.035.07.004.024-.03.035-.028.057.017.011.02.046.063.079.094l.073.07c.008.009.007.034-.005.067-.023.066 0 .156.068.258.028.042.045.087.048.12.002.035.016.071.04.102.021.026.046.077.057.112.01.036.023.078.029.092.01.026.009.026-.02.005-.034-.027-.074-.103-.09-.17-.007-.03-.029-.063-.057-.086l-.046-.037.016.086c.014.082.054.187.152.4.057.125.083.118.076-.02-.004-.07-.002-.089.008-.068.018.037.06.056.115.052.06-.004.069.028.028.115l-.035.075.029.072.038.09c.006.012-.006.009-.03-.008-.046-.03-.088-.034-.095-.007-.005.017.036.122.06.154.02.027.063.015.08-.023.016-.034.019-.029.072.102.03.076.06.146.064.156.005.01-.019-.005-.053-.034-.076-.066-.092-.067-.07-.001.022.063.055.096.095.093.04-.002.122.147.196.358.078.224.147.39.228.548.051.1.074.16.079.212.004.045.015.077.027.084.025.013.054-.013.052-.045-.003-.04.033-.064.074-.048.047.017.046.045-.002.113-.062.086-.059.163.014.344.032.08.053.144.046.145-.007 0-.03-.023-.053-.052-.022-.029-.043-.05-.046-.047-.01.013.038.215.072.295.035.085.108.203.118.191.003-.003-.008-.059-.024-.122-.057-.221-.034-.223.047-.004.13.354.5 1.306.576 1.485.04.096.101.265.134.376.034.11.107.328.164.483.16.44.727 2.067.769 2.201.057.188.134.38.191.475.043.073.056.112.078.24.053.322.11.462.255.622.077.086.086.123.045.188-.015.024-.026.058-.023.075.005.036.427 1.345.69 2.142.11.331.2.58.23.637.042.077.054.118.071.242.014.098.04.2.073.295.092.256.11.272.294.246.117-.016.124-.015.147.013.013.016.025.042.026.057 0 .015.015.045.032.067.041.053.04.073-.006.076-.043.002-.078-.016-.174-.088-.065-.049-.135-.067-.184-.049-.034.014-.022.051.049.16.028.042.05.09.05.112 0 .064.003.07.055.104l.05.033.072-.028c.066-.027.197-.094.236-.121.013-.01.011-.021-.008-.052-.042-.07-.002-.11.055-.055.036.035.097.06.136.058.038-.002.08-.041.077-.073 0-.013.01-.039.023-.057.023-.033.025-.033.134-.022.14.014.161.011.181-.02.027-.04.015-.087-.033-.126-.033-.028-.044-.047-.043-.075.003-.057.05-.06.101-.008.038.038.041.05.039.123-.002.067.002.084.026.105.015.013.04.024.052.023.123-.005.3.01.357.032.07.026.098.02.134-.028.028-.037.068-.03.091.018.053.104.133.153.24.146.045-.003.065.004.093.032.147.145.165.158.217.154.029-.001.16-.041.292-.088zm-2.092-.323c-.015-.01-.038-.049-.05-.088-.028-.08-.004-.112.083-.116.05-.002.055.003.062.07.01.083-.049.163-.095.134zm.741-.162c-.025-.026-.007-.065.035-.074.016-.004.041-.026.056-.05.031-.049.096-.057.107-.013.01.035-.017.05-.074.045l-.048-.005.008.053c.007.048.004.054-.028.06-.02.003-.044-.003-.056-.016zm-.457-.081c-.042-.027-.051-.043-.055-.092-.005-.08.005-.103.049-.105.048-.003.104.045.107.093.003.037-.028.135-.043.136-.004 0-.03-.014-.058-.032zm-.205.003c-.027-.051 0-.118.047-.12.058-.004.114.06.097.108-.02.055-.117.063-.144.012zm-.445 0c0-.01.014-.044.033-.077.037-.067.088-.081.14-.04.059.048.034.122-.029.085-.028-.018-.039-.016-.067.012-.036.037-.075.046-.077.02zm-.09-.029c-.013-.01-.026-.046-.028-.078-.004-.073.119-.086.152-.016.03.066-.07.141-.125.094zm1.637-.169c-.044-.035-.039-.126.009-.138.024-.006.05.013.084.061.031.044.042.072.028.073-.012.001-.037.009-.055.016-.019.008-.048.002-.066-.012zm-1.238-.287c-.05-.017-.05-.116 0-.14.024-.01.063 0 .088.022.039.034.04.05.014.087-.034.047-.044.05-.102.031zm.021-.271c-.038-.042-.023-.135.022-.138.054-.004.11.05.114.107.002.042-.103.065-.136.03zm.166-.125c-.031-.032-.03-.047.003-.084.022-.025.06-.04.085-.032.057.017.063.111.009.136-.056.025-.053.026-.097-.02zm-.516-.269c-.032-.049.003-.117.063-.121.052-.004.104.088.072.128-.03.038-.108.035-.135-.007zm-.965-2.05c-.004-.07.009-.084.073-.08.052.004.08.029.083.07.004.043-.021.07-.073.08-.063.013-.078 0-.083-.07zm29.318-2.437c-.017-.046.038-.114.098-.119.049-.003.074.06.043.112-.032.054-.121.058-.14.007zm-.851-.18c-.036-.066.006-.128.09-.132.042-.002.05.005.054.054.002.03-.006.065-.019.077-.032.031-.109.031-.125 0zm-30.532-2.55c-.024-.022-.026-.033-.014-.08.02-.069.057-.07.109-.003l.041.054-.044.026c-.056.033-.058.034-.092.003zm-1.383-3.812c-.051-.056-.026-.118.05-.123.047-.003.071.009.078.038.013.048-.027.114-.069.117-.016 0-.042-.013-.059-.032zm7.38-.76c-.017-.04-.023-.078-.014-.084.024-.016.17.114.152.134-.038.042-.11.015-.138-.05zm24.106-1.95c-.004-.061.01-.078.073-.081.062-.005.079.01.083.072.004.061-.011.078-.074.081-.062.004-.078-.01-.082-.072zm-23.824 1.225c-.004-.08.026-.106.1-.09.074.015.076.083.004.121-.085.045-.1.04-.104-.031zm-.494-.143c-.032-.062.002-.11.08-.116.05-.004.064.004.065.038.006.1-.103.159-.145.078zm-7.611.377c-.013-.01-.026-.046-.028-.077-.003-.04.02-.058.08-.062.067-.004.081.008.076.065-.005.07-.082.114-.128.074zm-.357-.133c-.046-.04-.111-.134-.114-.163-.003-.033.054-.008.107.045.034.035.051.07.05.103l-.002.052-.041-.037zm7.916-.566c-.002-.025.018-.066.045-.09.059-.057.132-.006.107.074-.02.065-.148.079-.152.016zm-7.732.38c-.033-.069.003-.13.075-.124.048.004.066.023.07.073.003.049-.013.07-.06.08-.039.007-.072-.005-.085-.03zm7.102-.951c-.037-.07-.026-.12.027-.124.06-.003.124.071.106.12-.016.045-.11.047-.133.004zm-1.915-1.13c-.012-.024-.01-.065.004-.09.037-.063.155-.022.145.05-.01.073-.117.103-.149.04zm16.669-1.36c-.014-.029-.01-.07.008-.09.049-.054.15-.014.14.056-.01.077-.117.102-.148.034zm-.23-.304c-.071-.037-.03-.147.052-.137.035.004.067.037.069.073.005.075-.045.102-.12.064zm-22.827 1.336c-.013-.026-.009-.064.009-.084.047-.053.136-.015.14.06.006.079-.115.098-.15.024zm5.506-.63c-.005-.055.051-.11.116-.113.03-.002.043.021.04.067-.005.083-.15.125-.156.045zm17.162-1.196c-.044-.044.021-.142.091-.136.05.003.072.097.029.131-.037.029-.094.031-.12.005zm-.616-.15c-.033-.073.029-.14.11-.118.043.012.053.088.016.124-.04.039-.106.035-.126-.006zm-22.528 1.157c-.03-.032-.064-.08-.075-.106-.02-.046-.02-.046.02-.014.057.048.138.16.122.17-.007.005-.038-.018-.067-.05zm22.488-1.308c-.04-.032-.033-.117.012-.135.063-.025.127.016.118.077-.008.056-.087.091-.13.058zm.581-.291c-.004-.043-.012-.097-.017-.12-.007-.035-.003-.04.036-.042.055-.003.111.066.118.146.005.064-.017.089-.082.092-.045.002-.047 0-.055-.076zm-.62-.048c0-.06.013-.074.075-.08.06-.007.077 0 .081.031.006.045-.071.12-.124.121-.02 0-.034-.031-.033-.072zm-22.584 1.355c-.028-.021-.06-.058-.068-.083l-.028-.07c-.007-.017.004-.012.025.012.048.052.14.179.13.179-.004 0-.03-.017-.06-.038zm22.167-1.466c-.004-.056.084-.137.13-.12.07.027-.008.147-.099.153-.016 0-.03-.014-.031-.033zm-.95.063c-.01-.01-.021-.044-.023-.077-.003-.046.01-.061.062-.064.07-.004.11.047.089.111-.014.04-.092.059-.128.03zm1.637-.174c-.027-.02-.042-.05-.04-.08.003-.037.015-.047.063-.05.072-.006.113.045.086.107-.024.054-.058.061-.11.023zm-18.877.917c-.034-.079.054-.138.117-.08.027.027.04.066.029.089-.031.061-.118.056-.146-.009zm-3.849-.032c.004-.055.023-.078.07-.081.047-.002.07.018.082.073.013.066.004.077-.07.081-.075.004-.086-.006-.082-.073zm21.867-1.645c-.025-.058.001-.117.053-.12.026-.002.06.013.079.033.04.046 0 .117-.07.121-.025.002-.053-.014-.062-.034zm4.876-1.099c-.051-.049-.024-.116.048-.12.032-.001.068.014.078.035.02.038-.025.118-.067.12-.012 0-.038-.015-.06-.035zm-27.74 1.597c-.049-.03-.076-.108-.043-.126.026-.014.137.079.143.12.005.043-.035.045-.1.006zm23.002-1.453c-.027-.061.002-.116.064-.12.069-.005.095.028.078.098-.014.062-.118.078-.142.022zm-.988-.355c-.026-.065.005-.11.08-.115.05-.004.065.01.068.072.004.061-.009.078-.063.082-.037.003-.075-.015-.085-.04zm1.166-.144c-.005-.081.053-.116.12-.072.068.043.036.13-.049.135-.052.004-.068-.01-.071-.063zm-8.929.088c0-.006.014-.028.03-.049.018-.02.03-.052.029-.07-.002-.03.003-.031.048-.017.07.023.067.055-.008.104-.064.042-.098.053-.099.032zm8.033-.598c-.024-.023-.02-.1.005-.126.04-.04.126-.027.135.02.004.023-.002.052-.015.065-.03.032-.109.057-.125.04zm.645-.123c-.01-.016-.016-.05-.013-.076.007-.07.136-.074.154-.005.02.073-.103.144-.141.08zm-.361-.187c-.033-.061-.008-.119.055-.129.071-.01.1.023.083.1-.007.037-.025.05-.067.053-.031.002-.063-.01-.071-.024zm-.378-.001c-.029-.058.003-.117.064-.12.067-.005.107.065.066.116-.04.05-.106.051-.13.004zm.366-.223c-.082-.054-.074-.126.015-.13.056-.003.068.007.08.063.02.09-.018.116-.095.067zm-8.091.071c-.011-.021 0-.06.024-.085.04-.042.047-.043.093-.006.062.05.04.124-.038.128-.033.002-.068-.015-.08-.037zm7.444-.552c-.01-.015.015-.084.031-.085.007 0 .023-.029.035-.062.025-.07.059-.093.087-.06.021.024.011.066-.039.163-.02.04-.035.052-.066.054-.021.001-.043-.003-.048-.01zm-23.058 1.182c-.044-.09.02-.148.084-.078.032.035.058.077.059.092.004.05-.116.038-.143-.014zm-.225-.413c-.012-.033-.01-.07.007-.085.043-.041.123.003.139.076.01.05.003.06-.056.063-.05.003-.074-.011-.09-.054zm22.65-1.895c-.07-.037-.03-.133.056-.138.054-.004.07.013.065.067-.007.082-.05.108-.122.07zm-6.343-.24c-.036-.069-.008-.124.065-.128.06-.004.071.007.076.068.004.057-.009.075-.058.084-.037.007-.071-.003-.083-.024zm6.12-.44c-.008-.013-.001-.04.015-.062s.028-.057.027-.079c-.005-.056.019-.079.073-.07.039.007.044.015.036.052-.005.024-.013.071-.017.106-.007.054-.015.062-.063.068-.038.005-.06 0-.07-.015zm-.826.008c.003-.061.018-.078.071-.082.054-.003.07.012.081.072.012.069.005.076-.071.081-.077.006-.084-.002-.081-.071zm-5.49-.755c.004-.042.034-.079.068-.08.033-.003.07.03.08.072.015.06-.001.078-.068.082-.068.003-.086-.014-.08-.074zm21.233-1.888c-.01-.011-.02-.045-.022-.076-.004-.062.114-.09.149-.035.04.064-.074.163-.127.11zm-20.666.662c-.029-.065-.006-.12.05-.125.074-.004.12.06.081.113-.035.05-.111.057-.131.013zm3.684-1.209c-.055-.033-.029-.12.04-.135.07-.014.113.052.072.114-.028.044-.064.05-.112.021zm14.507-1.128c-.036-.027-.043-.085-.015-.113.035-.034.1-.027.126.014.049.08-.037.156-.111.1zm-17.9 1.145c-.05-.045-.04-.107.022-.127.07-.023.108.007.103.08-.005.062-.078.09-.125.047zm3.53-.303c-.005-.061.01-.077.073-.081.062-.004.078.01.082.072.005.061-.01.078-.073.082-.062.003-.079-.011-.083-.073zm13.524-.943c-.003-.05.022-.086.06-.088.037-.003.06.023.054.063-.013.103-.107.123-.114.025zm1.26-1.038c.01-.09.15-.112.155-.024.002.033-.034.07-.08.08-.065.015-.082.002-.076-.056zm-17.536.613c-.029-.065-.006-.121.05-.125.074-.005.12.058.081.112-.035.05-.111.057-.131.012zm-.673-.208c-.04-.055.002-.123.078-.128.036-.003.058.024.053.064-.01.082-.09.12-.131.064zm18.545-1.76c-.028-.066-.005-.113.06-.125.05-.009.068-.001.08.035.01.025.007.061-.006.08-.029.044-.117.05-.134.01zm-.308-.113c-.031-.079-.02-.114.036-.119.059-.004.122.076.1.126-.02.042-.118.038-.136-.007zm.096-.146c-.014-.015-.024-.047-.022-.072.002-.034.018-.047.07-.055.055-.008.067-.002.081.04.03.085-.066.15-.129.087zm-17.768 1.017c-.02-.009-.038-.046-.04-.082-.003-.054.013-.067.075-.063.056.004.08.024.082.072.003.067-.049.1-.117.073zm19.57-2.71l-.113-.018c-.028-.008.103-.089.179-.111.07-.02.075-.02.101.009.033.038.037.076.01.108-.024.028-.048.03-.178.012zm-.118-.916c-.006-.014-.01-.047-.008-.074.002-.04.012-.052.052-.059.027-.005.061 0 .076.01.032.024.039.088.012.118-.028.031-.118.034-.132.005zm.798-.308c.005-.04.043-.081.083-.091.054-.013.072.002.064.054-.005.04-.042.082-.083.092-.053.013-.071-.002-.064-.055zm3.493 32.923c.017-.04-.038-.104-.1-.118-.057-.013-.076.09-.023.126.059.04.102.037.123-.008zm-.106-.377c.046-.024.006-.098-.075-.14-.022-.011-.037-.007-.066.02-.057.053-.042.098.038.116.08.017.078.017.103.004zm-37.181-2.762c-.002-.032-.025-.07-.05-.082-.06-.032-.134.05-.094.105.044.062.148.045.144-.023zm2.014-3.326c-.045-.039-.075.025-.037.077.028.04.038.04.05-.003.007-.028.001-.062-.013-.075zm-.12-.356c-.029-.062-.102-.137-.134-.136-.012 0-.013.018-.002.038.025.042.13.15.147.15.006 0 0-.024-.012-.052zm-.117-.238c-.041-.043-.046-.04-.041.025.002.04.02.083.038.095.052.032.055-.066.003-.12zm-.222-.508c-.008-.033-.045-.128-.082-.21-.054-.12-.068-.142-.066-.104.001.026.014.08.029.12.027.075.117.255.127.255.003 0 0-.028-.008-.06zm-.422-1.118c-.029-.08-.053-.158-.054-.174-.003-.037-.103-.183-.132-.192-.015-.004-.02 0-.015.01.005.009.025.059.045.11.1.265.121.313.158.367.023.032.043.051.045.042.003-.01-.019-.083-.047-.163zm-.227-.667c-.016-.028-.053-.07-.081-.096-.043-.037-.052-.04-.05-.017.004.043.068.15.113.19.04.035.04.035.044.004.002-.017-.01-.054-.026-.081zm-.201-.608c-.021-.111-.097-.113-.113-.003-.008.054.047.103.116.102.008 0 .007-.045-.003-.1zm-.599-1.461c-.008-.06-.022-.078-.068-.087-.076-.016-.094-.004-.086.056.007.049.082.108.136.106.016 0 .024-.034.018-.075zm-.136-.263c-.007-.08-.088-.123-.138-.073-.027.028-.026.05.004.087.057.068.14.06.134-.014zm-1.158-2.559c-.018-.08-.034-.114-.065-.145-.023-.022-.047-.064-.054-.092-.018-.069-.061-.138-.11-.177l-.04-.032.013.033c.078.209.209.492.236.51.017.013.034.02.038.016.003-.004-.005-.055-.018-.113zm11.504-.756c-.002-.016-.023-.027-.046-.026-.06.002-.133.095-.106.136.02.03.031.026.089-.024.036-.032.064-.07.063-.086zm-12.5-1.535c-.006-.06-.084-.123-.129-.103-.044.021-.036.101.014.13.063.037.12.024.114-.027zm-.195-.356c.018-.035.014-.044-.034-.1-.061-.07-.086-.08-.108-.042-.011.02-.006.045.017.093.054.108.088.121.125.049zm9.82-1.971c-.033-.05-.116-.11-.129-.092-.01.014.09.132.123.145.043.016.044.006.006-.053zm-.164-.105c-.002-.045-.15-.164-.171-.137-.012.014.047.086.1.121.052.034.073.038.071.016zm-.364-.28c-.037-.065-.178-.16-.175-.118 0 .007.025.036.056.064.082.076.149.107.12.055zm-.22-.166c-.001-.02-.064-.082-.123-.119-.095-.059-.111-.039-.032.04.066.065.157.112.155.08zm-.267-.208c-.026-.034-.168-.136-.187-.135-.026.001-.011.028.044.081.075.072.19.116.143.054zm-.259-.159c-.016-.033-.147-.134-.156-.12-.01.012.046.085.093.121.055.043.085.043.063 0zm-.265-.2c-.027-.05-.121-.118-.136-.098-.016.02.038.094.095.128.063.038.074.03.041-.03zm-.254-.19c-.042-.045-.087-.07-.098-.054-.03.041.06.146.123.14.043-.002.038-.02-.025-.086zm-.612-.429c-.039-.034-.084-.048-.1-.03-.015.018.008.057.052.086.105.067.14.026.048-.056zm28.728-4.298l-.046-.06.005.065c.002.036.018.073.035.083.052.028.056-.025.006-.088zm-46.195-3.188c.008-.015-.006-.054-.031-.086-.04-.049-.053-.05-.094-.01-.037.035-.039.056-.01.089.043.047.113.05.135.007zm-.16-1.322c-.002-.023-.124-.136-.147-.136-.007 0-.012.022-.01.05.004.048.041.084.102.099.047.01.057.008.055-.013zm.611-.934c.049-.031.061-.125.017-.124-.089.003-.17.113-.108.145.032.016.035.016.091-.02zm1.148-.215c.018-.002 0-.035-.04-.074-.045-.046-.08-.056-.096-.031-.04.059.008.167.06.136.023-.015.057-.029.076-.03zm26.276-9.498c-.006-.05-.066-.106-.121-.114-.058-.01-.04.089.023.127.067.04.105.035.098-.013zm-.146-.252c-.012-.013-.048-.018-.08-.01l-.06.013.052.05c.028.027.063.061.077.077.019.022.026.012.028-.039.002-.037-.006-.078-.017-.091zm-.132-.254c.008-.036 0-.074-.016-.083-.047-.026-.163.077-.133.117.043.058.134.037.15-.034zm-2.141-.491c.02-.062.003-.09-.054-.088-.066.003-.1.037-.095.093.009.085.12.081.149-.005zm.155-.184c.004-.027-.01-.062-.03-.078-.027-.021-.05-.012-.09.037-.029.036-.044.077-.033.09.032.04.145.004.153-.049zm23.295-1.776c.005-.054-.01-.07-.065-.067-.085.004-.125.1-.056.137.07.038.114.012.121-.07zm1.606-1.608c.033-.04.024-.058-.032-.062-.027-.002-.037-.012-.042-.04-.008-.041-.08-.09-.113-.076-.037.016-.03.05.02.09.027.022.06.06.075.083.03.052.051.053.092.005zm-31.481 58.585c-.012-.026-.008-.064.01-.084.047-.052.135-.014.14.06.005.079-.116.098-.15.024zm.04-.584c-.035-.036-.02-.112.025-.13.092-.037.147.028.09.106-.028.038-.09.051-.116.024zm.56-.363c-.007-.103.127-.1.153.004.012.048-.008.07-.065.074-.058.004-.085-.02-.088-.078zm-.76-.522c-.055-.065-.1-.12-.1-.125-.001-.017.065-.009.108.013.063.033.159.158.15.196-.015.057-.057.035-.159-.084zm-.873.04c-.055-.055-.023-.12.061-.125.063-.003.072.006.069.07-.005.083-.073.112-.13.055zm2.051-.191c-.054-.052-.02-.124.063-.13.059-.004.072.01.068.067-.006.081-.076.115-.13.063zm-.984-.632c-.017-.015-.018-.031-.006-.07.027-.09.142-.09.15 0 .001.03-.01.046-.045.064-.058.03-.072.03-.1.006zm-1.142-.06c-.026-.065.005-.11.078-.116.052-.003.066.012.07.073.003.062-.01.078-.064.081-.037.003-.075-.014-.084-.038zm-.078-.163c-.049-.055-.015-.12.066-.125.064-.005.071.003.068.066-.004.082-.083.117-.134.06zm-.422-.66c-.089-.026-.007-.165.083-.141.043.011.049.083.01.123-.032.033-.04.035-.093.019zm-.015-.215c-.01-.01-.02-.038-.021-.062-.002-.034.006-.047.046-.063.026-.012.06-.018.072-.013.054.018.05.1-.005.133-.046.026-.068.027-.092.005zm2.18-.12c-.048-.028-.05-.095-.004-.124.058-.037.127.005.124.075-.003.06-.06.085-.12.05zm-1.94.137c-.012-.008-.023-.043-.025-.078-.004-.053.006-.064.062-.067.076-.004.117.05.08.105-.026.042-.088.063-.118.04zm-.435-.12c-.045-.044-.027-.118.03-.121.022-.002.057.014.078.035.03.03.031.046.005.079-.04.052-.065.054-.113.007zm1.721-.112c-.015-.022-.018-.057-.006-.08.03-.055.144-.014.148.055.004.064-.1.082-.142.025zm-1.58-.091c-.046-.048-.025-.103.045-.117.037-.008.053.001.073.041.021.045.02.056-.008.082-.045.04-.068.04-.11-.006zm1.953-.141c-.024-.057.055-.156.112-.141.046.013.055.054.02.097-.04.047-.119.074-.132.044zm-.57-.035c-.03-.072-.003-.107.085-.113.045-.003.065.019.06.066-.01.089-.115.123-.146.047zm.962-.103c-.044-.049-.014-.12.053-.124.062-.004.098.048.079.112-.015.05-.091.057-.132.012zm-.252-.047c-.058-.037-.052-.132.009-.135.062-.003.13.077.1.118-.03.043-.063.048-.11.017zm-.326-.172c-.04-.04-.02-.113.035-.134.066-.025.109.008.1.078-.004.05-.102.09-.135.056zm.272-.057c-.002-.069.008-.082.056-.067.033.01.068.018.079.017.01-.001.02.026.022.06.002.04-.024.062-.076.068-.062.006-.078-.01-.08-.078zm.215-.03c-.012-.028-.01-.066.006-.085.046-.055.14-.027.144.044.004.08-.12.115-.15.042zm-.69-.084c-.014-.02-.033-.025-.084-.022-.071.004-.165-.033-.157-.063.007-.027.145-.086.21-.09.08-.006.13.035.136.11.002.03-.004.06-.012.07-.024.027-.071.024-.092-.005zm-2.478.172c-.072-.027-.083-.04-.074-.083.013-.062.05-.077.109-.042.05.03.066.03.163-.006.031-.012.04-.008.056.027.03.067.013.095-.063.098-.036.002-.081.008-.1.014-.019.007-.06.003-.09-.008zm2.806-.24c-.046-.023-.062-.095-.029-.128.018-.018.023-.017.026.006.001.014.028.044.057.066.03.022.055.047.057.056.002.024-.061.024-.111 0zm-2.032.114c.03-.097.083-.12.123-.052.028.048.03.06.013.085-.012.015-.051.029-.088.03-.066.003-.067.002-.048-.063zm-.986.08c-.043-.053-.012-.12.059-.125.07-.005.095.035.068.106-.02.056-.089.066-.127.02zm-.227-.093c-.013-.011-.025-.046-.028-.077-.002-.04.02-.059.08-.062.067-.004.081.008.077.065-.006.07-.083.114-.129.074zm-.603-.13c-.042-.013-.038-.108.004-.131.049-.026.052-.026.091.005.078.06.005.155-.095.125zm.708-.084c-.041-.039-.042-.058-.005-.102.054-.064.136-.037.13.043-.005.064-.08.1-.125.059zm-1.22-.114c-.043-.013-.042-.106.002-.133.05-.03.12.001.124.054.002.034-.06.095-.09.09l-.036-.011zm1.23-.122c-.004-.104.038-.11.106-.013l.051.073-.077.009c-.076.01-.077.008-.08-.069zm3.15-.357c-.008-.008-.016-.043-.017-.075-.003-.05.007-.06.066-.066.071-.005.104.036.086.11-.01.038-.107.061-.135.031zm-.43-.153c-.02-.035-.023-.055-.01-.078.038-.072.145-.016.15.077.002.06-.105.06-.14 0zm-3.674.238c-.03-.068.041-.144.101-.11.025.015.048.05.05.079.004.07-.123.096-.151.03zm3.994-.49c-.046-.044.01-.137.087-.142.042-.003.051.004.054.042.004.067-.098.14-.14.1zm.145-.14c-.03-.077-.02-.114.031-.118.061-.005.107.037.11.101.003.061-.118.075-.14.016zm-.142-.04c-.04-.032-.038-.063.01-.106.06-.055.112-.032.118.052.004.06-.002.07-.047.073-.028.001-.065-.008-.08-.02zm.365-.692c-.062-.024-.073-.055-.036-.101.04-.052.072-.05.117.005.044.053.05.087.02.102-.03.015-.048.014-.1-.006zm.518-.118c-.006-.07.002-.08.061-.083.125-.007.126.13.002.152-.05.009-.058 0-.063-.07zm28.489-3.78c-.004-.086.022-.105.096-.07.13.062.13.114.003.128l-.097.01-.002-.067zm1.508-.073c-.03-.062-.006-.114.056-.125.066-.012.102.034.084.106-.013.052-.118.065-.14.019zm-2.832.148c-.028-.065-.004-.113.06-.124.05-.009.068-.001.08.035.01.025.007.06-.006.08-.029.044-.117.05-.134.009zm1.758-.122c-.024-.06.016-.118.084-.123.054-.004.062.004.066.067.003.063-.004.073-.065.084-.05.009-.073.001-.085-.028zm.224-.02c-.03-.066.004-.125.07-.12.042.003.063.025.072.077.011.063.004.073-.056.077-.037.003-.076-.013-.086-.035zm-35.246 2.172c-.052-.061-.02-.127.06-.123.054.003.07.017.072.071.005.08-.079.113-.132.052zM76.061 952c-.009-.009-.02-.034-.023-.057-.006-.031-.02-.045-.06-.06-.068-.027-.081-.062-.047-.126.022-.04.035-.05.064-.048.037.002.037.003.038.093l.002.092h.06c.049 0 .064.008.083.038.022.034.022.038-.002.058-.031.027-.094.032-.115.01zm2.06-.21c-.035-.035-.012-.114.038-.13.054-.016.1.014.103.069.004.066-.094.11-.14.062zm1.094-.13c-.038-.083.052-.164.12-.106.055.047.027.13-.046.135-.032.002-.065-.012-.074-.03zm-2.92.073c-.04-.038-.028-.104.023-.13.052-.025.105.023.11.101.004.044-.095.066-.134.029zm1.9-.22c-.07-.037-.092-.084-.085-.18.005-.081.026-.094.094-.059.042.023.073.139.058.217l-.01.05-.056-.029zm-1.219-.028c-.032-.065-.048-.073-.093-.046-.05.03-.085.03-.114.002-.03-.03-.034-.06-.009-.084.01-.01.028-.048.038-.086.02-.079.053-.104.119-.096.058.007.107.055.154.152.03.06.035.085.028.134-.007.055-.012.06-.053.067-.04.007-.047.002-.07-.043zm-.603-.029c-.107-.087-.12-.116-.058-.135.036-.011.144.04.207.099.034.03.035.035.017.071-.01.021-.028.04-.04.044-.013.003-.068-.031-.126-.079zm-1.023.072c-.03-.044-.022-.078.028-.132.027-.029.041-.034.062-.023.037.02.064.124.042.16-.028.045-.1.042-.132-.005zm2.118-.115l-.075-.023-.053-.019.048-.06c.027-.034.067-.088.09-.12.045-.064.092-.08.126-.045.025.026.012.082-.033.152-.02.031-.037.065-.036.074.001.022-.04.047-.067.04zm-1.902.118c-.003-.036.022-.076.056-.089.08-.031.137.072.065.116-.085.051-.116.044-.121-.027zm2.435-.218c0-.022.008-.06.02-.084.02-.041.026-.042.08-.015l.058.03-.035.051c-.044.064-.12.075-.123.018zm-2.381.08c-.04-.028-.031-.141.01-.143.054-.003.136.08.12.12-.013.033-.095.047-.13.023zm2.501-.207c-.047-.06-.026-.104.05-.107.092-.003.107.03.045.095l-.057.06-.038-.048zm-3.158.152c-.014-.038.017-.14.059-.19l.026-.032.027.039c.067.098.057.137-.052.193-.046.024-.047.024-.06-.01zm1.442-.131c-.058-.055-.136-.107-.157-.106-.005 0-.01.027-.01.059 0 .048-.006.059-.032.064-.058.012-.031-.087.048-.176.002-.003.02.004.04.015.043.024.075.015.149-.04.082-.06.098-.048.11.083.007.1.005.115-.02.135-.043.034-.061.029-.128-.034zm1.309-.044c-.037-.032-.04-.106-.007-.2.027-.079.05-.1.1-.089.026.006.03.02.034.14.002.072 0 .14-.006.15-.015.026-.09.025-.121-.001zm.909-.134c-.067-.053-.07-.058-.075-.131-.005-.08.018-.125.06-.12.04.005.038.05-.005.1-.04.045-.04.049-.013.055.045.011.094-.01.112-.05.024-.051.065-.073.085-.044l.05.067.033.044-.072.038c-.043.023-.075.05-.08.067-.003.016-.01.03-.016.03-.005 0-.04-.025-.08-.056zm-2.722.254c-.06-.054-.035-.122.047-.127.06-.003.072.008.077.07.006.081-.062.113-.124.057zm2.361-.19c-.005-.006-.011-.038-.013-.07-.003-.069.02-.087.095-.07.066.013.082.069.035.114-.032.03-.098.045-.117.025zm-2.985.146c-.03-.077-.006-.123.068-.128.066-.005.072 0 .076.066.004.064-.004.074-.063.084-.045.009-.071.001-.08-.022zM42.66 953.16c-.047-.052-.027-.12.036-.125.074-.005.12.06.081.114-.035.05-.077.054-.117.01v.001zm36.499-2.264c-.036-.037.03-.14.091-.143.082-.004.07.137-.012.152-.033.006-.069.002-.08-.01zm.162-.045c-.036-.069-.008-.124.065-.128.06-.004.071.007.076.068.004.057-.009.075-.058.084-.038.007-.072-.003-.083-.024zm-3.191.132c-.026-.02-.021-.108.008-.133.04-.033.129-.002.132.046.004.054-.1.119-.14.087zm2.444-.27c-.022-.017-.042-.051-.044-.078-.006-.083.136-.054.154.032.017.075-.038.098-.11.045zm.475-.062c-.032-.026-.077-.132-.057-.132.007 0 .05.014.097.032.082.032.083.034.046.08-.043.053-.047.053-.086.02zm-.622-.131c-.002-.03.07-.116.117-.139.035-.017.044-.017.055-.003.009.013-.012.039-.072.09-.092.078-.099.081-.1.052zm.323.04c-.07-.012-.07-.045-.004-.102.074-.063.105-.056.108.024.002.05-.026.095-.055.088l-.05-.01h.001zm.223-.205c-.059-.05-.032-.125.074-.212.057-.046.148-.063.205-.037.03.014.03.014-.002.034-.018.011-.061.022-.097.025-.079.006-.09.022-.05.067.04.044.041.077.006.114-.036.038-.098.042-.136.009zm-5.076.205c-.005-.007.004-.031.021-.052l.111-.137c.044-.054.091-.123.104-.152.018-.042.039-.062.084-.082.074-.033.105-.03.133.013.028.042.018.108-.016.11-.058.004-.163.082-.262.193-.1.114-.149.144-.175.107zm5.487-.374c-.026-.044-.027-.064-.005-.086.043-.042.122 0 .138.075.01.049.002.061-.043.063-.033.003-.069-.019-.09-.052zm-36.33 2.295c-.026-.024-.026-.119 0-.138.013-.01.05-.012.082-.006.047.009.058.023.056.075-.003.048-.018.066-.062.074-.032.006-.066.003-.075-.005zm36.183-2.574c-.067-.047-.078-.098-.024-.113.023-.006.049.01.083.048.09.103.053.143-.059.065zm.192-.152c-.03-.008-.03-.083-.001-.176.031-.097.03-.136-.008-.212-.026-.051-.026-.055-.001-.04.015.01.05.047.078.084.066.085.08.203.033.28-.04.066-.058.077-.101.064zm.453.011c-.017-.006-.046-.028-.063-.049-.028-.033-.03-.041-.012-.073.024-.041.056-.03.115.036.06.07.04.115-.04.086zm-.217-.056c-.04-.024-.038-.039.012-.085.08-.074.112-.072.117.007.004.078-.062.119-.13.078zm.267-.474c-.042-.021-.05-.144-.008-.146.06-.002.138.06.13.102-.011.043-.076.067-.122.044zm-36.82 2.251c-.04-.087.051-.167.12-.106.03.027.035.046.017.079-.031.057-.116.074-.137.027zm36.464-2.318c-.026-.004-.048-.05-.042-.092.002-.016.017-.028.041-.032.049-.009.048-.024-.002-.054-.032-.02-.038-.031-.032-.062.01-.048.06-.075.103-.057.039.018.043.058.01.116-.024.044-.024.045.008.103.017.032.03.06.028.06-.01.01-.092.022-.113.018zm-37.636 2.352c-.024-.058.002-.118.053-.122.06-.004.108.053.092.108-.015.055-.123.065-.145.014zm37.432-2.44c-.009-.023-.012-.06-.005-.083.008-.032.026-.041.08-.04.062.003.068.009.072.073.005.063 0 .07-.062.08-.053.008-.072 0-.085-.03zm.422-.083c-.032-.034-.018-.105.025-.125.043-.02.112.016.115.06.005.077-.088.12-.14.065zm-37.533 2.274c-.033-.068.003-.129.074-.124.048.004.067.023.07.073.004.05-.012.07-.06.08-.038.007-.072-.004-.084-.03zm37-2.32c-.038-.087-.027-.113.045-.107.094.007.129.148.038.154-.033.002-.07-.019-.083-.046zm.118-.18c-.007 0-.03-.005-.05-.008-.069-.01-.093-.121-.042-.187.011-.014.028-.026.038-.027.01 0 .018-.018.02-.039 0-.03.008-.038.036-.04.028-.001.035.005.037.032.001.025-.006.036-.03.04-.062.014-.022.051.07.066.066.01.089.029.086.07-.003.046-.11.106-.165.094zm-.378-.121c-.005-.075.002-.083.072-.08.063.003.08.018.083.07.004.053-.011.07-.072.08-.07.012-.078.005-.083-.07zm.729-.063c-.066-.06.017-.166.093-.118.046.03.054.082.018.117-.035.034-.075.035-.111.001zm-.749-.583c-.032-.048.046-.129.108-.112.021.006.04.036.042.067.004.071-.11.106-.15.045zm-.152-.173c-.016-.035.012-.068.06-.068.039 0 .042-.005.04-.042-.002-.037.001-.04.041-.038.086.003.096.093.012.1-.025.002-.046.015-.058.034-.021.037-.08.046-.095.014zm-36.817 2.343c-.038-.062.003-.128.074-.12.04.003.065.03.069.071.006.077-.104.115-.143.05zm37.045-2.523c-.029-.062-.005-.115.056-.126.07-.012.115.06.072.117-.033.045-.11.05-.128.009zm-36.614 2.256c-.039-.04-.02-.114.035-.135.067-.024.109.008.101.079-.005.05-.102.09-.136.056zm36.434-2.373c-.024-.024-.024-.059 0-.101.02-.036.062-.048.125-.034.03.007.03.01-.017.078-.049.072-.077.087-.108.057zm-37.63 1.41c-.03-.065.004-.125.069-.12.043.004.064.026.073.078.011.063.004.073-.056.077-.037.002-.076-.013-.086-.035zm.862-.194c-.06-.058-.042-.119.039-.124.055-.004.07.007.08.054.017.092-.052.133-.12.07zm-.712-.03c-.011-.011-.023-.046-.025-.077-.003-.04.02-.058.074-.062.062-.004.08.011.083.073.003.055-.012.079-.052.081-.031.002-.067-.005-.08-.015zm.517-.256c-.025-.068-.003-.104.065-.109.067-.004.105.062.067.116-.038.055-.111.051-.132-.007zm36.608-2.535c.002-.068.011-.077.073-.081.05-.004.074.008.081.037.015.058-.03.112-.099.117-.05.003-.057-.006-.055-.073zm.14-.087c-.038-.04-.025-.101.026-.124.05-.022.114.03.109.088-.005.061-.09.083-.135.036zm-.279-.328c.008-.077.1-.132.141-.083.043.05-.007.132-.084.136-.046.003-.06-.01-.057-.053zm-37.557 2.18c-.031-.027-.024-.118.01-.134.074-.033.147.03.123.106-.011.035-.102.054-.133.027zm37.63-2.358c-.042-.045-.043-.06-.001-.089.069-.05.121-.029.126.048.005.086-.06.108-.124.041zm-.065-.153c-.063-.036-.034-.129.041-.134.044-.003.071.014.08.048.01.046-.028.104-.07.107-.008 0-.03-.01-.051-.021zm-.02-.218c-.021-.016-.04-.051-.043-.077-.006-.083.135-.054.154.031.017.076-.038.098-.11.046zm-.165-.099c-.052-.016-.092-.17-.05-.188.02-.009.148.039.185.068.008.006-.006.034-.037.069-.05.057-.062.063-.098.051zm-37.101 2.19c.004-.046.032-.076.078-.085.059-.012.074 0 .078.065.004.065-.01.08-.078.085-.068.004-.082-.008-.078-.065zm-.33-.334c-.06-.037-.022-.126.056-.132.05-.003.07.012.072.054.001.032-.016.069-.039.08-.05.028-.042.028-.09-.002zm.199-.392l-.066-.07h.073c.053 0 .075.019.081.07.01.087-.006.087-.088 0zm.218-.238c-.003-.055.062-.145.107-.148.086-.008.056.072-.052.136-.03.018-.055.024-.055.012zm-.195-.606c-.037-.026-.035-.11.003-.132.042-.024.08.004.117.083.02.048.013.06-.036.063-.033.002-.072-.004-.084-.014zm-1.268-.093c-.005-.07.009-.084.073-.08.052.004.08.028.084.07.002.043-.023.07-.074.08-.063.013-.078 0-.083-.07zm1.333-.17c-.052-.034-.047-.112.009-.127.055-.015.108.03.112.094.004.062-.052.077-.121.033zm-.497-.08c.005-.074.09-.118.137-.072.047.045.001.13-.073.136-.056.003-.069-.01-.064-.065zm.189-.64l.065-.078.03-.036.019.06c.02.07.005.086-.09.091l-.06.004.036-.041zm-.085-.353c-.007-.049.01-.076.051-.084.094-.019.12.002.088.074-.04.094-.126.1-.139.01zm-.324-.205c0-.022.034-.043.077-.048.043-.004.08.01.08.033.001.022-.033.044-.076.048-.044.004-.08-.01-.08-.033zm-.629-.293c-.059-.035-.028-.147.041-.15.059-.003.093.031.084.08-.015.074-.068.103-.125.07zm37.914-2.668c.034-.042.068-.077.077-.078.026-.002.028.11.002.131-.013.01-.05.02-.081.022l-.058.002.06-.077zm-37.413 2.331c-.023-.07-.002-.106.093-.16.02-.01.04.01.056.057.014.041.002.072-.028.074-.014.001-.044.015-.068.031l-.043.03-.01-.032zm-.148.051c-.033-.058.003-.116.074-.12.05-.002.066.014.07.074.005.06-.008.078-.058.081-.035.002-.074-.014-.086-.035zm-.426-.019c.004-.043.035-.08.068-.08.034-.003.07.03.08.073.016.058 0 .077-.068.08-.067.004-.086-.012-.08-.073zm-.402-.515l-.072-.06.037-.017c.068-.032.118-.026.164.02.047.045.053.066.03.095-.03.036-.086.023-.16-.038zm.526-.078c-.012-.02-.009-.046.012-.093.008-.018-.001-.023-.04-.025-.042-.002-.051-.01-.059-.046-.008-.039-.004-.044.034-.046.068-.004.087.026.12.185.007.04-.047.06-.067.025zm-.476-.047c-.085-.067-.04-.155.063-.126.032.009.052.04.05.075-.007.074-.057.096-.113.051zm-.455-.227c-.053-.01-.036-.066.037-.114.04-.027.078-.043.086-.036.019.016-.043.147-.072.152-.012.002-.035.002-.05-.002zm.956-.15c-.036-.026-.015-.074.049-.113.071-.044.108-.035.117.026.004.028 0 .061-.008.074-.02.03-.122.038-.158.013zm-.019-.247c-.058-.034.002-.16.07-.145.05.01.084.097.051.128-.027.025-.093.034-.12.017zm-1.097.022c-.023-.065.005-.11.07-.116.06-.005.09.041.075.11-.012.056-.125.06-.145.006zm.586-.452c.02-.161.062-.224.158-.23.06-.003.09.02.086.066-.002.027-.013.034-.063.044-.051.01-.07.024-.124.09l-.062.078.005-.048zm-.704-.356c-.012-.029-.01-.066.003-.083.042-.053.13-.02.143.054.01.056 0 .071-.056.075-.039.003-.079-.018-.09-.046zm.138-.937c-.054-.05-.059-.102-.011-.119.051-.017.111.026.123.09.012.067-.054.084-.112.029zm.022-.194c-.022-.044.02-.125.067-.127.065-.004.101.044.077.101-.024.056-.12.073-.144.026zm.052-.76c-.02-.006-.039-.042-.042-.08-.005-.063.003-.07.073-.066.066.002.079.014.083.073.006.07-.035.096-.114.073zm-1.09-.988c-.006-.086.05-.118.119-.068.068.05.04.126-.047.13-.049.003-.068-.014-.072-.062zm.214-.692c-.01-.011-.026-.043-.032-.071-.01-.043-.008-.053.02-.063.046-.017.12.015.13.056.014.066-.072.124-.118.078zm-.513-.856c.005-.027.016-.062.025-.078.023-.041.11-.042.124 0 .02.052-.033.117-.1.123-.053.004-.058 0-.05-.045zm-.16-.63c-.052-.045-.02-.12.052-.124.07-.003.1.045.066.108-.03.057-.066.062-.118.016zm-.388-.212c-.056-.021-.077-.092-.039-.123.023-.018.04-.02.068-.008.05.023.066.044.07.1.003.05-.026.06-.1.031zm.15-.174c-.039-.025-.069-.06-.066-.078l.005-.031.073.029c.046.019.074.045.078.077.004.027 0 .048-.006.049-.007 0-.045-.02-.084-.046zm-.166-.492c-.081-.015-.086-.025-.043-.086.058-.082.146-.066.15.026.002.037-.027.086-.043.074-.001-.001-.03-.008-.064-.014zm-.408-.332c-.011-.035.031-.1.08-.122.037-.016.11.014.1.041-.012.032-.109.107-.14.11-.017 0-.034-.012-.04-.03zm.088-.413c-.027-.057.016-.12.085-.124.049-.003.06.009.064.069.003.06-.006.073-.063.083-.046.008-.073-.001-.086-.028zm-.68-.501c-.005-.083.063-.12.124-.066.061.053.033.124-.051.13-.055.003-.07-.01-.073-.064zm-.477-1.078c-.045-.049-.014-.12.054-.124.032-.002.066.015.077.038.02.046-.019.114-.067.117-.018.001-.047-.013-.064-.031zm.024-1.12c-.026-.061.005-.112.069-.116.058-.004.092.047.075.112-.015.055-.12.057-.144.003zm-1.423-.548c-.037-.061.003-.128.075-.12.04.003.065.03.068.071.007.077-.103.114-.143.05zm-.045-.708c-.06-.042-.084-.148-.03-.127.074.029.124.07.127.103.005.055-.038.066-.097.024zm.386-.113c-.035-.024-.02-.098.026-.124.063-.037.108-.024.112.031.005.065-.088.128-.138.093zm43.5-2.773c-.034-.068.003-.128.074-.123.048.004.067.023.07.072.003.05-.013.071-.06.08-.038.008-.072-.004-.085-.029zm-28.398 1.686c-.056-.029-.022-.133.044-.137.03-.002.062.02.074.048.037.088-.025.135-.118.089zm-15.052.687c-.042-.043-.026-.12.026-.13.062-.012.133.075.098.121-.03.04-.09.044-.124.009zm-.349-.005c-.021-.027-.023-.05-.006-.079.043-.075.151-.043.146.044-.005.071-.094.094-.14.035zm-.717-.234c.004-.051.029-.08.072-.083.043-.002.07.023.08.072.013.063 0 .078-.071.082-.071.005-.085-.008-.08-.071zm-.06-.245c-.005-.071.085-.125.134-.081.051.045.01.134-.065.138-.043.003-.067-.017-.07-.057zm.491-.6c-.022-.04.01-.12.049-.12.04-.002.098.035.101.065.004.026-.076.088-.113.09-.01 0-.026-.016-.037-.036zm-.964-.298c.007-.103.15-.123.156-.022.003.048-.019.07-.078.082-.072.015-.083.007-.078-.06zm-.414-.689c-.014-.03-.01-.07.01-.09.047-.054.148-.015.139.055-.01.078-.117.103-.149.035zm.308-.094c-.04-.01-.099-.038-.1-.05 0-.004.021-.02.047-.033.06-.034.082-.084.056-.132-.015-.027-.025-.032-.05-.023-.075.028-.09.03-.1.008-.007-.013-.001-.034.012-.05.026-.032.087-.042.09-.015 0 .01.02.035.045.055.041.035.045.043.047.127.002.05.008.097.014.106.013.018-.006.02-.06.007zm31.408-2.608c-.048-.042-.158-.245-.133-.246.03-.001.156.176.154.216-.002.028-.01.04-.02.03zm-31.772 1.805c-.026-.033-.025-.037.012-.079.059-.068.124-.059.128.018.003.082-.09.123-.14.061zm31.51-2.305c-.03-.038-.04-.075-.021-.084.026-.014.136.093.14.136.004.04-.075.006-.12-.052zm-32.12 1.466c-.031-.046.026-.133.09-.138.052-.003.06.006.058.068-.003.055-.018.074-.068.084-.035.006-.071 0-.08-.014zm31.828-2.11c-.03-.037-.045-.076-.031-.085.028-.022.147.069.152.116.005.059-.062.042-.12-.03zm-13.688.366c-.06-.02-.067-.028-.07-.07-.003-.052.023-.084.06-.073.047.013.126.164.087.165-.006 0-.041-.01-.077-.022zm.164-.54c-.04-.06-.01-.12.062-.124.055-.002.072.013.077.068.007.077-.096.12-.139.057zm13.056-.851c-.063-.08-.04-.135.034-.082.026.018.042.06.036.094-.01.055-.017.054-.07-.012zm15.898-3.414c-.06-.1-.036-.15.032-.066.08.101.083.11.034.112-.02.001-.05-.02-.066-.046zm-28.415 1.18c-.042-.037-.042-.104 0-.123.072-.033.145.031.12.108-.013.044-.079.052-.12.015zm16.718-1.232c-.035-.06.032-.13.097-.102.07.03.066.144-.006.148-.035.002-.075-.02-.091-.046zm-37.703 2.107c-.065-.054-.071-.11-.013-.114.023-.001.06.01.084.025.039.025.04.031.023.078-.011.028-.025.052-.032.052-.006 0-.035-.018-.062-.04zm-.756-.021c-.03-.026-.03-.108 0-.129.052-.036.14.007.134.067-.004.056-.093.097-.134.062zm.3-.189c-.006-.066.035-.13.076-.115.065.023.056.15-.011.152-.034.002-.063-.015-.065-.037zm-.17-.12c.005-.058.025-.081.076-.084.108-.005.108.133 0 .151-.07.011-.08.003-.075-.067zm50.48-3.66c-.059-.074-.023-.13.04-.063.044.048.063.124.03.125-.01 0-.041-.027-.07-.063zm-12.508.739c-.058-.056-.037-.12.041-.125.023-.002.05.006.062.016.03.03.028.096-.005.119-.042.028-.06.027-.098-.01zm-38.341 2.066c-.016-.05-.004-.07.05-.083.037-.01.059-.029.096-.087l.049-.074.013.071c.007.039.025.095.04.124l.026.06c0 .002-.06.009-.132.013-.128.009-.132.008-.142-.024zm-.438.022l-.034-.024.046-.055c.026-.03.06-.077.075-.102.031-.052.066-.06.1-.027.037.038.103.142.105.166.003.042-.04.026-.071-.027-.04-.067-.065-.066-.082.004-.02.083-.076.11-.139.065zm-.38-.128c-.044-.012-.048-.121-.005-.138.083-.032.155.034.116.106-.021.04-.051.05-.112.032zm40.636-2.572c-.073-.057-.014-.161.07-.127.05.02.065.055.047.105-.016.048-.07.058-.117.022zm-39.808 2.316c0-.007.008-.04.018-.073.022-.072.064-.097.122-.07l.042.02-.048.03c-.027.017-.068.047-.091.068-.024.02-.043.031-.043.025zm-1.302.002c-.021-.038.085-.143.125-.126.042.02.038.08-.008.118-.053.044-.095.047-.117.008zm.74-.158c-.02-.061.012-.117.07-.122.056-.006.092.043.079.108-.006.028-.028.041-.073.045-.045.005-.068-.005-.076-.031zm.2-.152c-.018-.015-.033-.036-.034-.047-.004-.062.082-.163.159-.187.054-.017.05.015-.008.07-.047.044-.047.046-.027.093.012.026.018.057.014.07-.01.031-.066.032-.104 0zm5.394-.394c-.028-.012-.046-.036-.051-.067-.013-.074.013-.09.083-.052.068.038.082.061.064.105-.016.036-.038.04-.096.014zm33.99-2.143c.006-.04.044-.08.084-.091.054-.014.072.002.064.055-.005.04-.043.08-.083.09-.054.014-.072 0-.064-.054zm-16.324.656c-.049-.05-.01-.121.07-.126.05-.003.062.008.065.07.004.055-.007.075-.047.083-.028.006-.068-.007-.088-.027zm-23.718 1.452c-.032-.025-.018-.094.025-.122.057-.038.11-.024.115.03.004.067-.09.13-.14.092zm5.826-.42c-.013-.03-.01-.071.01-.091.047-.054.148-.014.139.056-.01.077-.117.102-.149.034zm-.328-.122c-.046-.05-.014-.123.055-.127.063-.004.09.034.078.112-.007.048-.094.058-.133.015zm-5.992.305c-.027-.056-.006-.114.044-.124.062-.012.114.041.098.102-.014.055-.119.071-.142.022zm1.112-.12c-.027-.087.004-.125.092-.113.068.01.077.066.018.117-.056.05-.094.048-.11-.004zm6-.37c-.014-.004-.027-.034-.03-.066-.002-.046.008-.062.047-.074.089-.029.146.048.086.116-.03.034-.056.04-.102.025zm34.383-2.319c-.03-.029-.024-.103.011-.125.048-.03.123.004.127.058.001.024-.006.053-.017.064-.028.027-.093.03-.12.003zm-40.361 2.528c-.025-.076.003-.125.07-.121.054.002.067.014.075.075.009.067.004.073-.061.079-.045.004-.076-.008-.084-.033zm-.392.005c-.052-.066-.046-.11.017-.115.03-.003.07.03.088.073.027.064.024.078-.018.082-.028.002-.067-.016-.087-.04zm.61-.073c-.067-.09.037-.17.112-.086.028.03.03.048.013.079-.03.05-.09.055-.125.007zm22.593-1.432c-.006-.08.029-.109.106-.088.08.021.06.13-.029.145-.058.01-.073 0-.077-.057zm-18.184 1.106c-.03-.038.035-.124.097-.127.027-.002.05.03.052.074.004.055-.013.078-.06.08-.036.003-.076-.01-.09-.027zm18.705-1.291c-.033-.061-.008-.098.074-.109.061-.008.064-.006.069.052.003.042-.007.067-.034.08-.06.031-.082.026-.109-.023zm28.22-2.026c-.052-.057-.028-.119.048-.124.048-.003.071.009.08.038.011.048-.028.114-.07.117-.016 0-.043-.013-.059-.031zm-47.011 2.836l-.038-.009.03-.06c.034-.072.067-.093.102-.065.034.027.035.075 0 .113-.029.034-.036.036-.094.021zm18.993-1.144c-.067-.037-.036-.132.045-.138.057-.003.072.01.076.068.005.077-.052.11-.12.07zm-23.043 1.377c-.028-.055.004-.11.067-.114.073-.004.104.053.06.107-.05.06-.098.063-.127.007zm-.223-.074c-.027-.016-.036-.085-.021-.152l.009-.04.046.03c.025.017.059.055.075.083.027.047.027.055-.004.073-.043.024-.072.026-.105.006zm3.768-.36c-.009-.01-.024-.033-.033-.054-.016-.034-.013-.042.023-.08.074-.076.15-.078.164-.002.009.05 0 .096-.026.124-.024.028-.106.035-.128.012zm-3.428.198c-.027-.02-.025-.094.003-.121.07-.068.18.024.117.098-.027.032-.092.044-.12.023zm22.384-1.443c.046-.05.089-.086.093-.08.014.02-.068.132-.098.135-.015.002-.039.01-.054.019-.014.009.012-.025.059-.074zm8.451-.479c-.03-.013-.058-.051-.062-.085l-.008-.06.07.043c.086.052.086.14 0 .102zm-28.37 1.71c-.06-.053-.031-.124.052-.13.046-.002.068.03.073.105.003.037-.007.048-.045.05-.026.002-.062-.01-.08-.025zm-3.291.176c-.056-.05-.03-.11.05-.123.064-.01.073-.004.077.055.003.04-.011.073-.036.082-.054.02-.051.021-.091-.014zm.184-.155c-.002-.07.01-.082.07-.078.05.003.078.028.085.073.008.057-.006.072-.071.08-.067.007-.082-.006-.084-.075zm3.343-.294c-.047-.028-.043-.063.012-.117.041-.04.055-.047.102-.043.085.006.127.036.126.088-.002.041-.006.044-.07.057l-.104.024c-.021.007-.046.004-.066-.009zm.507.042c-.015-.024-.011-.064.007-.09.044-.057.155-.017.14.05-.016.069-.113.095-.147.04zm-2.472-.125c-.024-.018-.065-.04-.09-.049-.05-.018-.056-.03-.036-.074.024-.051.108-.034.146.03.028.047.05.123.035.124-.006 0-.03-.014-.055-.031zm29.9-1.782c-.03-.019-.057-.06-.06-.093-.005-.054 0-.056.064-.016.038.024.065.067.06.094-.008.04-.02.043-.064.015zm-30.18 1.844c-.046-.012-.047-.123-.002-.14.086-.034.17.07.097.122-.043.03-.05.031-.096.018zm-.809-.012c-.015-.007-.03-.04-.034-.075-.005-.047.01-.062.07-.064.062-.002.079.012.086.073.008.072-.05.103-.122.066zm1.266-.164c-.051-.038-.018-.135.048-.137.072-.004.096.023.08.087-.017.062-.078.087-.128.05zm1.608-.056c-.014-.012-.026-.047-.028-.078-.003-.04.02-.058.08-.062.067-.004.08.008.076.065-.006.07-.082.114-.128.075zm-.496-.05c-.033-.01-.033-.015 0-.076.037-.069.102-.09.125-.042.019.039.001.085-.041.11-.04.024-.035.023-.084.008zm-1.872.046c-.025-.06-.005-.114.048-.124.063-.012.11.037.096.1-.013.056-.123.074-.144.024zm2.072-.204c-.039-.058 0-.123.073-.12.04.003.06.016.067.049.02.09-.09.147-.14.071zm-1.142.118c-.011-.018-.017-.044-.012-.06.014-.04.143-.09.172-.065.024.021.024.025 0 .08-.03.065-.127.092-.16.045zm.758-.301c-.045-.017-.078-.04-.09-.063-.05-.09-.01-.102.075-.022.05.048.104.114.09.112l-.075-.027zm.695.01c-.026-.07-.005-.121.053-.125.063-.005.106.047.09.11-.013.05-.125.062-.143.015zm20.407-1.28c-.042-.057-.015-.118.054-.123.064-.005.097.041.079.112-.013.05-.096.058-.133.01zm.064-.208c-.04-.053.006-.141.072-.136.088.006.097.135.01.152-.033.007-.07 0-.082-.016zm-21.984 1.234c-.046-.007-.072-.077-.043-.117.05-.069.14-.035.145.055.002.035-.055.07-.102.062zm.554-.194c-.024-.067.002-.114.066-.119.045-.003.063.009.074.05.022.071.004.1-.067.105-.039.003-.063-.01-.073-.036zm1.131-.203c-.028-.064-.004-.105.064-.108.067-.004.106.067.065.117-.044.053-.104.05-.129-.01zm20.563-1.628c.02-.042.05-.078.066-.08.017-.001.049.027.073.064l.042.068-.11.011-.108.012.037-.075zm-.022-.193c-.028-.024-.01-.084.045-.148l.059-.069.057.04.057.04-.022.04c-.011.024-.04.055-.062.071-.04.029-.115.043-.134.026zm28.619-2.004c-.004-.071.085-.125.135-.08.05.044.01.133-.065.138-.043.002-.068-.017-.07-.058zm-9.172.587c-.03-.026-.03-.108 0-.128.052-.036.14.007.135.066-.005.057-.093.098-.135.062zm-19.803.47c-.068-.074.03-.175.106-.107.032.028.036.047.018.08-.03.058-.085.07-.124.027zm28.958-2.102c-.007-.016-.01-.052-.009-.079.003-.04.014-.05.063-.053.117-.009.129.13.013.152-.037.007-.06 0-.067-.02zm.24-.294c.005-.054.03-.083.078-.085.106-.007.104.128-.002.15-.068.013-.081.002-.076-.065zm-8.415.323c-.036-.01-.046-.119-.015-.14.013-.007.048-.01.079-.005.043.007.057.023.06.068.005.07-.046.1-.124.077zm-20.503 1.239c-.046-.056-.012-.128.06-.124.047.003.064.02.073.077.01.063.003.074-.046.078-.032.002-.07-.012-.087-.031zm.34-.105c-.02-.05.038-.12.088-.108.041.01.076.072.063.112-.019.057-.127.055-.15-.004zm.169-.337c-.003-.045.022-.114.048-.13.036-.021.117-.023.137-.002.01.01.017.037.016.058-.001.032-.01.04-.05.049-.026.006-.061.019-.077.029-.043.026-.073.025-.074-.004zm28.348-1.807c-.049-.001-.052-.004-.055-.047-.003-.044.023-.091.05-.093.006 0 .028.004.047.01.027.008.037.006.042-.01.004-.013.02-.02.038-.019.043.003.047.055.004.063-.023.005-.03.016-.028.045.003.043-.015.052-.098.05zm-28.41 1.635c-.027-.057.016-.12.085-.124.049-.003.06.008.063.068.004.06-.006.074-.062.084-.046.008-.074-.001-.086-.028zm20.891-1.66c-.005-.071.097-.126.141-.076.042.05-.003.132-.073.136-.035.001-.065-.025-.068-.06zm-20.663 1.028c-.005-.004-.012-.043-.015-.086-.003-.054-.012-.083-.027-.094-.032-.023-.001-.042.044-.029.018.006.048.01.066.009.068-.005.108.077.06.122-.042.04-.118.087-.128.078zm19.924-1.426c-.013-.01-.024-.035-.025-.055-.005-.075.098-.115.137-.053.028.044.027.062-.003.095-.031.034-.078.04-.11.013zm-20.1.866c-.032-.064.002-.116.077-.12.061-.004.07.005.067.065-.004.081-.112.122-.145.055zm21.767-1.474c-.074-.084-.064-.125.03-.12.07.002.081.012.078.068-.005.09-.054.113-.108.052zm-.262.017c-.04-.048 0-.123.07-.128.064-.005.088.035.061.104-.021.055-.095.068-.131.024zm7.442-.56c-.05-.015-.051-.124-.001-.144.063-.026.145.046.113.098-.03.048-.06.06-.112.046zm-6.848.205c-.031-.042.036-.134.1-.138.071-.005.064.089-.01.133-.046.027-.073.028-.09.005zm-21.723 1.216c-.08-.035-.115-.135-.043-.124.064.01.123.066.118.112l-.005.042-.07-.03zm-.005-.976c-.033-.011-.036-.123-.004-.139.04-.02.113 0 .128.035.03.073-.043.134-.124.104zm22.24-1.578c-.055-.056.009-.149.085-.126.08.023.062.146-.02.151-.021.002-.05-.01-.065-.025zm6.726-1.145c-.008-.007-.016-.038-.018-.069-.002-.044.008-.059.045-.072.065-.022.108.007.112.076.003.052-.004.059-.061.068-.036.006-.07.004-.078-.003zm-24.92 1.281c-.038-.062.002-.128.073-.121.04.004.065.03.07.072.005.077-.104.114-.144.05zm19.68-1.376c-.066-.015-.128-.053-.137-.083-.013-.04-.004-.054.046-.067.053-.014.051-.05-.003-.065-.049-.014-.065-.041-.048-.08.022-.045.083-.037.177.025.181.118.186.124.14.171-.015.015-.035.045-.045.067-.018.04-.054.05-.13.032zm-22.927 1.366c-.038-.018-.03-.107.012-.133.045-.027.105 0 .118.052.018.069-.057.115-.13.08zm2.638-.461c-.02-.046-.038-.11-.04-.141-.003-.052 0-.06.032-.07.058-.018.087.015.069.075-.013.042-.01.054.02.1.018.028.034.066.035.083.002.025-.006.031-.04.033-.038.002-.044-.004-.076-.08zm26.058-1.554c-.03-.047-.015-.096.036-.115.077-.029.14.063.085.123-.035.038-.094.035-.121-.008zm-28.99 1.765c-.038-.013-.06-.07-.043-.11.03-.072.146-.041.151.04.003.049-.058.088-.108.07zm4.054-.337c-.025-.057.001-.118.054-.121.07-.005.112.044.086.103-.027.06-.116.07-.14.018zm-4.13.088c-.041-.035-.045-.06-.017-.104.018-.027.027-.03.064-.015.058.022.092.084.066.12-.026.035-.073.035-.114 0zm3.084-.21c-.053-.06-.06-.107-.014-.109.046-.003.124.068.127.116.004.055-.063.051-.113-.006zm-2.624.141c-.04-.054.034-.136.094-.105.026.013.048.05.05.082.005.068-.1.085-.144.023zm22.79-1.558c.004-.051.028-.08.071-.082.044-.003.071.022.081.072.013.063 0 .077-.071.082-.072.004-.086-.009-.08-.072zm-19.833 1.138c-.026-.049-.004-.112.04-.115.052-.002.104.026.106.058.007.091-.103.134-.146.057zm20.342-1.227c-.008-.006-.016-.035-.018-.065-.004-.042.006-.06.043-.075.117-.05.16.05.05.115-.034.019-.067.03-.075.025zm-21.993 1.332c-.024-.018-.023-.098.002-.121.013-.012.043-.023.068-.024.055-.003.088.064.059.116-.018.033-.098.051-.129.029zm-.863.04c-.035-.02-.037-.033-.008-.076.04-.06.102-.071.132-.026.02.03-.026.126-.062.127-.01.001-.038-.01-.062-.024zm22.447-1.51c-.023-.064.014-.118.083-.124.058-.004.064.001.067.066.003.065-.003.072-.066.084-.052.01-.073.003-.084-.026zm-22.035 1.215c-.054-.083-.038-.135.04-.131.099.006.111.039.042.111-.05.053-.06.055-.082.02zm.32-.168c-.114-.077-.139-.107-.143-.175-.005-.067.008-.083.058-.074.031.006.035.014.04.074.004.072.029.1.119.13.035.012.044.022.042.05-.003.052-.033.05-.116-.005zm27.176-1.66c-.006-.012-.001-.039.01-.06.013-.025.016-.055.009-.085-.018-.078.006-.088.16-.069l.13.016-.097.051c-.08.042-.098.058-.103.09-.01.069-.014.073-.057.076-.026.002-.046-.006-.052-.019zm-26.56 1.608c-.006-.063.053-.11.119-.094.082.02.017.148-.077.152-.028.001-.04-.014-.043-.058zm-1.396.07c-.012-.01-.024-.048-.026-.084-.004-.054.008-.064.074-.061.062.003.079.018.082.072.004.048-.012.071-.052.079-.032.007-.067.004-.078-.007zm.462-.094c-.046-.08.04-.163.11-.103.062.054.037.129-.045.134-.029.002-.053-.01-.065-.031zm28.31-1.74c-.03-.067.009-.114.086-.105.037.004.058.029.06.072.007.088-.11.114-.146.033zm-.312-.104c-.023-.02-.029-.04-.023-.08.008-.06.007-.06.07-.035.068.027.092.057.083.1-.005.029-.018.038-.053.04-.025.001-.06-.01-.077-.025zm-26.992 1.724c-.02-.01-.032-.045-.03-.078.004-.047.02-.06.078-.063.066-.005.075.003.079.069.003.054-.008.075-.044.082-.027.006-.064.001-.083-.01zm21.89-1.504c-.045-.054-.007-.12.071-.126.055-.004.063.004.066.068.004.06-.005.074-.05.084-.032.006-.07-.005-.087-.026zm-23.17 1.375c-.027-.038.027-.13.077-.134.053-.003.086.052.068.112-.013.044-.12.06-.145.022zm1.043-.108c-.046-.039-.049-.051-.02-.076.042-.035.152.033.137.084-.014.05-.054.048-.117-.008zm21.995-1.418c-.025-.03-.033-.073-.016-.088.006-.005.046-.018.09-.029.073-.018.08-.017.078.014-.003.03-.092.126-.12.13-.005 0-.02-.012-.032-.027zm.878-.078c-.003-.052.052-.115.102-.118.054-.004.07.038.04.098-.033.063-.139.078-.142.02zm-23.363 1.427c-.034-.02-.038-.033-.024-.077.013-.043.029-.054.077-.057.053-.003.061.003.07.058.016.087-.042.122-.123.076zm-.34-.1c.005-.086.113-.122.144-.047.03.07.004.108-.079.114-.057.004-.07-.009-.066-.066zm23.773-1.445c-.054-.058-.025-.13.053-.137.061-.004.08.012.076.063-.008.072-.088.118-.13.074zm3.866-.485c-.026-.063-.005-.113.053-.124.073-.015.103.015.091.089-.008.046-.022.059-.07.062-.034.003-.067-.01-.074-.027zm-.28-.11c-.013-.017-.034-.055-.046-.083-.012-.029-.04-.069-.063-.088l-.041-.036.051-.017c.101-.035.144-.027.172.032.018.04.01.087-.026.17l-.024.054-.023-.031zm-3.23.097c.044-.1.07-.119.112-.074.036.038.037.041.013.079-.014.02-.053.041-.087.045l-.062.008.025-.058zm-.45.018c.004-.03.115-.12.155-.126.007-.001-.001.031-.018.072-.023.055-.046.077-.086.082-.037.004-.054-.005-.05-.028zm3.375-.28c-.06-.063-.038-.112.05-.115.066-.003.085.072.035.134-.026.031-.043.028-.085-.018zm.185-.079c-.064-.046-.04-.148.033-.14.04.004.075.035.077.07.006.066-.058.107-.11.07zm-3.037.07c-.005-.057.015-.078.075-.081.084-.004.1.019.065.102-.033.08-.133.065-.14-.022zm-.483.04c.005-.048.033-.077.08-.08.105-.01.101.108-.004.134-.067.016-.081.006-.076-.054zm.352-.07c-.026-.035.002-.11.048-.129.064-.027.122.034.091.095-.026.052-.108.072-.139.033zm2.494-.188c-.072-.04.01-.167.09-.14.055.018.052.122-.003.138-.06.017-.06.017-.087.002zm-2.216-.025c-.03-.065.004-.125.069-.12.043.004.064.026.073.078.011.063.003.073-.056.077-.038.002-.077-.013-.086-.035zm1.925-.124c-.036-.027-.032-.112.005-.136.037-.022.123.052.127.111.003.037-.093.055-.132.025zm-1.147.01c0-.01.007-.045.016-.078.024-.087.076-.088.118-.002.017.034.027.068.023.074-.014.02-.156.024-.157.005zm1.313-.07c-.032-.01-.035-.101-.005-.13.035-.032.123-.023.133.014.019.073-.056.14-.128.116zm.98-.094c-.02-.072-.002-.1.068-.105.066-.004.105.062.067.117-.037.056-.116.048-.134-.012zm-2.929.071c-.033-.06.07-.142.127-.101.051.038.016.14-.051.144-.028.001-.062-.018-.076-.043zm3.06-.195c-.025-.057.03-.13.093-.124.038.003.054.024.057.071.003.054-.01.07-.065.08-.045.01-.074 0-.086-.027zm-3.619.193c-.01-.014-.012-.05-.004-.08.022-.084.131-.065.148.026.012.06.004.072-.055.075-.038.002-.078-.007-.088-.021zm.145-.146c-.03-.031.033-.13.086-.134.062-.005.09.098.034.128-.062.034-.092.035-.12.006zm1.18-.242c-.028-.025-.028-.085 0-.103.146-.087.194-.095.205-.035.006.032 0 .041-.041.061-.027.013-.057.04-.069.06-.023.04-.06.047-.095.017zm-.804.025c-.021-.048-.001-.087.058-.114.062-.028.066-.027.085.037.011.036.007.056-.015.078-.043.04-.111.04-.128 0zm1.69-.17c-.02-.043-.018-.054.008-.08.041-.042.125-.037.135.008.01.048-.037.114-.083.118-.026.002-.046-.014-.06-.047zm.367-.54c-.008-.016-.008-.036-.001-.046.007-.01.01-.055.006-.1l-.006-.082.07-.003c.056-.003.074.002.08.022.005.014-.001.03-.014.038-.016.008-.02.04-.016.098l.007.086-.056.007c-.044.005-.06 0-.07-.02zm-1.31-.2c-.027-.061.002-.115.064-.12.069-.004.094.028.078.098-.014.062-.12.079-.143.023z" transform="translate(-27.000000, -902.000000)"/>
        </g>
    </g>
</svg>
